<svg width="1418" height="753" viewBox="0 0 1418 753" fill="none" xmlns="http://www.w3.org/2000/svg">
<path d="M513.129 115.715H538.859H872.668H906.523V54.6191H513.129V115.715Z" fill="#8D202C" stroke="#8D202C" stroke-width="14.4957"/>
<path d="M540.617 344.612V115.716H879.038V344.612L773.204 430.755C729.886 450.445 678.036 438.959 657.526 430.755L540.617 344.612Z" fill="#8D202C" stroke="#8D202C" stroke-width="14.4957"/>
<path d="M678.128 512.528V442.048L745.538 442.048V512.528L808.132 551.047V576.255H837.258V697.729H593.867V576.255H623.181V551.047L678.128 512.528Z" fill="#8D202C"/>
<path d="M623.181 576.255V551.047L678.128 512.528V442.048L745.538 442.048V512.528L808.132 551.047V576.255M623.181 576.255H808.132M623.181 576.255H593.867V697.729H837.258V576.255H808.132" stroke="#8D202C" stroke-width="14.4957"/>
<path d="M844.637 158.326H829.883V295.481L844.637 265.74V158.326Z" fill="#8D202C" stroke="#8D202C" stroke-width="14.4957"/>
</svg>
