<svg width="742" height="1035" viewBox="0 0 742 1035" fill="none" xmlns="http://www.w3.org/2000/svg">
<g clip-path="url(#clip0_215_148)">
<mask id="path-1-outside-1_215_148" maskUnits="userSpaceOnUse" x="92.2552" y="325.173" width="283.267" height="360.335" fill="black">
<rect fill="white" x="92.2552" y="325.173" width="283.267" height="360.335"/>
<path d="M373.934 661.956L343.856 326.6L242.985 335.647C207.97 338.787 184.634 342.062 172.977 345.47C161.32 348.878 151.471 355.152 143.429 364.292C135.375 373.285 129.354 385.196 125.368 400.027C121.221 414.725 119.864 430.058 121.297 446.027C124.319 479.724 135.163 504.301 153.828 519.759C132.748 563.002 122.827 617.871 124.064 684.367L228.891 674.965L228.615 671.888C225.08 632.478 226.122 602.108 231.742 580.781C237.361 559.453 246.983 548.178 260.608 546.956L261.927 546.838L273.063 671.003L373.934 661.956ZM247.416 404.81L249.174 404.652L254.969 469.262L252.332 469.498C242.516 470.379 235.174 468.379 230.305 463.499C225.437 458.619 222.484 450.392 221.446 438.817C219.567 417.867 228.224 406.531 247.416 404.81Z"/>
</mask>
<path d="M373.934 661.956L343.856 326.6L242.985 335.647C207.97 338.787 184.634 342.062 172.977 345.47C161.32 348.878 151.471 355.152 143.429 364.292C135.375 373.285 129.354 385.196 125.368 400.027C121.221 414.725 119.864 430.058 121.297 446.027C124.319 479.724 135.163 504.301 153.828 519.759C132.748 563.002 122.827 617.871 124.064 684.367L228.891 674.965L228.615 671.888C225.08 632.478 226.122 602.108 231.742 580.781C237.361 559.453 246.983 548.178 260.608 546.956L261.927 546.838L273.063 671.003L373.934 661.956ZM247.416 404.81L249.174 404.652L254.969 469.262L252.332 469.498C242.516 470.379 235.174 468.379 230.305 463.499C225.437 458.619 222.484 450.392 221.446 438.817C219.567 417.867 228.224 406.531 247.416 404.81Z" fill="#605F5F"/>
<path d="M373.934 661.956L374.752 661.883L374.825 662.701L374.007 662.775L373.934 661.956ZM343.856 326.6L343.783 325.781L344.601 325.708L344.674 326.526L343.856 326.6ZM143.429 364.292L144.046 364.835L144.041 364.84L143.429 364.292ZM125.368 400.027L126.161 400.241L126.158 400.25L125.368 400.027ZM153.828 519.759L154.353 519.126L154.85 519.538L154.567 520.119L153.828 519.759ZM124.064 684.367L124.138 685.185L123.259 685.264L123.243 684.382L124.064 684.367ZM228.891 674.965L229.709 674.891L229.783 675.71L228.964 675.783L228.891 674.965ZM261.927 546.838L261.853 546.019L262.672 545.946L262.745 546.764L261.927 546.838ZM273.063 671.003L273.136 671.821L272.318 671.895L272.245 671.077L273.063 671.003ZM249.174 404.652L249.101 403.833L249.919 403.76L249.993 404.578L249.174 404.652ZM254.969 469.262L255.787 469.188L255.861 470.007L255.042 470.08L254.969 469.262ZM373.934 661.956L373.115 662.03L343.038 326.673L343.856 326.6L344.674 326.526L374.752 661.883L373.934 661.956ZM343.856 326.6L343.929 327.418L243.059 336.465L242.985 335.647L242.912 334.828L343.783 325.781L343.856 326.6ZM242.985 335.647L243.059 336.465C208.032 339.606 184.775 342.876 173.208 346.259L172.977 345.47L172.746 344.681C184.493 341.247 207.908 337.968 242.912 334.828L242.985 335.647ZM172.977 345.47L173.208 346.259C161.7 349.623 151.985 355.812 144.046 364.834L143.429 364.292L142.813 363.749C150.957 354.493 160.94 348.134 172.746 344.681L172.977 345.47ZM143.429 364.292L144.041 364.84C136.093 373.714 130.123 385.501 126.161 400.241L125.368 400.027L124.574 399.814C128.585 384.892 134.657 372.855 142.817 363.744L143.429 364.292ZM125.368 400.027L126.158 400.25C122.041 414.847 120.691 430.079 122.115 445.954L121.297 446.027L120.478 446.101C119.038 430.037 120.402 414.603 124.577 399.804L125.368 400.027ZM121.297 446.027L122.115 445.954C125.126 479.521 135.913 503.856 154.353 519.126L153.828 519.759L153.304 520.392C134.412 504.747 123.512 479.928 120.478 446.101L121.297 446.027ZM153.828 519.759L154.567 520.119C133.561 563.209 123.649 617.939 124.886 684.351L124.064 684.367L123.243 684.382C122.004 617.803 131.935 562.795 153.09 519.399L153.828 519.759ZM124.064 684.367L123.991 683.548L228.817 674.147L228.891 674.965L228.964 675.783L124.138 685.185L124.064 684.367ZM228.891 674.965L228.072 675.038L227.797 671.962L228.615 671.888L229.433 671.815L229.709 674.891L228.891 674.965ZM228.615 671.888L227.797 671.962C224.259 632.519 225.292 602.037 230.947 580.571L231.742 580.781L232.536 580.99C226.953 602.18 225.901 632.436 229.433 671.815L228.615 671.888ZM231.742 580.781L230.947 580.571C236.593 559.143 246.374 547.408 260.535 546.138L260.608 546.956L260.682 547.774C247.592 548.948 238.129 559.762 232.536 580.99L231.742 580.781ZM260.608 546.956L260.535 546.138L261.853 546.019L261.927 546.838L262 547.656L260.682 547.774L260.608 546.956ZM261.927 546.838L262.745 546.764L273.881 670.93L273.063 671.003L272.245 671.077L261.108 546.911L261.927 546.838ZM273.063 671.003L272.99 670.185L373.86 661.138L373.934 661.956L374.007 662.775L273.136 671.821L273.063 671.003ZM247.416 404.81L247.343 403.991L249.101 403.833L249.174 404.652L249.248 405.47L247.49 405.628L247.416 404.81ZM249.174 404.652L249.993 404.578L255.787 469.188L254.969 469.262L254.151 469.335L248.356 404.725L249.174 404.652ZM254.969 469.262L255.042 470.08L252.405 470.317L252.332 469.498L252.259 468.68L254.896 468.443L254.969 469.262ZM252.332 469.498L252.405 470.317C242.455 471.209 234.829 469.196 229.724 464.079L230.305 463.499L230.887 462.919C235.519 467.562 242.577 469.548 252.259 468.68L252.332 469.498ZM230.305 463.499L229.724 464.079C224.654 458.997 221.672 450.536 220.628 438.891L221.446 438.817L222.264 438.744C223.296 450.247 226.221 458.241 230.887 462.919L230.305 463.499ZM221.446 438.817L220.628 438.891C219.678 428.306 221.375 419.998 225.876 414.104C230.389 408.195 237.601 404.865 247.343 403.991L247.416 404.81L247.49 405.628C238.039 406.475 231.327 409.674 227.182 415.101C223.027 420.543 221.335 428.378 222.264 438.744L221.446 438.817Z" fill="#605F5F" mask="url(#path-1-outside-1_215_148)"/>
<path d="M323.557 666.894L299.755 401.504L298.09 382.939L169.065 394.511L173.872 448.111L177.982 493.937L190.443 492.819L228.627 489.394L159.485 681.61L323.557 666.894Z" fill="#605F5F" stroke="#605F5F" stroke-width="0.821598"/>
<rect x="-4.09706" y="4.90438" width="32.8639" height="33.6855" transform="matrix(-0.996002 0.0893298 0.0893298 0.996002 232.189 388.459)" stroke="#605F5F" stroke-width="9.03757"/>
<rect x="-4.90438" y="-4.09706" width="33.6855" height="69.0142" transform="matrix(-0.0893298 -0.996002 -0.996002 0.0893298 238.063 453.925)" stroke="#605F5F" stroke-width="9.03757"/>
<rect x="-4.09706" y="4.90438" width="32.8639" height="33.6855" transform="matrix(-0.996002 0.0893298 0.0893298 0.996002 198.64 391.471)" stroke="#605F5F" stroke-width="9.03757"/>
<rect x="-4.09706" y="4.90438" width="30.3991" height="52.5823" transform="matrix(-0.996002 0.0893298 0.0893298 0.996002 264.103 385.596)" stroke="#605F5F" stroke-width="9.03757"/>
<rect x="-4.09706" y="4.90438" width="32.0423" height="52.5823" transform="matrix(-0.996002 0.0893298 0.0893298 0.996002 297.654 382.588)" stroke="#605F5F" stroke-width="9.03757"/>
<path d="M95.0716 451.394L120.848 434.096C122.922 432.704 125.73 434.043 125.953 436.531L128.254 462.183C128.461 464.497 126.269 466.289 124.043 465.627L95.9656 457.273C93.3012 456.48 92.7633 452.943 95.0716 451.394Z" fill="#605F5F" stroke="#605F5F" stroke-width="0.821598"/>
<path d="M196.219 295.907C201.305 301.525 216.36 307.24 227.49 310.719C230.283 311.591 230.699 315.294 228.011 316.449C208.025 325.037 176.628 329.007 169.746 317.01C161.978 303.467 180.641 278.699 196.219 295.907Z" fill="#605F5F" stroke="#605F5F" stroke-width="0.821597"/>
<mask id="path-11-outside-2_215_148" maskUnits="userSpaceOnUse" x="35.7259" y="513.788" width="276.329" height="355.39" fill="black">
<rect fill="white" x="35.7259" y="513.788" width="276.329" height="355.39"/>
<path d="M287.711 868.078L310.465 532.146L209.421 525.301C174.345 522.926 150.784 522.509 138.737 524.052C126.691 525.595 115.981 530.251 106.609 538.02C97.247 545.642 89.4371 556.465 83.1796 570.49C76.7852 584.358 73.0463 599.29 71.9628 615.287C69.6764 649.042 76.5421 675.013 92.5599 693.2C64.9742 732.613 46.5915 785.254 37.412 851.125L142.419 858.237L142.627 855.155C145.301 815.677 151.081 785.845 159.968 765.659C168.854 745.472 180.122 735.842 193.77 736.766L195.091 736.855L186.667 861.234L287.711 868.078ZM202.977 594.306L204.739 594.425L200.355 659.146L197.713 658.967C187.88 658.301 180.941 655.178 176.896 649.596C172.851 644.014 171.222 635.427 172.007 623.833C173.428 602.846 183.752 593.004 202.977 594.306Z"/>
</mask>
<path d="M287.711 868.078L310.465 532.146L209.421 525.301C174.345 522.926 150.784 522.509 138.737 524.052C126.691 525.595 115.981 530.251 106.609 538.02C97.247 545.642 89.4371 556.465 83.1796 570.49C76.7852 584.358 73.0463 599.29 71.9628 615.287C69.6764 649.042 76.5421 675.013 92.5599 693.2C64.9742 732.613 46.5915 785.254 37.412 851.125L142.419 858.237L142.627 855.155C145.301 815.677 151.081 785.845 159.968 765.659C168.854 745.472 180.122 735.842 193.77 736.766L195.091 736.855L186.667 861.234L287.711 868.078ZM202.977 594.306L204.739 594.425L200.355 659.146L197.713 658.967C187.88 658.301 180.941 655.178 176.896 649.596C172.851 644.014 171.222 635.427 172.007 623.833C173.428 602.846 183.752 593.004 202.977 594.306Z" fill="#605F5F"/>
<path d="M287.711 868.078L288.53 868.134L288.475 868.954L287.655 868.898L287.711 868.078ZM310.465 532.146L310.52 531.326L311.34 531.381L311.284 532.201L310.465 532.146ZM106.609 538.02L107.134 538.653L107.128 538.657L106.609 538.02ZM83.1796 570.49L83.9299 570.825L83.9257 570.834L83.1796 570.49ZM92.5599 693.2L93.1765 692.657L93.6035 693.142L93.233 693.671L92.5599 693.2ZM37.412 851.125L37.3565 851.944L36.4765 851.885L36.5982 851.011L37.412 851.125ZM142.419 858.237L143.238 858.293L143.183 859.112L142.363 859.057L142.419 858.237ZM195.091 736.855L195.147 736.036L195.966 736.091L195.911 736.911L195.091 736.855ZM186.667 861.234L186.611 862.054L185.791 861.998L185.847 861.179L186.667 861.234ZM204.739 594.425L204.794 593.606L205.614 593.661L205.558 594.481L204.739 594.425ZM200.355 659.146L201.174 659.202L201.119 660.022L200.299 659.966L200.355 659.146ZM287.711 868.078L286.891 868.023L309.645 532.09L310.465 532.146L311.284 532.201L288.53 868.134L287.711 868.078ZM310.465 532.146L310.409 532.965L209.365 526.121L209.421 525.301L209.476 524.482L310.52 531.326L310.465 532.146ZM209.421 525.301L209.365 526.121C174.278 523.745 150.796 523.336 138.842 524.867L138.737 524.052L138.633 523.237C150.772 521.682 174.412 522.107 209.476 524.482L209.421 525.301ZM138.737 524.052L138.842 524.867C126.95 526.39 116.386 530.983 107.134 538.652L106.609 538.02L106.085 537.387C115.577 529.519 126.432 524.8 138.633 523.237L138.737 524.052ZM106.609 538.02L107.128 538.657C97.8889 546.179 90.1488 556.887 83.9299 570.825L83.1796 570.49L82.4293 570.155C88.7254 556.044 96.605 545.105 106.091 537.383L106.609 538.02ZM83.1796 570.49L83.9257 570.834C77.5753 584.607 73.8596 599.441 72.7825 615.343L71.9628 615.287L71.1431 615.231C72.233 599.14 75.9952 584.109 82.4335 570.146L83.1796 570.49ZM71.9628 615.287L72.7825 615.343C70.505 648.967 77.353 674.69 93.1765 692.657L92.5599 693.2L91.9433 693.743C75.7313 675.335 68.8479 649.117 71.1431 615.231L71.9628 615.287ZM92.5599 693.2L93.233 693.671C65.7447 732.944 47.3938 785.45 38.2257 851.238L37.412 851.125L36.5982 851.011C45.7892 785.059 64.2036 732.281 91.8868 692.729L92.5599 693.2ZM37.412 851.125L37.4675 850.305L142.474 857.417L142.419 858.237L142.363 859.057L37.3565 851.944L37.412 851.125ZM142.419 858.237L141.599 858.182L141.808 855.1L142.627 855.155L143.447 855.211L143.238 858.293L142.419 858.237ZM142.627 855.155L141.808 855.1C144.484 815.589 150.272 785.644 159.216 765.327L159.968 765.659L160.72 765.99C151.891 786.045 146.119 815.764 143.447 855.211L142.627 855.155ZM159.968 765.659L159.216 765.327C168.144 745.047 179.641 734.985 193.826 735.946L193.77 736.766L193.715 737.586C180.603 736.698 169.564 745.898 160.72 765.99L159.968 765.659ZM193.77 736.766L193.826 735.946L195.147 736.036L195.091 736.855L195.036 737.675L193.715 737.586L193.77 736.766ZM195.091 736.855L195.911 736.911L187.486 861.29L186.667 861.234L185.847 861.179L194.271 736.8L195.091 736.855ZM186.667 861.234L186.722 860.415L287.766 867.259L287.711 868.078L287.655 868.898L186.611 862.054L186.667 861.234ZM202.977 594.306L203.033 593.486L204.794 593.606L204.739 594.425L204.683 595.245L202.922 595.126L202.977 594.306ZM204.739 594.425L205.558 594.481L201.174 659.202L200.355 659.146L199.535 659.091L203.919 594.37L204.739 594.425ZM200.355 659.146L200.299 659.966L197.658 659.787L197.713 658.967L197.769 658.148L200.41 658.327L200.355 659.146ZM197.713 658.967L197.658 659.787C187.69 659.112 180.473 655.931 176.231 650.078L176.896 649.596L177.562 649.114C181.41 654.424 188.071 657.491 197.769 658.148L197.713 658.967ZM176.896 649.596L176.231 650.078C172.018 644.265 170.397 635.442 171.187 623.777L172.007 623.833L172.827 623.888C172.046 635.411 173.684 643.764 177.562 649.114L176.896 649.596ZM172.007 623.833L171.187 623.777C171.905 613.174 174.881 605.234 180.249 600.116C185.63 594.986 193.274 592.825 203.033 593.486L202.977 594.306L202.922 595.126C193.455 594.484 186.325 596.594 181.383 601.306C176.427 606.03 173.53 613.504 172.827 623.888L172.007 623.833Z" fill="#605F5F" mask="url(#path-11-outside-2_215_148)"/>
<path d="M302.751 810.726L296.052 752.684L242.686 588.524L113.439 579.77L109.803 633.461L106.693 679.365L119.175 680.211L157.426 682.802L54.6142 803.945L302.751 810.726Z" fill="#605F5F" stroke="#605F5F" stroke-width="0.821598"/>
<rect x="-4.81383" y="4.20308" width="32.8639" height="33.6855" transform="matrix(-0.997714 -0.0675791 -0.0675791 0.997714 175.972 584.321)" stroke="#605F5F" stroke-width="9.03757"/>
<rect x="-4.20308" y="-4.81383" width="33.6855" height="69.0142" transform="matrix(0.0675791 -0.997714 -0.997714 -0.0675791 171.526 649.904)" stroke="#605F5F" stroke-width="9.03757"/>
<rect x="-4.81383" y="4.20308" width="32.8639" height="33.6855" transform="matrix(-0.997714 -0.0675791 -0.0675791 0.997714 142.363 582.043)" stroke="#605F5F" stroke-width="9.03757"/>
<rect x="-4.81383" y="4.20308" width="30.3991" height="52.5823" transform="matrix(-0.997714 -0.0675791 -0.0675791 0.997714 207.941 586.486)" stroke="#605F5F" stroke-width="9.03757"/>
<rect x="-4.81383" y="4.20308" width="32.0423" height="52.5823" transform="matrix(-0.997714 -0.0675791 -0.0675791 0.997714 241.546 588.765)" stroke="#605F5F" stroke-width="9.03757"/>
<path d="M45.2441 616.488L73.4095 603.435C75.6758 602.385 78.239 604.147 78.0702 606.639L76.3297 632.336C76.1727 634.653 73.7273 636.08 71.6324 635.078L45.2075 622.434C42.6999 621.235 42.7219 617.657 45.2441 616.488Z" fill="#605F5F" stroke="#605F5F" stroke-width="0.821598"/>
<path d="M185.704 492.712C189.848 499.057 203.823 507.057 214.273 512.234C216.894 513.532 216.726 517.255 213.891 517.975C192.807 523.331 161.175 522.34 156.255 509.414C150.702 494.823 173.009 473.28 185.704 492.712Z" fill="#605F5F" stroke="#605F5F" stroke-width="0.821598"/>
<mask id="path-21-outside-3_215_148" maskUnits="userSpaceOnUse" x="158.478" y="424.017" width="281.89" height="359.359" fill="black">
<rect fill="white" x="158.478" y="424.017" width="281.89" height="359.359"/>
<path d="M410.144 782.252L438.757 446.767L337.848 438.161C302.819 435.173 279.269 434.346 267.197 435.678C255.126 437.011 244.337 441.479 234.83 449.083C225.336 456.541 217.339 467.226 210.838 481.139C204.202 494.894 200.203 509.758 198.841 525.734C195.966 559.444 202.377 585.53 218.075 603.994C189.805 642.92 170.507 695.232 160.179 760.933L265.046 769.877L265.308 766.799C268.671 727.373 274.971 697.646 284.208 677.618C293.445 657.59 304.879 648.158 318.51 649.32L319.829 649.433L309.235 773.646L410.144 782.252ZM330.202 507.043L331.96 507.193L326.448 571.827L323.809 571.602C313.99 570.765 307.106 567.52 303.159 561.869C299.213 556.218 297.733 547.603 298.72 536.024C300.508 515.065 311.002 505.405 330.202 507.043Z"/>
</mask>
<path d="M410.144 782.252L438.757 446.767L337.848 438.161C302.819 435.173 279.269 434.346 267.197 435.678C255.126 437.011 244.337 441.479 234.83 449.083C225.336 456.541 217.339 467.226 210.838 481.139C204.202 494.894 200.203 509.758 198.841 525.734C195.966 559.444 202.377 585.53 218.075 603.994C189.805 642.92 170.507 695.232 160.179 760.933L265.046 769.877L265.308 766.799C268.671 727.373 274.971 697.646 284.208 677.618C293.445 657.59 304.879 648.158 318.51 649.32L319.829 649.433L309.235 773.646L410.144 782.252ZM330.202 507.043L331.96 507.193L326.448 571.827L323.809 571.602C313.99 570.765 307.106 567.52 303.159 561.869C299.213 556.218 297.733 547.603 298.72 536.024C300.508 515.065 311.002 505.405 330.202 507.043Z" fill="#333232"/>
<path d="M410.144 782.252L410.962 782.322L410.893 783.14L410.074 783.071L410.144 782.252ZM438.757 446.767L438.827 445.949L439.646 446.019L439.576 446.837L438.757 446.767ZM234.83 449.083L235.344 449.725L235.338 449.729L234.83 449.083ZM210.838 481.139L211.582 481.487L211.578 481.496L210.838 481.139ZM218.075 603.994L218.701 603.462L219.119 603.954L218.74 604.477L218.075 603.994ZM160.179 760.933L160.109 761.751L159.231 761.676L159.368 760.805L160.179 760.933ZM265.046 769.877L265.864 769.946L265.794 770.765L264.976 770.695L265.046 769.877ZM319.829 649.433L319.898 648.614L320.717 648.684L320.647 649.503L319.829 649.433ZM309.235 773.646L309.165 774.464L308.346 774.394L308.416 773.576L309.235 773.646ZM331.96 507.193L332.03 506.374L332.849 506.444L332.779 507.262L331.96 507.193ZM326.448 571.827L327.266 571.897L327.196 572.716L326.378 572.646L326.448 571.827ZM410.144 782.252L409.325 782.182L437.939 446.698L438.757 446.767L439.576 446.837L410.962 782.322L410.144 782.252ZM438.757 446.767L438.687 447.586L337.778 438.98L337.848 438.161L337.918 437.342L438.827 445.949L438.757 446.767ZM337.848 438.161L337.778 438.98C302.738 435.991 279.267 435.173 267.287 436.495L267.197 435.678L267.107 434.862C279.271 433.519 302.901 434.356 337.918 437.342L337.848 438.161ZM267.197 435.678L267.287 436.495C255.371 437.81 244.729 442.218 235.344 449.725L234.83 449.083L234.317 448.442C243.945 440.74 254.88 436.211 267.107 434.862L267.197 435.678ZM234.83 449.083L235.338 449.729C225.969 457.089 218.043 467.66 211.582 481.487L210.838 481.139L210.093 480.792C216.635 466.793 224.704 455.993 234.323 448.437L234.83 449.083ZM210.838 481.139L211.578 481.496C204.988 495.156 201.014 509.923 199.659 525.804L198.841 525.734L198.022 525.664C199.393 509.594 203.417 494.631 210.098 480.782L210.838 481.139ZM198.841 525.734L199.659 525.804C196.795 559.383 203.193 585.222 218.701 603.462L218.075 603.994L217.449 604.526C201.561 585.839 195.136 559.504 198.022 525.664L198.841 525.734ZM218.075 603.994L218.74 604.477C190.57 643.265 171.306 695.442 160.991 761.06L160.179 760.933L159.368 760.805C169.708 695.023 189.041 642.574 217.41 603.511L218.075 603.994ZM160.179 760.933L160.249 760.114L265.115 769.058L265.046 769.877L264.976 770.695L160.109 761.751L160.179 760.933ZM265.046 769.877L264.227 769.807L264.489 766.729L265.308 766.799L266.127 766.869L265.864 769.946L265.046 769.877ZM265.308 766.799L264.489 766.729C267.855 727.271 274.165 697.432 283.462 677.274L284.208 677.618L284.954 677.962C275.777 697.861 269.487 727.475 266.127 766.869L265.308 766.799ZM284.208 677.618L283.462 677.274C292.743 657.152 304.413 647.293 318.579 648.502L318.51 649.32L318.44 650.139C305.345 649.022 294.148 658.029 284.954 677.962L284.208 677.618ZM318.51 649.32L318.579 648.502L319.898 648.614L319.829 649.433L319.759 650.251L318.44 650.139L318.51 649.32ZM319.829 649.433L320.647 649.503L310.053 773.715L309.235 773.646L308.416 773.576L319.01 649.363L319.829 649.433ZM309.235 773.646L309.304 772.827L410.214 781.433L410.144 782.252L410.074 783.071L309.165 774.464L309.235 773.646ZM330.202 507.043L330.271 506.224L332.03 506.374L331.96 507.193L331.89 508.011L330.132 507.861L330.202 507.043ZM331.96 507.193L332.779 507.262L327.266 571.897L326.448 571.827L325.629 571.757L331.142 507.123L331.96 507.193ZM326.448 571.827L326.378 572.646L323.74 572.421L323.809 571.602L323.879 570.784L326.517 571.009L326.448 571.827ZM323.809 571.602L323.74 572.421C313.785 571.572 306.625 568.265 302.486 562.339L303.159 561.869L303.833 561.398C307.588 566.775 314.194 569.957 323.879 570.784L323.809 571.602ZM303.159 561.869L302.486 562.339C298.375 556.454 296.908 547.604 297.902 535.954L298.72 536.024L299.539 536.094C298.558 547.601 300.05 555.981 303.833 561.398L303.159 561.869ZM298.72 536.024L297.902 535.954C298.805 525.366 301.919 517.478 307.375 512.455C312.845 507.42 320.526 505.393 330.271 506.224L330.202 507.043L330.132 507.861C320.677 507.055 313.512 509.039 308.488 513.664C303.45 518.302 300.423 525.724 299.539 536.094L298.72 536.024Z" fill="#333232" mask="url(#path-21-outside-3_215_148)"/>
<path d="M359.677 778.359L382.32 512.868L383.904 494.296L254.83 483.287L250.257 536.907L246.347 582.75L258.812 583.814L297.012 587.072L195.542 764.36L359.677 778.359Z" fill="#333232" stroke="#333232" stroke-width="0.821598"/>
<rect x="-4.88645" y="4.11843" width="32.8639" height="33.6855" transform="matrix(-0.996383 -0.0849813 -0.0849813 0.996383 317.19 489.011)" stroke="#333232" stroke-width="9.03757"/>
<rect x="-4.11843" y="-4.88645" width="33.6855" height="69.0142" transform="matrix(0.0849813 -0.996383 -0.996383 -0.0849813 311.609 554.502)" stroke="#333232" stroke-width="9.03757"/>
<rect x="-4.88645" y="4.11843" width="32.8639" height="33.6855" transform="matrix(-0.996383 -0.0849813 -0.0849813 0.996383 283.632 486.148)" stroke="#333232" stroke-width="9.03757"/>
<rect x="-4.88645" y="4.11843" width="30.3991" height="52.5823" transform="matrix(-0.996383 -0.0849813 -0.0849813 0.996383 349.122 491.732)" stroke="#333232" stroke-width="9.03757"/>
<rect x="-4.88645" y="4.11843" width="32.0423" height="52.5823" transform="matrix(-0.996383 -0.0849813 -0.0849813 0.996383 382.683 494.595)" stroke="#333232" stroke-width="9.03757"/>
<path d="M172.086 526.466L200.475 513.906C202.759 512.896 205.291 514.702 205.079 517.191L202.89 542.854C202.693 545.168 200.223 546.552 198.146 545.514L171.946 532.411C169.459 531.167 169.544 527.591 172.086 526.466Z" fill="#333232" stroke="#333232" stroke-width="0.821598"/>
<path d="M328.604 397.505C332.637 403.922 346.47 412.164 356.828 417.522C359.427 418.867 359.194 422.586 356.346 423.256C335.172 428.243 303.562 426.701 298.869 413.691C293.57 399.005 316.25 377.854 328.604 397.505Z" fill="#333232" stroke="#333232" stroke-width="0.821598"/>
<mask id="path-31-outside-4_215_148" maskUnits="userSpaceOnUse" x="206.458" y="273.807" width="283.267" height="360.335" fill="black">
<rect fill="white" x="206.458" y="273.807" width="283.267" height="360.335"/>
<path d="M488.137 610.59L458.059 275.234L357.188 284.281C322.173 287.421 298.837 290.696 287.18 294.104C275.523 297.513 265.674 303.786 257.632 312.926C249.578 321.919 243.557 333.83 239.571 348.661C235.425 363.359 234.068 378.692 235.5 394.661C238.522 428.358 249.366 452.935 268.032 468.393C246.951 511.636 237.03 566.505 238.268 633.001L343.094 623.599L342.818 620.522C339.283 581.112 340.326 550.742 345.945 529.415C351.564 508.087 361.186 496.812 374.811 495.59L376.13 495.472L387.266 619.637L488.137 610.59ZM361.619 353.444L363.377 353.286L369.172 417.896L366.535 418.132C356.719 419.013 349.377 417.013 344.509 412.133C339.64 407.253 336.687 399.026 335.649 387.451C333.77 366.501 342.427 355.165 361.619 353.444Z"/>
</mask>
<path d="M488.137 610.59L458.059 275.234L357.188 284.281C322.173 287.421 298.837 290.696 287.18 294.104C275.523 297.513 265.674 303.786 257.632 312.926C249.578 321.919 243.557 333.83 239.571 348.661C235.425 363.359 234.068 378.692 235.5 394.661C238.522 428.358 249.366 452.935 268.032 468.393C246.951 511.636 237.03 566.505 238.268 633.001L343.094 623.599L342.818 620.522C339.283 581.112 340.326 550.742 345.945 529.415C351.564 508.087 361.186 496.812 374.811 495.59L376.13 495.472L387.266 619.637L488.137 610.59ZM361.619 353.444L363.377 353.286L369.172 417.896L366.535 418.132C356.719 419.013 349.377 417.013 344.509 412.133C339.64 407.253 336.687 399.026 335.649 387.451C333.77 366.501 342.427 355.165 361.619 353.444Z" fill="#333232"/>
<path d="M488.137 610.59L488.955 610.517L489.028 611.335L488.21 611.409L488.137 610.59ZM458.059 275.234L457.986 274.415L458.804 274.342L458.877 275.16L458.059 275.234ZM257.632 312.926L258.249 313.469L258.244 313.474L257.632 312.926ZM239.571 348.661L240.364 348.875L240.361 348.884L239.571 348.661ZM268.032 468.393L268.556 467.76L269.053 468.172L268.77 468.753L268.032 468.393ZM238.268 633.001L238.341 633.819L237.463 633.898L237.446 633.016L238.268 633.001ZM343.094 623.599L343.912 623.526L343.986 624.344L343.167 624.417L343.094 623.599ZM376.13 495.472L376.056 494.653L376.875 494.58L376.948 495.398L376.13 495.472ZM387.266 619.637L387.339 620.455L386.521 620.529L386.448 619.711L387.266 619.637ZM363.377 353.286L363.304 352.468L364.122 352.394L364.196 353.212L363.377 353.286ZM369.172 417.896L369.991 417.822L370.064 418.641L369.246 418.714L369.172 417.896ZM488.137 610.59L487.318 610.664L457.241 275.307L458.059 275.234L458.877 275.16L488.955 610.517L488.137 610.59ZM458.059 275.234L458.133 276.052L357.262 285.099L357.188 284.281L357.115 283.462L457.986 274.415L458.059 275.234ZM357.188 284.281L357.262 285.099C322.235 288.24 298.978 291.51 287.411 294.893L287.18 294.104L286.949 293.315C298.696 289.881 322.111 286.602 357.115 283.462L357.188 284.281ZM287.18 294.104L287.411 294.893C275.904 298.257 266.188 304.446 258.249 313.469L257.632 312.926L257.016 312.383C265.16 303.127 275.143 296.768 286.949 293.315L287.18 294.104ZM257.632 312.926L258.244 313.474C250.296 322.348 244.326 334.135 240.364 348.875L239.571 348.661L238.777 348.448C242.788 333.526 248.86 321.489 257.02 312.378L257.632 312.926ZM239.571 348.661L240.361 348.884C236.244 363.481 234.894 378.713 236.318 394.588L235.5 394.661L234.681 394.735C233.241 378.671 234.605 363.237 238.78 348.438L239.571 348.661ZM235.5 394.661L236.318 394.588C239.329 428.155 250.116 452.49 268.556 467.76L268.032 468.393L267.508 469.026C248.616 453.381 237.715 428.562 234.681 394.735L235.5 394.661ZM268.032 468.393L268.77 468.753C247.764 511.843 237.853 566.573 239.089 632.985L238.268 633.001L237.446 633.016C236.207 566.437 246.138 511.429 267.293 468.033L268.032 468.393ZM238.268 633.001L238.194 632.182L343.021 622.781L343.094 623.599L343.167 624.417L238.341 633.819L238.268 633.001ZM343.094 623.599L342.276 623.672L342 620.596L342.818 620.522L343.636 620.449L343.912 623.526L343.094 623.599ZM342.818 620.522L342 620.596C338.462 581.153 339.495 550.671 345.15 529.205L345.945 529.415L346.739 529.624C341.156 550.814 340.105 581.07 343.636 620.449L342.818 620.522ZM345.945 529.415L345.15 529.205C350.796 507.777 360.577 496.042 374.738 494.772L374.811 495.59L374.885 496.408C361.795 497.582 352.332 508.396 346.739 529.624L345.945 529.415ZM374.811 495.59L374.738 494.772L376.056 494.653L376.13 495.472L376.203 496.29L374.885 496.408L374.811 495.59ZM376.13 495.472L376.948 495.398L388.084 619.564L387.266 619.637L386.448 619.711L375.312 495.545L376.13 495.472ZM387.266 619.637L387.193 618.819L488.063 609.772L488.137 610.59L488.21 611.409L387.339 620.455L387.266 619.637ZM361.619 353.444L361.546 352.625L363.304 352.468L363.377 353.286L363.451 354.104L361.693 354.262L361.619 353.444ZM363.377 353.286L364.196 353.212L369.991 417.822L369.172 417.896L368.354 417.969L362.559 353.359L363.377 353.286ZM369.172 417.896L369.246 418.714L366.608 418.951L366.535 418.132L366.462 417.314L369.099 417.078L369.172 417.896ZM366.535 418.132L366.608 418.951C356.658 419.843 349.032 417.83 343.927 412.713L344.509 412.133L345.09 411.553C349.722 416.196 356.78 418.182 366.462 417.314L366.535 418.132ZM344.509 412.133L343.927 412.713C338.857 407.631 335.875 399.17 334.831 387.525L335.649 387.451L336.467 387.378C337.499 398.881 340.424 406.875 345.09 411.553L344.509 412.133ZM335.649 387.451L334.831 387.525C333.881 376.94 335.578 368.632 340.079 362.738C344.592 356.829 351.804 353.499 361.546 352.625L361.619 353.444L361.693 354.262C352.242 355.109 345.53 358.308 341.385 363.735C337.23 369.177 335.538 377.012 336.467 387.378L335.649 387.451Z" fill="#333232" mask="url(#path-31-outside-4_215_148)"/>
<path d="M437.762 615.528L413.96 350.138L412.295 331.573L283.27 343.145L288.077 396.745L292.187 442.57L304.648 441.453L342.833 438.028L273.691 630.243L437.762 615.528Z" fill="#333232" stroke="#333232" stroke-width="0.821598"/>
<rect x="-4.09706" y="4.90438" width="32.8639" height="33.6855" transform="matrix(-0.996002 0.0893298 0.0893298 0.996002 346.394 337.093)" stroke="#333232" stroke-width="9.03757"/>
<rect x="-4.90438" y="-4.09706" width="33.6855" height="69.0142" transform="matrix(-0.0893298 -0.996002 -0.996002 0.0893298 352.266 402.559)" stroke="#333232" stroke-width="9.03757"/>
<rect x="-4.09706" y="4.90438" width="32.8639" height="33.6855" transform="matrix(-0.996002 0.0893298 0.0893298 0.996002 312.845 340.105)" stroke="#333232" stroke-width="9.03757"/>
<rect x="-4.09706" y="4.90438" width="30.3991" height="52.5823" transform="matrix(-0.996002 0.0893298 0.0893298 0.996002 378.306 334.23)" stroke="#333232" stroke-width="9.03757"/>
<rect x="-4.09706" y="4.90438" width="32.0423" height="52.5823" transform="matrix(-0.996002 0.0893298 0.0893298 0.996002 411.857 331.222)" stroke="#333232" stroke-width="9.03757"/>
<path d="M209.277 400.028L235.053 382.73C237.127 381.338 239.935 382.677 240.158 385.165L242.459 410.818C242.666 413.131 240.474 414.923 238.248 414.261L210.171 405.907C207.506 405.114 206.968 401.577 209.277 400.028Z" fill="#333232" stroke="#333232" stroke-width="0.821598"/>
<path d="M310.424 244.54C315.51 250.159 330.565 255.874 341.695 259.352C344.488 260.225 344.904 263.928 342.216 265.083C322.23 273.671 290.833 277.641 283.951 265.643C276.183 252.101 294.846 227.333 310.424 244.54Z" fill="#333232" stroke="#333232" stroke-width="0.821597"/>
<mask id="path-41-outside-5_215_148" maskUnits="userSpaceOnUse" x="108.597" y="606.472" width="276.329" height="355.39" fill="black">
<rect fill="white" x="108.597" y="606.472" width="276.329" height="355.39"/>
<path d="M360.582 960.762L383.336 624.83L282.292 617.986C247.216 615.61 223.655 615.193 211.608 616.736C199.562 618.279 188.853 622.935 179.48 630.704C170.118 638.326 162.308 649.149 156.051 663.174C149.656 677.042 145.917 691.974 144.834 707.971C142.548 741.726 149.413 767.697 165.431 785.884C137.845 825.297 119.463 877.938 110.283 943.809L215.29 950.921L215.498 947.839C218.172 908.361 223.953 878.529 232.839 858.343C241.725 838.156 252.993 828.526 266.641 829.45L267.962 829.54L259.538 953.918L360.582 960.762ZM275.849 686.99L277.61 687.109L273.226 751.83L270.584 751.651C260.751 750.985 253.812 747.862 249.767 742.28C245.723 736.698 244.093 728.111 244.878 716.517C246.3 695.53 256.623 685.688 275.849 686.99Z"/>
</mask>
<path d="M360.582 960.762L383.336 624.83L282.292 617.986C247.216 615.61 223.655 615.193 211.608 616.736C199.562 618.279 188.853 622.935 179.48 630.704C170.118 638.326 162.308 649.149 156.051 663.174C149.656 677.042 145.917 691.974 144.834 707.971C142.548 741.726 149.413 767.697 165.431 785.884C137.845 825.297 119.463 877.938 110.283 943.809L215.29 950.921L215.498 947.839C218.172 908.361 223.953 878.529 232.839 858.343C241.725 838.156 252.993 828.526 266.641 829.45L267.962 829.54L259.538 953.918L360.582 960.762ZM275.849 686.99L277.61 687.109L273.226 751.83L270.584 751.651C260.751 750.985 253.812 747.862 249.767 742.28C245.723 736.698 244.093 728.111 244.878 716.517C246.3 695.53 256.623 685.688 275.849 686.99Z" fill="#333232"/>
<path d="M360.582 960.762L361.401 960.818L361.346 961.638L360.526 961.582L360.582 960.762ZM383.336 624.83L383.391 624.01L384.211 624.065L384.155 624.885L383.336 624.83ZM179.48 630.704L180.005 631.337L179.999 631.341L179.48 630.704ZM156.051 663.174L156.801 663.509L156.797 663.518L156.051 663.174ZM165.431 785.884L166.048 785.341L166.475 785.826L166.104 786.355L165.431 785.884ZM110.283 943.809L110.228 944.628L109.348 944.569L109.469 943.695L110.283 943.809ZM215.29 950.921L216.109 950.977L216.054 951.797L215.234 951.741L215.29 950.921ZM267.962 829.54L268.018 828.72L268.838 828.775L268.782 829.595L267.962 829.54ZM259.538 953.918L259.482 954.738L258.662 954.683L258.718 953.863L259.538 953.918ZM277.61 687.109L277.665 686.29L278.485 686.345L278.429 687.165L277.61 687.109ZM273.226 751.83L274.046 751.886L273.99 752.706L273.17 752.65L273.226 751.83ZM360.582 960.762L359.762 960.707L382.516 624.774L383.336 624.83L384.155 624.885L361.401 960.818L360.582 960.762ZM383.336 624.83L383.28 625.649L282.236 618.805L282.292 617.986L282.347 617.166L383.391 624.01L383.336 624.83ZM282.292 617.986L282.236 618.805C247.149 616.429 223.667 616.02 211.713 617.551L211.609 616.736L211.504 615.921C223.643 614.367 247.283 614.791 282.347 617.166L282.292 617.986ZM211.609 616.736L211.713 617.551C199.821 619.074 189.257 623.667 180.005 631.337L179.48 630.704L178.956 630.071C188.448 622.204 199.303 617.484 211.504 615.921L211.609 616.736ZM179.48 630.704L179.999 631.341C170.76 638.863 163.02 649.571 156.801 663.509L156.051 663.174L155.3 662.839C161.596 648.728 169.476 637.789 178.962 630.067L179.48 630.704ZM156.051 663.174L156.797 663.518C150.446 677.291 146.731 692.125 145.654 708.027L144.834 707.971L144.014 707.916C145.104 691.824 148.866 676.793 155.305 662.83L156.051 663.174ZM144.834 707.971L145.654 708.027C143.376 741.651 150.224 767.374 166.048 785.341L165.431 785.884L164.814 786.427C148.602 768.019 141.719 741.801 144.014 707.916L144.834 707.971ZM165.431 785.884L166.104 786.355C138.616 825.629 120.265 878.134 111.097 943.922L110.283 943.809L109.469 943.695C118.66 877.743 137.075 824.965 164.758 785.413L165.431 785.884ZM110.283 943.809L110.339 942.989L215.345 950.102L215.29 950.921L215.234 951.741L110.228 944.628L110.283 943.809ZM215.29 950.921L214.47 950.866L214.679 947.784L215.498 947.839L216.318 947.895L216.109 950.977L215.29 950.921ZM215.498 947.839L214.679 947.784C217.355 908.273 223.143 878.328 232.087 858.012L232.839 858.343L233.591 858.674C224.762 878.729 218.99 908.449 216.318 947.895L215.498 947.839ZM232.839 858.343L232.087 858.012C241.015 837.731 252.512 827.67 266.697 828.63L266.641 829.45L266.586 830.27C253.474 829.382 242.436 838.582 233.591 858.674L232.839 858.343ZM266.641 829.45L266.697 828.63L268.018 828.72L267.962 829.54L267.907 830.359L266.586 830.27L266.641 829.45ZM267.962 829.54L268.782 829.595L260.357 953.974L259.538 953.918L258.718 953.863L267.143 829.484L267.962 829.54ZM259.538 953.918L259.593 953.099L360.637 959.943L360.582 960.762L360.526 961.582L259.482 954.738L259.538 953.918ZM275.849 686.99L275.904 686.17L277.665 686.29L277.61 687.109L277.554 687.929L275.793 687.81L275.849 686.99ZM277.61 687.109L278.429 687.165L274.046 751.886L273.226 751.83L272.406 751.775L276.79 687.054L277.61 687.109ZM273.226 751.83L273.17 752.65L270.529 752.471L270.584 751.651L270.64 750.832L273.281 751.011L273.226 751.83ZM270.584 751.651L270.529 752.471C260.561 751.796 253.344 748.615 249.102 742.762L249.767 742.28L250.433 741.798C254.281 747.108 260.942 750.175 270.64 750.832L270.584 751.651ZM249.767 742.28L249.102 742.762C244.89 736.949 243.268 728.126 244.058 716.461L244.878 716.517L245.698 716.572C244.917 728.095 246.555 736.448 250.433 741.798L249.767 742.28ZM244.878 716.517L244.058 716.461C244.776 705.858 247.752 697.918 253.12 692.8C258.501 687.67 266.146 685.509 275.904 686.17L275.849 686.99L275.793 687.81C266.326 687.169 259.196 689.278 254.254 693.99C249.298 698.714 246.401 706.188 245.698 716.572L244.878 716.517Z" fill="#333232" mask="url(#path-41-outside-5_215_148)"/>
<path d="M375.623 903.411L368.923 845.369L315.557 681.209L186.31 672.455L182.674 726.146L179.564 772.051L192.046 772.896L230.297 775.487L127.485 896.63L375.623 903.411Z" fill="#333232" stroke="#333232" stroke-width="0.821598"/>
<rect x="-4.81383" y="4.20308" width="32.8639" height="33.6855" transform="matrix(-0.997714 -0.0675791 -0.0675791 0.997714 248.845 677.006)" stroke="#333232" stroke-width="9.03757"/>
<rect x="-4.20308" y="-4.81383" width="33.6855" height="69.0142" transform="matrix(0.0675791 -0.997714 -0.997714 -0.0675791 244.403 742.589)" stroke="#333232" stroke-width="9.03757"/>
<rect x="-4.81383" y="4.20308" width="32.8639" height="33.6855" transform="matrix(-0.997714 -0.0675791 -0.0675791 0.997714 215.238 674.728)" stroke="#333232" stroke-width="9.03757"/>
<rect x="-4.81383" y="4.20308" width="30.3991" height="52.5823" transform="matrix(-0.997714 -0.0675791 -0.0675791 0.997714 280.816 679.171)" stroke="#333232" stroke-width="9.03757"/>
<rect x="-4.81383" y="4.20308" width="32.0423" height="52.5823" transform="matrix(-0.997714 -0.0675791 -0.0675791 0.997714 314.421 681.451)" stroke="#333232" stroke-width="9.03757"/>
<path d="M118.117 709.173L146.283 696.12C148.549 695.07 151.112 696.832 150.943 699.324L149.203 725.021C149.046 727.338 146.6 728.766 144.505 727.763L118.081 715.12C115.573 713.92 115.595 710.342 118.117 709.173Z" fill="#333232" stroke="#333232" stroke-width="0.821598"/>
<path d="M258.577 585.397C262.721 591.742 276.696 599.742 287.146 604.919C289.768 606.217 289.6 609.94 286.764 610.66C265.68 616.016 234.048 615.025 229.128 602.099C223.575 587.508 245.882 565.965 258.577 585.397Z" fill="#333232" stroke="#333232" stroke-width="0.821598"/>
<mask id="path-51-outside-6_215_148" maskUnits="userSpaceOnUse" x="316.47" y="303.89" width="281.89" height="359.359" fill="black">
<rect fill="white" x="316.47" y="303.89" width="281.89" height="359.359"/>
<path d="M568.136 662.125L596.749 326.64L495.84 318.034C460.811 315.046 437.261 314.218 425.19 315.551C413.118 316.883 402.329 321.352 392.822 328.956C383.329 336.413 375.331 347.099 368.83 361.012C362.194 374.766 358.195 389.631 356.833 405.606C353.958 439.316 360.369 465.403 376.067 483.867C347.798 522.792 328.499 575.105 318.171 640.805L423.038 649.749L423.3 646.671C426.663 607.246 432.963 577.519 442.2 557.491C451.437 537.463 462.871 528.03 476.502 529.193L477.821 529.305L467.227 653.518L568.136 662.125ZM488.194 386.915L489.952 387.065L484.44 451.7L481.802 451.475C471.982 450.637 465.099 447.393 461.152 441.741C457.205 436.09 455.725 427.475 456.713 415.897C458.5 394.938 468.994 385.278 488.194 386.915Z"/>
</mask>
<path d="M568.136 662.125L596.749 326.64L495.84 318.034C460.811 315.046 437.261 314.218 425.19 315.551C413.118 316.883 402.329 321.352 392.822 328.956C383.329 336.413 375.331 347.099 368.83 361.012C362.194 374.766 358.195 389.631 356.833 405.606C353.958 439.316 360.369 465.403 376.067 483.867C347.798 522.792 328.499 575.105 318.171 640.805L423.038 649.749L423.3 646.671C426.663 607.246 432.963 577.519 442.2 557.491C451.437 537.463 462.871 528.03 476.502 529.193L477.821 529.305L467.227 653.518L568.136 662.125ZM488.194 386.915L489.952 387.065L484.44 451.7L481.802 451.475C471.982 450.637 465.099 447.393 461.152 441.741C457.205 436.09 455.725 427.475 456.713 415.897C458.5 394.938 468.994 385.278 488.194 386.915Z" fill="black"/>
<path d="M568.136 662.125L568.955 662.194L568.885 663.013L568.066 662.943L568.136 662.125ZM596.749 326.64L596.819 325.821L597.638 325.891L597.568 326.71L596.749 326.64ZM392.822 328.956L393.336 329.597L393.33 329.602L392.822 328.956ZM368.83 361.012L369.574 361.36L369.57 361.369L368.83 361.012ZM376.067 483.867L376.693 483.335L377.111 483.827L376.732 484.35L376.067 483.867ZM318.171 640.805L318.102 641.624L317.223 641.549L317.36 640.678L318.171 640.805ZM423.038 649.749L423.856 649.819L423.787 650.638L422.968 650.568L423.038 649.749ZM477.821 529.305L477.891 528.487L478.709 528.556L478.639 529.375L477.821 529.305ZM467.227 653.518L467.157 654.337L466.338 654.267L466.408 653.448L467.227 653.518ZM489.952 387.065L490.022 386.246L490.841 386.316L490.771 387.135L489.952 387.065ZM484.44 451.7L485.258 451.77L485.189 452.588L484.37 452.518L484.44 451.7ZM568.136 662.125L567.317 662.055L595.931 326.57L596.749 326.64L597.568 326.71L568.955 662.194L568.136 662.125ZM596.749 326.64L596.68 327.459L495.77 318.852L495.84 318.034L495.91 317.215L596.819 325.821L596.749 326.64ZM495.84 318.034L495.77 318.852C460.73 315.864 437.259 315.045 425.28 316.367L425.19 315.551L425.099 314.734C437.264 313.392 460.893 314.228 495.91 317.215L495.84 318.034ZM425.19 315.551L425.28 316.367C413.363 317.683 402.721 322.09 393.336 329.597L392.822 328.956L392.309 328.314C401.937 320.613 412.873 316.084 425.099 314.734L425.19 315.551ZM392.822 328.956L393.33 329.602C383.961 336.961 376.035 347.532 369.574 361.36L368.83 361.012L368.085 360.664C374.627 346.665 382.696 335.865 392.315 328.31L392.822 328.956ZM368.83 361.012L369.57 361.369C362.98 375.029 359.006 389.795 357.651 405.676L356.833 405.606L356.014 405.537C357.385 389.466 361.409 374.504 368.09 360.655L368.83 361.012ZM356.833 405.606L357.651 405.676C354.787 439.256 361.185 465.095 376.693 483.335L376.067 483.867L375.441 484.399C359.553 465.711 353.128 439.377 356.014 405.537L356.833 405.606ZM376.067 483.867L376.732 484.35C348.562 523.137 329.298 575.314 318.983 640.933L318.171 640.805L317.36 640.678C327.7 574.895 347.033 522.447 375.402 483.384L376.067 483.867ZM318.171 640.805L318.241 639.987L423.108 648.931L423.038 649.749L422.968 650.568L318.102 641.624L318.171 640.805ZM423.038 649.749L422.219 649.679L422.482 646.602L423.3 646.671L424.119 646.741L423.856 649.819L423.038 649.749ZM423.3 646.671L422.482 646.602C425.847 607.144 432.157 577.304 441.454 557.147L442.2 557.491L442.946 557.835C433.769 577.733 427.479 607.347 424.119 646.741L423.3 646.671ZM442.2 557.491L441.454 557.147C450.735 537.025 462.405 527.166 476.572 528.374L476.502 529.193L476.432 530.011C463.337 528.895 452.14 537.901 442.946 557.835L442.2 557.491ZM476.502 529.193L476.572 528.374L477.891 528.487L477.821 529.305L477.751 530.124L476.432 530.011L476.502 529.193ZM477.821 529.305L478.639 529.375L468.045 653.588L467.227 653.518L466.408 653.448L477.002 529.235L477.821 529.305ZM467.227 653.518L467.297 652.699L568.206 661.306L568.136 662.125L568.066 662.943L467.157 654.337L467.227 653.518ZM488.194 386.915L488.264 386.096L490.022 386.246L489.952 387.065L489.883 387.884L488.124 387.734L488.194 386.915ZM489.952 387.065L490.771 387.135L485.258 451.77L484.44 451.7L483.621 451.63L489.134 386.995L489.952 387.065ZM484.44 451.7L484.37 452.518L481.732 452.293L481.802 451.475L481.871 450.656L484.51 450.881L484.44 451.7ZM481.802 451.475L481.732 452.293C471.777 451.444 464.617 448.138 460.478 442.212L461.152 441.741L461.825 441.271C465.58 446.648 472.186 449.83 481.871 450.656L481.802 451.475ZM461.152 441.741L460.478 442.212C456.368 436.326 454.9 427.476 455.894 415.827L456.713 415.897L457.531 415.967C456.55 427.474 458.042 435.854 461.825 441.271L461.152 441.741ZM456.713 415.897L455.894 415.827C456.797 405.238 459.911 397.351 465.367 392.328C470.837 387.292 478.518 385.265 488.264 386.096L488.194 386.915L488.124 387.734C478.67 386.927 471.504 388.912 466.48 393.537C461.442 398.174 458.416 405.596 457.531 415.967L456.713 415.897Z" fill="black" mask="url(#path-51-outside-6_215_148)"/>
<path d="M517.667 658.231L540.311 392.74L541.895 374.168L412.82 363.159L408.247 416.779L404.337 462.623L416.802 463.686L455.002 466.944L353.532 644.232L517.667 658.231Z" fill="black" stroke="black" stroke-width="0.821598"/>
<rect x="-4.88645" y="4.11843" width="32.8639" height="33.6855" transform="matrix(-0.996383 -0.0849813 -0.0849813 0.996383 475.183 368.883)" stroke="black" stroke-width="9.03757"/>
<rect x="-4.11843" y="-4.88645" width="33.6855" height="69.0142" transform="matrix(0.0849813 -0.996383 -0.996383 -0.0849813 469.601 434.375)" stroke="black" stroke-width="9.03757"/>
<rect x="-4.88645" y="4.11843" width="32.8639" height="33.6855" transform="matrix(-0.996383 -0.0849813 -0.0849813 0.996383 441.624 366.02)" stroke="black" stroke-width="9.03757"/>
<rect x="-4.88645" y="4.11843" width="30.3991" height="52.5823" transform="matrix(-0.996383 -0.0849813 -0.0849813 0.996383 507.112 371.605)" stroke="black" stroke-width="9.03757"/>
<rect x="-4.88645" y="4.11843" width="32.0423" height="52.5823" transform="matrix(-0.996383 -0.0849813 -0.0849813 0.996383 540.677 374.468)" stroke="black" stroke-width="9.03757"/>
<path d="M330.078 406.338L358.467 393.779C360.751 392.768 363.284 394.574 363.071 397.063L360.883 422.726C360.685 425.04 358.215 426.424 356.138 425.386L329.938 412.283C327.452 411.039 327.536 407.463 330.078 406.338Z" fill="black" stroke="black" stroke-width="0.821598"/>
<path d="M486.594 277.378C490.627 283.794 504.461 292.036 514.818 297.395C517.417 298.739 517.184 302.458 514.336 303.129C493.162 308.115 461.552 306.573 456.859 293.563C451.561 278.878 474.241 257.726 486.594 277.378Z" fill="black" stroke="black" stroke-width="0.821598"/>
<mask id="path-61-outside-7_215_148" maskUnits="userSpaceOnUse" x="364.449" y="153.682" width="283.267" height="360.335" fill="black">
<rect fill="white" x="364.449" y="153.682" width="283.267" height="360.335"/>
<path d="M646.127 490.466L616.049 155.109L515.179 164.156C480.163 167.297 456.827 170.571 445.17 173.98C433.513 177.388 423.664 183.662 415.623 192.801C407.568 201.794 401.548 213.706 397.561 228.537C393.415 243.234 392.058 258.568 393.49 274.537C396.512 308.234 407.356 332.811 426.022 348.268C404.941 391.511 395.02 446.381 396.258 512.876L501.084 503.474L500.808 500.398C497.274 460.987 498.316 430.618 503.935 409.29C509.554 387.962 519.176 376.688 532.802 375.465L534.12 375.347L545.256 499.513L646.127 490.466ZM519.61 233.319L521.368 233.161L527.162 297.771L524.525 298.008C514.709 298.888 507.367 296.888 502.499 292.008C497.631 287.128 494.677 278.901 493.639 267.327C491.76 246.376 500.417 235.04 519.61 233.319Z"/>
</mask>
<path d="M646.127 490.466L616.049 155.109L515.179 164.156C480.163 167.297 456.827 170.571 445.17 173.98C433.513 177.388 423.664 183.662 415.623 192.801C407.568 201.794 401.548 213.706 397.561 228.537C393.415 243.234 392.058 258.568 393.49 274.537C396.512 308.234 407.356 332.811 426.022 348.268C404.941 391.511 395.02 446.381 396.258 512.876L501.084 503.474L500.808 500.398C497.274 460.987 498.316 430.618 503.935 409.29C509.554 387.962 519.176 376.688 532.802 375.465L534.12 375.347L545.256 499.513L646.127 490.466ZM519.61 233.319L521.368 233.161L527.162 297.771L524.525 298.008C514.709 298.888 507.367 296.888 502.499 292.008C497.631 287.128 494.677 278.901 493.639 267.327C491.76 246.376 500.417 235.04 519.61 233.319Z" fill="black"/>
<path d="M646.127 490.466L646.945 490.392L647.019 491.211L646.2 491.284L646.127 490.466ZM616.049 155.109L615.976 154.291L616.794 154.217L616.868 155.036L616.049 155.109ZM415.623 192.801L416.24 193.344L416.235 193.349L415.623 192.801ZM397.561 228.537L398.354 228.75L398.352 228.76L397.561 228.537ZM426.022 348.268L426.546 347.636L427.043 348.048L426.76 348.629L426.022 348.268ZM396.258 512.876L396.331 513.694L395.453 513.773L395.436 512.891L396.258 512.876ZM501.084 503.474L501.902 503.401L501.976 504.219L501.158 504.293L501.084 503.474ZM534.12 375.347L534.047 374.529L534.865 374.456L534.938 375.274L534.12 375.347ZM545.256 499.513L545.33 500.331L544.511 500.404L544.438 499.586L545.256 499.513ZM521.368 233.161L521.294 232.343L522.113 232.27L522.186 233.088L521.368 233.161ZM527.162 297.771L527.981 297.698L528.054 298.516L527.236 298.59L527.162 297.771ZM646.127 490.466L645.309 490.539L615.231 155.183L616.049 155.109L616.868 155.036L646.945 490.392L646.127 490.466ZM616.049 155.109L616.123 155.928L515.252 164.974L515.179 164.156L515.105 163.338L615.976 154.291L616.049 155.109ZM515.179 164.156L515.252 164.974C480.225 168.116 456.968 171.386 445.401 174.768L445.17 173.98L444.94 173.191C456.686 169.756 480.101 166.477 515.105 163.338L515.179 164.156ZM445.17 173.98L445.401 174.768C433.894 178.133 424.178 184.321 416.24 193.344L415.623 192.801L415.006 192.259C423.15 183.003 433.133 176.643 444.94 173.191L445.17 173.98ZM415.623 192.801L416.235 193.349C408.286 202.224 402.316 214.011 398.354 228.75L397.561 228.537L396.768 228.323C400.779 213.401 406.85 201.364 415.011 192.253L415.623 192.801ZM397.561 228.537L398.352 228.76C394.234 243.356 392.885 258.589 394.308 274.464L393.49 274.537L392.672 274.61C391.231 258.546 392.595 243.112 396.77 228.314L397.561 228.537ZM393.49 274.537L394.308 274.464C397.319 308.03 408.107 332.366 426.546 347.636L426.022 348.268L425.498 348.901C406.606 333.256 395.706 308.437 392.672 274.61L393.49 274.537ZM426.022 348.268L426.76 348.629C405.754 391.719 395.843 446.448 397.079 512.861L396.258 512.876L395.436 512.891C394.197 446.313 404.128 391.304 425.283 347.908L426.022 348.268ZM396.258 512.876L396.184 512.058L501.011 502.656L501.084 503.474L501.158 504.293L396.331 513.694L396.258 512.876ZM501.084 503.474L500.266 503.548L499.99 500.471L500.808 500.398L501.627 500.324L501.902 503.401L501.084 503.474ZM500.808 500.398L499.99 500.471C496.452 461.029 497.485 430.547 503.14 409.081L503.935 409.29L504.729 409.499C499.147 430.689 498.095 460.946 501.627 500.324L500.808 500.398ZM503.935 409.29L503.14 409.081C508.786 387.653 518.567 375.917 532.728 374.647L532.802 375.465L532.875 376.284C519.785 377.458 510.322 388.272 504.729 409.499L503.935 409.29ZM532.802 375.465L532.728 374.647L534.047 374.529L534.12 375.347L534.193 376.166L532.875 376.284L532.802 375.465ZM534.12 375.347L534.938 375.274L546.075 499.439L545.256 499.513L544.438 499.586L533.302 375.421L534.12 375.347ZM545.256 499.513L545.183 498.694L646.054 489.647L646.127 490.466L646.2 491.284L545.33 500.331L545.256 499.513ZM519.61 233.319L519.536 232.501L521.294 232.343L521.368 233.161L521.441 233.98L519.683 234.137L519.61 233.319ZM521.368 233.161L522.186 233.088L527.981 297.698L527.162 297.771L526.344 297.845L520.549 233.235L521.368 233.161ZM527.162 297.771L527.236 298.59L524.599 298.826L524.525 298.008L524.452 297.19L527.089 296.953L527.162 297.771ZM524.525 298.008L524.599 298.826C514.648 299.719 507.022 297.706 501.917 292.589L502.499 292.008L503.081 291.428C507.712 296.071 514.77 298.058 524.452 297.19L524.525 298.008ZM502.499 292.008L501.917 292.589C496.847 287.506 493.865 279.046 492.821 267.4L493.639 267.327L494.458 267.254C495.489 278.757 498.414 286.75 503.081 291.428L502.499 292.008ZM493.639 267.327L492.821 267.4C491.872 256.816 493.569 248.507 498.07 242.613C502.582 236.705 509.794 233.374 519.536 232.501L519.61 233.319L519.683 234.137C510.232 234.985 503.52 238.184 499.376 243.611C495.22 249.053 493.528 256.888 494.458 267.254L493.639 267.327Z" fill="black" mask="url(#path-61-outside-7_215_148)"/>
<path d="M595.753 495.404L571.95 230.014L570.285 211.449L441.26 223.021L446.067 276.621L450.177 322.446L462.638 321.329L500.823 317.904L431.681 510.119L595.753 495.404Z" fill="black" stroke="black" stroke-width="0.821598"/>
<rect x="-4.09706" y="4.90438" width="32.8639" height="33.6855" transform="matrix(-0.996002 0.0893298 0.0893298 0.996002 504.386 216.969)" stroke="black" stroke-width="9.03757"/>
<rect x="-4.90438" y="-4.09706" width="33.6855" height="69.0142" transform="matrix(-0.0893298 -0.996002 -0.996002 0.0893298 510.258 282.435)" stroke="black" stroke-width="9.03757"/>
<rect x="-4.09706" y="4.90438" width="32.8639" height="33.6855" transform="matrix(-0.996002 0.0893298 0.0893298 0.996002 470.835 219.981)" stroke="black" stroke-width="9.03757"/>
<rect x="-4.09706" y="4.90438" width="30.3991" height="52.5823" transform="matrix(-0.996002 0.0893298 0.0893298 0.996002 536.298 214.106)" stroke="black" stroke-width="9.03757"/>
<rect x="-4.09706" y="4.90438" width="32.0423" height="52.5823" transform="matrix(-0.996002 0.0893298 0.0893298 0.996002 569.849 211.098)" stroke="black" stroke-width="9.03757"/>
<path d="M367.267 279.904L393.044 262.606C395.118 261.214 397.925 262.553 398.148 265.041L400.449 290.693C400.656 293.007 398.464 294.799 396.238 294.137L368.161 285.783C365.496 284.99 364.959 281.453 367.267 279.904Z" fill="black" stroke="black" stroke-width="0.821598"/>
<path d="M468.416 124.417C473.502 130.035 488.557 135.75 499.688 139.229C502.48 140.101 502.896 143.804 500.208 144.959C480.222 153.547 448.825 157.517 441.943 145.52C434.175 131.977 452.838 107.209 468.416 124.417Z" fill="black" stroke="black" stroke-width="0.821597"/>
<mask id="path-71-outside-8_215_148" maskUnits="userSpaceOnUse" x="266.593" y="486.359" width="276.329" height="355.39" fill="black">
<rect fill="white" x="266.593" y="486.359" width="276.329" height="355.39"/>
<path d="M518.578 840.649L541.332 504.716L440.288 497.872C405.212 495.496 381.651 495.08 369.605 496.623C357.558 498.166 346.849 502.822 337.476 510.591C328.114 518.213 320.304 529.036 314.047 543.061C307.652 556.929 303.913 571.861 302.83 587.858C300.544 621.613 307.409 647.583 323.427 665.771C295.841 705.183 277.459 757.825 268.279 823.695L373.286 830.808L373.494 827.726C376.168 788.248 381.949 758.415 390.835 738.229C399.721 718.043 410.989 708.412 424.638 709.337L425.958 709.426L417.534 833.805L518.578 840.649ZM433.845 566.877L435.606 566.996L431.222 631.717L428.58 631.538C418.747 630.872 411.808 627.748 407.764 622.167C403.719 616.585 402.089 607.997 402.874 596.403C404.296 575.417 414.619 565.575 433.845 566.877Z"/>
</mask>
<path d="M518.578 840.649L541.332 504.716L440.288 497.872C405.212 495.496 381.651 495.08 369.605 496.623C357.558 498.166 346.849 502.822 337.476 510.591C328.114 518.213 320.304 529.036 314.047 543.061C307.652 556.929 303.913 571.861 302.83 587.858C300.544 621.613 307.409 647.583 323.427 665.771C295.841 705.183 277.459 757.825 268.279 823.695L373.286 830.808L373.494 827.726C376.168 788.248 381.949 758.415 390.835 738.229C399.721 718.043 410.989 708.412 424.638 709.337L425.958 709.426L417.534 833.805L518.578 840.649ZM433.845 566.877L435.606 566.996L431.222 631.717L428.58 631.538C418.747 630.872 411.808 627.748 407.764 622.167C403.719 616.585 402.089 607.997 402.874 596.403C404.296 575.417 414.619 565.575 433.845 566.877Z" fill="black"/>
<path d="M518.578 840.649L519.397 840.705L519.342 841.524L518.522 841.469L518.578 840.649ZM541.332 504.716L541.387 503.897L542.207 503.952L542.152 504.772L541.332 504.716ZM337.476 510.591L338.001 511.223L337.995 511.228L337.476 510.591ZM314.047 543.061L314.797 543.396L314.793 543.405L314.047 543.061ZM323.427 665.771L324.044 665.228L324.471 665.712L324.1 666.242L323.427 665.771ZM268.279 823.695L268.224 824.515L267.344 824.456L267.465 823.582L268.279 823.695ZM373.286 830.808L374.105 830.864L374.05 831.683L373.23 831.628L373.286 830.808ZM425.958 709.426L426.014 708.607L426.834 708.662L426.778 709.482L425.958 709.426ZM417.534 833.805L417.478 834.625L416.658 834.569L416.714 833.75L417.534 833.805ZM435.606 566.996L435.661 566.176L436.481 566.232L436.425 567.052L435.606 566.996ZM431.222 631.717L432.042 631.773L431.986 632.592L431.166 632.537L431.222 631.717ZM518.578 840.649L517.758 840.594L540.512 504.661L541.332 504.716L542.152 504.772L519.397 840.705L518.578 840.649ZM541.332 504.716L541.276 505.536L440.232 498.692L440.288 497.872L440.343 497.053L541.387 503.897L541.332 504.716ZM440.288 497.872L440.232 498.692C405.145 496.315 381.663 495.907 369.709 497.438L369.605 496.623L369.5 495.808C381.639 494.253 405.279 494.678 440.343 497.053L440.288 497.872ZM369.605 496.623L369.709 497.438C357.817 498.961 347.253 503.554 338.001 511.223L337.476 510.591L336.952 509.958C346.444 502.09 357.299 497.371 369.5 495.808L369.605 496.623ZM337.476 510.591L337.995 511.228C328.756 518.75 321.016 529.457 314.797 543.396L314.047 543.061L313.296 542.726C319.593 528.615 327.472 517.676 336.958 509.954L337.476 510.591ZM314.047 543.061L314.793 543.405C308.442 557.177 304.727 572.011 303.65 587.913L302.83 587.858L302.01 587.802C303.1 571.711 306.862 556.68 313.301 542.717L314.047 543.061ZM302.83 587.858L303.65 587.913C301.372 621.537 308.22 647.261 324.044 665.228L323.427 665.771L322.811 666.314C306.598 647.906 299.715 621.688 302.01 587.802L302.83 587.858ZM323.427 665.771L324.1 666.242C296.612 705.515 278.261 758.021 269.093 823.809L268.279 823.695L267.465 823.582C276.656 757.629 295.071 704.851 322.754 665.3L323.427 665.771ZM268.279 823.695L268.335 822.876L373.341 829.988L373.286 830.808L373.23 831.628L268.224 824.515L268.279 823.695ZM373.286 830.808L372.466 830.752L372.675 827.671L373.494 827.726L374.314 827.782L374.105 830.864L373.286 830.808ZM373.494 827.726L372.675 827.671C375.351 788.16 381.139 758.215 390.083 737.898L390.835 738.229L391.587 738.56C382.758 758.616 376.986 788.335 374.314 827.782L373.494 827.726ZM390.835 738.229L390.083 737.898C399.011 717.617 410.508 707.556 424.693 708.517L424.638 709.337L424.582 710.157C411.47 709.268 400.432 718.469 391.587 738.56L390.835 738.229ZM424.638 709.337L424.693 708.517L426.014 708.607L425.958 709.426L425.903 710.246L424.582 710.157L424.638 709.337ZM425.958 709.426L426.778 709.482L418.353 833.861L417.534 833.805L416.714 833.75L425.139 709.371L425.958 709.426ZM417.534 833.805L417.589 832.985L518.633 839.829L518.578 840.649L518.522 841.469L417.478 834.625L417.534 833.805ZM433.845 566.877L433.9 566.057L435.661 566.176L435.606 566.996L435.55 567.816L433.789 567.696L433.845 566.877ZM435.606 566.996L436.425 567.052L432.042 631.773L431.222 631.717L430.402 631.662L434.786 566.941L435.606 566.996ZM431.222 631.717L431.166 632.537L428.525 632.358L428.58 631.538L428.636 630.718L431.277 630.897L431.222 631.717ZM428.58 631.538L428.525 632.358C418.557 631.683 411.34 628.502 407.098 622.649L407.764 622.167L408.429 621.685C412.277 626.995 418.938 630.062 428.636 630.718L428.58 631.538ZM407.764 622.167L407.098 622.649C402.886 616.836 401.264 608.013 402.054 596.348L402.874 596.403L403.694 596.459C402.913 607.982 404.552 616.334 408.429 621.685L407.764 622.167ZM402.874 596.403L402.054 596.348C402.773 585.745 405.748 577.805 411.116 572.687C416.497 567.557 424.142 565.396 433.9 566.057L433.845 566.877L433.789 567.696C424.322 567.055 417.192 569.164 412.25 573.876C407.294 578.601 404.397 586.075 403.694 596.459L402.874 596.403Z" fill="black" mask="url(#path-71-outside-8_215_148)"/>
<path d="M533.411 764.202L528.571 704.312L473.554 561.095L344.307 552.34L340.67 606.032L337.561 651.936L350.043 652.782L388.293 655.373L301.756 771.934L533.411 764.202Z" fill="black" stroke="black" stroke-width="0.821598"/>
<rect x="-4.81383" y="4.20308" width="32.8639" height="33.6855" transform="matrix(-0.997714 -0.0675791 -0.0675791 0.997714 406.841 556.892)" stroke="black" stroke-width="9.03757"/>
<rect x="-4.20308" y="-4.81383" width="33.6855" height="69.0142" transform="matrix(0.0675791 -0.997714 -0.997714 -0.0675791 402.399 622.474)" stroke="black" stroke-width="9.03757"/>
<rect x="-4.81383" y="4.20308" width="32.8639" height="33.6855" transform="matrix(-0.997714 -0.0675791 -0.0675791 0.997714 373.232 554.614)" stroke="black" stroke-width="9.03757"/>
<rect x="-4.81383" y="4.20308" width="30.3991" height="52.5823" transform="matrix(-0.997714 -0.0675791 -0.0675791 0.997714 438.81 559.056)" stroke="black" stroke-width="9.03757"/>
<rect x="-4.81383" y="4.20308" width="32.0423" height="52.5823" transform="matrix(-0.997714 -0.0675791 -0.0675791 0.997714 472.415 561.336)" stroke="black" stroke-width="9.03757"/>
<path d="M276.111 589.058L304.277 576.005C306.543 574.955 309.106 576.717 308.937 579.209L307.197 604.906C307.04 607.223 304.594 608.651 302.5 607.648L276.075 595.005C273.567 593.805 273.589 590.227 276.111 589.058Z" fill="black" stroke="black" stroke-width="0.821598"/>
<path d="M416.575 465.283C420.72 471.628 434.694 479.628 445.144 484.804C447.766 486.103 447.598 489.826 444.762 490.546C423.678 495.901 392.047 494.911 387.126 481.985C381.573 467.394 403.88 445.85 416.575 465.283Z" fill="black" stroke="black" stroke-width="0.821598"/>
</g>
<defs>
<clipPath id="clip0_215_148">
<rect width="742" height="1035" fill="white"/>
</clipPath>
</defs>
</svg>
