<svg width="742" height="1035" viewBox="0 0 742 1035" fill="none" xmlns="http://www.w3.org/2000/svg">
<g clip-path="url(#clip0_215_147)">
<mask id="path-1-outside-1_215_147" maskUnits="userSpaceOnUse" x="310.095" y="325.173" width="283.267" height="360.335" fill="black">
<rect fill="white" x="310.095" y="325.173" width="283.267" height="360.335"/>
<path d="M311.684 661.956L341.761 326.6L442.632 335.646C477.647 338.787 500.983 342.061 512.64 345.47C524.297 348.878 534.146 355.152 542.188 364.292C550.242 373.284 556.263 385.196 560.25 400.027C564.396 414.725 565.753 430.058 564.321 446.027C561.298 479.724 550.454 504.301 531.789 519.759C552.869 563.002 562.791 617.871 561.553 684.366L456.726 674.965L457.002 671.888C460.537 632.477 459.495 602.108 453.876 580.781C448.256 559.453 438.634 548.178 425.009 546.956L423.69 546.838L412.554 671.003L311.684 661.956ZM438.201 404.809L436.443 404.652L430.648 469.262L433.285 469.498C443.101 470.379 450.443 468.379 455.312 463.499C460.18 458.619 463.133 450.391 464.171 438.817C466.05 417.867 457.393 406.531 438.201 404.809Z"/>
</mask>
<path d="M311.684 661.956L341.761 326.6L442.632 335.646C477.647 338.787 500.983 342.061 512.64 345.47C524.297 348.878 534.146 355.152 542.188 364.292C550.242 373.284 556.263 385.196 560.25 400.027C564.396 414.725 565.753 430.058 564.321 446.027C561.298 479.724 550.454 504.301 531.789 519.759C552.869 563.002 562.791 617.871 561.553 684.366L456.726 674.965L457.002 671.888C460.537 632.477 459.495 602.108 453.876 580.781C448.256 559.453 438.634 548.178 425.009 546.956L423.69 546.838L412.554 671.003L311.684 661.956ZM438.201 404.809L436.443 404.652L430.648 469.262L433.285 469.498C443.101 470.379 450.443 468.379 455.312 463.499C460.18 458.619 463.133 450.391 464.171 438.817C466.05 417.867 457.393 406.531 438.201 404.809Z" fill="#605F5F"/>
<path d="M311.684 661.956L310.865 661.883L310.792 662.701L311.61 662.774L311.684 661.956ZM341.761 326.6L341.835 325.781L341.016 325.708L340.943 326.526L341.761 326.6ZM542.188 364.292L541.571 364.834L541.576 364.84L542.188 364.292ZM560.25 400.027L559.456 400.24L559.459 400.25L560.25 400.027ZM531.789 519.759L531.265 519.126L530.767 519.538L531.05 520.119L531.789 519.759ZM561.553 684.366L561.479 685.185L562.358 685.264L562.374 684.382L561.553 684.366ZM456.726 674.965L455.908 674.891L455.835 675.71L456.653 675.783L456.726 674.965ZM423.69 546.838L423.764 546.019L422.946 545.946L422.872 546.764L423.69 546.838ZM412.554 671.003L412.481 671.821L413.299 671.895L413.373 671.076L412.554 671.003ZM436.443 404.652L436.516 403.833L435.698 403.76L435.625 404.578L436.443 404.652ZM430.648 469.262L429.83 469.188L429.756 470.007L430.575 470.08L430.648 469.262ZM311.684 661.956L312.502 662.029L342.579 326.673L341.761 326.6L340.943 326.526L310.865 661.883L311.684 661.956ZM341.761 326.6L341.688 327.418L442.558 336.465L442.632 335.646L442.705 334.828L341.835 325.781L341.761 326.6ZM442.632 335.646L442.558 336.465C477.585 339.606 500.842 342.876 512.41 346.258L512.64 345.47L512.871 344.681C501.125 341.247 477.709 337.968 442.705 334.828L442.632 335.646ZM512.64 345.47L512.41 346.258C523.917 349.623 533.632 355.812 541.571 364.834L542.188 364.292L542.805 363.749C534.661 354.493 524.678 348.134 512.871 344.681L512.64 345.47ZM542.188 364.292L541.576 364.84C549.524 373.714 555.494 385.501 559.456 400.24L560.25 400.027L561.043 399.814C557.032 384.892 550.96 372.855 542.8 363.743L542.188 364.292ZM560.25 400.027L559.459 400.25C563.577 414.847 564.926 430.079 563.502 445.954L564.321 446.027L565.139 446.101C566.58 430.037 565.215 414.603 561.04 399.804L560.25 400.027ZM564.321 446.027L563.502 445.954C560.492 479.52 549.704 503.856 531.265 519.126L531.789 519.759L532.313 520.392C551.205 504.747 562.105 479.928 565.139 446.101L564.321 446.027ZM531.789 519.759L531.05 520.119C552.056 563.209 561.968 617.939 560.731 684.351L561.553 684.366L562.374 684.382C563.614 617.803 553.682 562.794 532.527 519.399L531.789 519.759ZM561.553 684.366L561.626 683.548L456.8 674.146L456.726 674.965L456.653 675.783L561.479 685.185L561.553 684.366ZM456.726 674.965L457.545 675.038L457.821 671.961L457.002 671.888L456.184 671.815L455.908 674.891L456.726 674.965ZM457.002 671.888L457.821 671.961C461.358 632.519 460.326 602.037 454.67 580.571L453.876 580.781L453.081 580.99C458.664 602.18 459.716 632.436 456.184 671.815L457.002 671.888ZM453.876 580.781L454.67 580.571C449.025 559.143 439.243 547.408 425.082 546.138L425.009 546.956L424.936 547.774C438.025 548.948 447.488 559.762 453.081 580.99L453.876 580.781ZM425.009 546.956L425.082 546.138L423.764 546.019L423.69 546.838L423.617 547.656L424.936 547.774L425.009 546.956ZM423.69 546.838L422.872 546.764L411.736 670.93L412.554 671.003L413.373 671.076L424.509 546.911L423.69 546.838ZM412.554 671.003L412.628 670.185L311.757 661.138L311.684 661.956L311.61 662.774L412.481 671.821L412.554 671.003ZM438.201 404.809L438.274 403.991L436.516 403.833L436.443 404.652L436.369 405.47L438.128 405.628L438.201 404.809ZM436.443 404.652L435.625 404.578L429.83 469.188L430.648 469.262L431.466 469.335L437.261 404.725L436.443 404.652ZM430.648 469.262L430.575 470.08L433.212 470.317L433.285 469.498L433.359 468.68L430.721 468.443L430.648 469.262ZM433.285 469.498L433.212 470.317C443.162 471.209 450.789 469.196 455.893 464.079L455.312 463.499L454.73 462.918C450.098 467.561 443.04 469.548 433.359 468.68L433.285 469.498ZM455.312 463.499L455.893 464.079C460.963 458.996 463.945 450.536 464.99 438.891L464.171 438.817L463.353 438.744C462.321 450.247 459.396 458.241 454.73 462.918L455.312 463.499ZM464.171 438.817L464.99 438.891C465.939 428.306 464.242 419.998 459.741 414.104C455.229 408.195 448.016 404.865 438.274 403.991L438.201 404.809L438.128 405.628C447.578 406.475 454.29 409.674 458.435 415.101C462.591 420.543 464.283 428.378 463.353 438.744L464.171 438.817Z" fill="#605F5F" mask="url(#path-1-outside-1_215_147)"/>
<path d="M362.06 666.894L385.862 401.504L387.527 382.939L516.552 394.511L511.745 448.111L507.635 493.936L495.175 492.819L456.99 489.394L526.132 681.609L362.06 666.894Z" fill="#605F5F" stroke="#605F5F" stroke-width="0.821598"/>
<rect x="448.91" y="392.978" width="32.8639" height="33.6855" transform="rotate(5.12505 448.91 392.978)" stroke="#605F5F" stroke-width="9.03757"/>
<rect x="443.035" y="458.444" width="33.6855" height="69.0142" transform="rotate(-84.875 443.035 458.444)" stroke="#605F5F" stroke-width="9.03757"/>
<rect x="482.458" y="395.99" width="32.8639" height="33.6855" transform="rotate(5.12505 482.458 395.99)" stroke="#605F5F" stroke-width="9.03757"/>
<rect x="416.995" y="390.114" width="30.3991" height="52.5823" transform="rotate(5.12505 416.995 390.114)" stroke="#605F5F" stroke-width="9.03757"/>
<rect x="383.445" y="387.107" width="32.0423" height="52.5823" transform="rotate(5.12505 383.445 387.107)" stroke="#605F5F" stroke-width="9.03757"/>
<path d="M590.546 451.394L564.769 434.095C562.695 432.704 559.887 434.043 559.664 436.531L557.364 462.183C557.156 464.496 559.348 466.289 561.574 465.627L589.652 457.272C592.316 456.48 592.854 452.943 590.546 451.394Z" fill="#605F5F" stroke="#605F5F" stroke-width="0.821598"/>
<path d="M489.398 295.906C484.312 301.525 469.258 307.24 458.127 310.718C455.334 311.591 454.918 315.294 457.606 316.449C477.592 325.037 508.99 329.007 515.871 317.009C523.639 303.467 504.976 278.699 489.398 295.906Z" fill="#605F5F" stroke="#605F5F" stroke-width="0.821597"/>
<mask id="path-11-outside-2_215_147" maskUnits="userSpaceOnUse" x="373.563" y="513.788" width="276.329" height="355.39" fill="black">
<rect fill="white" x="373.563" y="513.788" width="276.329" height="355.39"/>
<path d="M397.907 868.078L375.153 532.145L476.197 525.301C511.272 522.926 534.833 522.509 546.88 524.052C558.926 525.595 569.636 530.251 579.008 538.02C588.37 545.642 596.18 556.465 602.438 570.49C608.832 584.358 612.571 599.29 613.654 615.287C615.941 649.042 609.075 675.013 593.057 693.2C620.643 732.612 639.026 785.254 648.205 851.125L543.199 858.237L542.99 855.155C540.316 815.677 534.536 785.845 525.649 765.658C516.763 745.472 505.495 735.841 491.847 736.766L490.526 736.855L498.951 861.234L397.907 868.078ZM482.64 594.306L480.879 594.425L485.262 659.146L487.904 658.967C497.737 658.301 504.676 655.177 508.721 649.596C512.766 644.014 514.396 635.426 513.61 623.832C512.189 602.846 501.865 593.004 482.64 594.306Z"/>
</mask>
<path d="M397.907 868.078L375.153 532.145L476.197 525.301C511.272 522.926 534.833 522.509 546.88 524.052C558.926 525.595 569.636 530.251 579.008 538.02C588.37 545.642 596.18 556.465 602.438 570.49C608.832 584.358 612.571 599.29 613.654 615.287C615.941 649.042 609.075 675.013 593.057 693.2C620.643 732.612 639.026 785.254 648.205 851.125L543.199 858.237L542.99 855.155C540.316 815.677 534.536 785.845 525.649 765.658C516.763 745.472 505.495 735.841 491.847 736.766L490.526 736.855L498.951 861.234L397.907 868.078ZM482.64 594.306L480.879 594.425L485.262 659.146L487.904 658.967C497.737 658.301 504.676 655.177 508.721 649.596C512.766 644.014 514.396 635.426 513.61 623.832C512.189 602.846 501.865 593.004 482.64 594.306Z" fill="#605F5F"/>
<path d="M397.907 868.078L397.087 868.134L397.142 868.954L397.962 868.898L397.907 868.078ZM375.153 532.145L375.097 531.326L374.277 531.381L374.333 532.201L375.153 532.145ZM579.008 538.02L578.484 538.652L578.489 538.657L579.008 538.02ZM602.438 570.49L601.687 570.825L601.692 570.834L602.438 570.49ZM593.057 693.2L592.441 692.657L592.014 693.142L592.384 693.671L593.057 693.2ZM648.205 851.125L648.261 851.944L649.141 851.885L649.019 851.011L648.205 851.125ZM543.199 858.237L542.379 858.293L542.434 859.112L543.254 859.057L543.199 858.237ZM490.526 736.855L490.47 736.036L489.651 736.091L489.706 736.911L490.526 736.855ZM498.951 861.234L499.006 862.054L499.826 861.998L499.77 861.179L498.951 861.234ZM480.879 594.425L480.823 593.605L480.003 593.661L480.059 594.481L480.879 594.425ZM485.262 659.146L484.443 659.202L484.498 660.021L485.318 659.966L485.262 659.146ZM397.907 868.078L398.726 868.023L375.972 532.09L375.153 532.145L374.333 532.201L397.087 868.134L397.907 868.078ZM375.153 532.145L375.208 532.965L476.252 526.121L476.197 525.301L476.141 524.482L375.097 531.326L375.153 532.145ZM476.197 525.301L476.252 526.121C511.339 523.744 534.821 523.336 546.775 524.867L546.88 524.052L546.984 523.237C534.845 521.682 511.205 522.107 476.141 524.482L476.197 525.301ZM546.88 524.052L546.775 524.867C558.667 526.39 569.231 530.983 578.484 538.652L579.008 538.02L579.532 537.387C570.041 529.519 559.186 524.8 546.984 523.237L546.88 524.052ZM579.008 538.02L578.489 538.657C587.728 546.179 595.468 556.886 601.687 570.825L602.438 570.49L603.188 570.155C596.892 556.044 589.012 545.105 579.527 537.383L579.008 538.02ZM602.438 570.49L601.692 570.834C608.042 584.606 611.758 599.44 612.835 615.342L613.654 615.287L614.474 615.231C613.384 599.14 609.622 584.109 603.184 570.146L602.438 570.49ZM613.654 615.287L612.835 615.342C615.112 648.967 608.264 674.69 592.441 692.657L593.057 693.2L593.674 693.743C609.886 675.335 616.769 649.117 614.474 615.231L613.654 615.287ZM593.057 693.2L592.384 693.671C619.872 732.944 638.223 785.45 647.391 851.238L648.205 851.125L649.019 851.011C639.828 785.059 621.414 732.281 593.73 692.729L593.057 693.2ZM648.205 851.125L648.15 850.305L543.143 857.417L543.199 858.237L543.254 859.057L648.261 851.944L648.205 851.125ZM543.199 858.237L544.018 858.182L543.81 855.1L542.99 855.155L542.17 855.211L542.379 858.293L543.199 858.237ZM542.99 855.155L543.81 855.1C541.133 815.589 535.345 785.644 526.401 765.327L525.649 765.658L524.897 765.989C533.726 786.045 539.498 815.764 542.17 855.211L542.99 855.155ZM525.649 765.658L526.401 765.327C517.473 745.046 505.977 734.985 491.791 735.946L491.847 736.766L491.902 737.586C505.014 736.697 516.053 745.898 524.897 765.989L525.649 765.658ZM491.847 736.766L491.791 735.946L490.47 736.036L490.526 736.855L490.581 737.675L491.902 737.586L491.847 736.766ZM490.526 736.855L489.706 736.911L498.131 861.29L498.951 861.234L499.77 861.179L491.346 736.8L490.526 736.855ZM498.951 861.234L498.895 860.414L397.851 867.259L397.907 868.078L397.962 868.898L499.006 862.054L498.951 861.234ZM482.64 594.306L482.584 593.486L480.823 593.605L480.879 594.425L480.934 595.245L482.695 595.126L482.64 594.306ZM480.879 594.425L480.059 594.481L484.443 659.202L485.262 659.146L486.082 659.091L481.698 594.37L480.879 594.425ZM485.262 659.146L485.318 659.966L487.96 659.787L487.904 658.967L487.849 658.147L485.207 658.326L485.262 659.146ZM487.904 658.967L487.96 659.787C497.927 659.112 505.145 655.931 509.386 650.078L508.721 649.596L508.056 649.114C504.207 654.424 497.547 657.491 487.849 658.147L487.904 658.967ZM508.721 649.596L509.386 650.078C513.599 644.265 515.22 635.442 514.43 623.777L513.61 623.832L512.791 623.888C513.571 635.411 511.933 643.764 508.056 649.114L508.721 649.596ZM513.61 623.832L514.43 623.777C513.712 613.174 510.736 605.234 505.368 600.116C499.987 594.986 492.343 592.825 482.584 593.486L482.64 594.306L482.695 595.126C492.162 594.484 499.292 596.593 504.235 601.305C509.19 606.03 512.087 613.504 512.791 623.888L513.61 623.832Z" fill="#605F5F" mask="url(#path-11-outside-2_215_147)"/>
<path d="M382.866 810.726L389.565 752.683L442.931 588.524L572.178 579.769L575.815 633.461L578.924 679.365L566.442 680.211L528.192 682.802L631.003 803.944L382.866 810.726Z" fill="#605F5F" stroke="#605F5F" stroke-width="0.821598"/>
<rect x="505.126" y="588.839" width="32.8639" height="33.6855" transform="rotate(-3.87495 505.126 588.839)" stroke="#605F5F" stroke-width="9.03757"/>
<rect x="509.572" y="654.423" width="33.6855" height="69.0142" transform="rotate(-93.875 509.572 654.423)" stroke="#605F5F" stroke-width="9.03757"/>
<rect x="538.736" y="586.562" width="32.8639" height="33.6855" transform="rotate(-3.87495 538.736 586.562)" stroke="#605F5F" stroke-width="9.03757"/>
<rect x="473.158" y="591.004" width="30.3991" height="52.5823" transform="rotate(-3.87495 473.158 591.004)" stroke="#605F5F" stroke-width="9.03757"/>
<rect x="439.552" y="593.284" width="32.0423" height="52.5823" transform="rotate(-3.87495 439.552 593.284)" stroke="#605F5F" stroke-width="9.03757"/>
<path d="M640.373 616.488L612.208 603.435C609.941 602.385 607.378 604.147 607.547 606.639L609.287 632.336C609.444 634.653 611.89 636.08 613.985 635.078L640.41 622.434C642.917 621.234 642.895 617.657 640.373 616.488Z" fill="#605F5F" stroke="#605F5F" stroke-width="0.821598"/>
<path d="M499.914 492.712C495.769 499.057 481.794 507.057 471.344 512.233C468.723 513.532 468.891 517.255 471.726 517.975C492.81 523.331 524.442 522.34 529.362 509.414C534.915 494.823 512.608 473.279 499.914 492.712Z" fill="#605F5F" stroke="#605F5F" stroke-width="0.821598"/>
<mask id="path-21-outside-3_215_147" maskUnits="userSpaceOnUse" x="245.25" y="424.017" width="281.89" height="359.359" fill="black">
<rect fill="white" x="245.25" y="424.017" width="281.89" height="359.359"/>
<path d="M275.473 782.252L246.86 446.767L347.769 438.161C382.798 435.173 406.348 434.346 418.42 435.678C430.492 437.011 441.281 441.479 450.787 449.083C460.281 456.541 468.278 467.226 474.78 481.139C481.415 494.893 485.414 509.758 486.777 525.734C489.652 559.443 483.24 585.53 467.542 603.994C495.812 642.919 515.11 695.232 525.438 760.932L420.572 769.877L420.309 766.799C416.947 727.373 410.647 697.646 401.409 677.618C392.172 657.59 380.738 648.158 367.108 649.32L365.789 649.433L376.383 773.645L275.473 782.252ZM355.416 507.042L353.657 507.192L359.17 571.827L361.808 571.602C371.627 570.764 378.511 567.52 382.458 561.869C386.405 556.217 387.884 547.603 386.897 536.024C385.109 515.065 374.616 505.405 355.416 507.042Z"/>
</mask>
<path d="M275.473 782.252L246.86 446.767L347.769 438.161C382.798 435.173 406.348 434.346 418.42 435.678C430.492 437.011 441.281 441.479 450.787 449.083C460.281 456.541 468.278 467.226 474.78 481.139C481.415 494.893 485.414 509.758 486.777 525.734C489.652 559.443 483.24 585.53 467.542 603.994C495.812 642.919 515.11 695.232 525.438 760.932L420.572 769.877L420.309 766.799C416.947 727.373 410.647 697.646 401.409 677.618C392.172 657.59 380.738 648.158 367.108 649.32L365.789 649.433L376.383 773.645L275.473 782.252ZM355.416 507.042L353.657 507.192L359.17 571.827L361.808 571.602C371.627 570.764 378.511 567.52 382.458 561.869C386.405 556.217 387.884 547.603 386.897 536.024C385.109 515.065 374.616 505.405 355.416 507.042Z" fill="#333232"/>
<path d="M275.473 782.252L274.655 782.322L274.725 783.14L275.543 783.071L275.473 782.252ZM246.86 446.767L246.79 445.949L245.972 446.019L246.041 446.837L246.86 446.767ZM450.787 449.083L450.274 449.725L450.279 449.729L450.787 449.083ZM474.78 481.139L474.035 481.487L474.04 481.496L474.78 481.139ZM467.542 603.994L466.916 603.462L466.498 603.954L466.878 604.477L467.542 603.994ZM525.438 760.932L525.508 761.751L526.387 761.676L526.25 760.805L525.438 760.932ZM420.572 769.877L419.753 769.946L419.823 770.765L420.641 770.695L420.572 769.877ZM365.789 649.433L365.719 648.614L364.9 648.684L364.97 649.502L365.789 649.433ZM376.383 773.645L376.452 774.464L377.271 774.394L377.201 773.576L376.383 773.645ZM353.657 507.192L353.587 506.374L352.768 506.444L352.838 507.262L353.657 507.192ZM359.17 571.827L358.351 571.897L358.421 572.715L359.239 572.646L359.17 571.827ZM275.473 782.252L276.292 782.182L247.679 446.698L246.86 446.767L246.041 446.837L274.655 782.322L275.473 782.252ZM246.86 446.767L246.93 447.586L347.839 438.979L347.769 438.161L347.699 437.342L246.79 445.949L246.86 446.767ZM347.769 438.161L347.839 438.979C382.879 435.991 406.351 435.173 418.33 436.495L418.42 435.678L418.51 434.862C406.346 433.519 382.717 434.356 347.699 437.342L347.769 438.161ZM418.42 435.678L418.33 436.495C430.246 437.81 440.889 442.218 450.274 449.725L450.787 449.083L451.3 448.441C441.672 440.74 430.737 436.211 418.51 434.862L418.42 435.678ZM450.787 449.083L450.279 449.729C459.648 457.089 467.574 467.66 474.035 481.487L474.78 481.139L475.524 480.791C468.983 466.792 460.913 455.993 451.294 448.437L450.787 449.083ZM474.78 481.139L474.04 481.496C480.629 495.156 484.603 509.923 485.958 525.804L486.777 525.734L487.595 525.664C486.225 509.594 482.201 494.631 475.52 480.782L474.78 481.139ZM486.777 525.734L485.958 525.804C488.822 559.383 482.424 585.222 466.916 603.462L467.542 603.994L468.168 604.526C484.057 585.838 490.481 559.504 487.595 525.664L486.777 525.734ZM467.542 603.994L466.878 604.477C495.047 643.265 514.312 695.442 524.626 761.06L525.438 760.932L526.25 760.805C515.909 695.023 496.576 642.574 468.207 603.511L467.542 603.994ZM525.438 760.932L525.368 760.114L420.502 769.058L420.572 769.877L420.641 770.695L525.508 761.751L525.438 760.932ZM420.572 769.877L421.39 769.807L421.128 766.729L420.309 766.799L419.49 766.868L419.753 769.946L420.572 769.877ZM420.309 766.799L421.128 766.729C417.762 727.271 411.452 697.432 402.155 677.274L401.409 677.618L400.663 677.962C409.841 697.861 416.131 727.475 419.49 766.868L420.309 766.799ZM401.409 677.618L402.155 677.274C392.875 657.152 381.204 647.293 367.038 648.501L367.108 649.32L367.177 650.139C380.272 649.022 391.469 658.028 400.663 677.962L401.409 677.618ZM367.108 649.32L367.038 648.501L365.719 648.614L365.789 649.433L365.858 650.251L367.177 650.139L367.108 649.32ZM365.789 649.433L364.97 649.502L375.564 773.715L376.383 773.645L377.201 773.576L366.607 649.363L365.789 649.433ZM376.383 773.645L376.313 772.827L275.404 781.433L275.473 782.252L275.543 783.071L376.452 774.464L376.383 773.645ZM355.416 507.042L355.346 506.224L353.587 506.374L353.657 507.192L353.727 508.011L355.485 507.861L355.416 507.042ZM353.657 507.192L352.838 507.262L358.351 571.897L359.17 571.827L359.988 571.757L354.476 507.123L353.657 507.192ZM359.17 571.827L359.239 572.646L361.878 572.421L361.808 571.602L361.738 570.783L359.1 571.008L359.17 571.827ZM361.808 571.602L361.878 572.421C371.832 571.572 378.993 568.265 383.131 562.339L382.458 561.869L381.784 561.398C378.029 566.775 371.423 569.957 361.738 570.783L361.808 571.602ZM382.458 561.869L383.131 562.339C387.242 556.454 388.709 547.604 387.715 535.954L386.897 536.024L386.078 536.094C387.06 547.601 385.567 555.981 381.784 561.398L382.458 561.869ZM386.897 536.024L387.715 535.954C386.812 525.366 383.698 517.478 378.242 512.455C372.773 507.42 365.091 505.393 355.346 506.224L355.416 507.042L355.485 507.861C364.94 507.055 372.105 509.039 377.129 513.664C382.167 518.302 385.194 525.724 386.078 536.094L386.897 536.024Z" fill="#333232" mask="url(#path-21-outside-3_215_147)"/>
<path d="M325.941 778.359L303.297 512.868L301.713 494.296L430.787 483.287L435.36 536.907L439.27 582.75L426.805 583.813L388.606 587.072L490.075 764.36L325.941 778.359Z" fill="#333232" stroke="#333232" stroke-width="0.821598"/>
<rect x="363.908" y="493.529" width="32.8639" height="33.6855" transform="rotate(-4.87495 363.908 493.529)" stroke="#333232" stroke-width="9.03757"/>
<rect x="369.49" y="559.021" width="33.6855" height="69.0142" transform="rotate(-94.875 369.49 559.021)" stroke="#333232" stroke-width="9.03757"/>
<rect x="397.467" y="490.667" width="32.8639" height="33.6855" transform="rotate(-4.87495 397.467 490.667)" stroke="#333232" stroke-width="9.03757"/>
<rect x="331.976" y="496.251" width="30.3991" height="52.5823" transform="rotate(-4.87495 331.976 496.251)" stroke="#333232" stroke-width="9.03757"/>
<rect x="298.416" y="499.114" width="32.0423" height="52.5823" transform="rotate(-4.87495 298.416 499.114)" stroke="#333232" stroke-width="9.03757"/>
<path d="M513.531 526.466L485.142 513.906C482.858 512.896 480.326 514.702 480.538 517.191L482.727 542.853C482.924 545.167 485.394 546.552 487.471 545.513L513.672 532.41C516.158 531.167 516.073 527.59 513.531 526.466Z" fill="#333232" stroke="#333232" stroke-width="0.821598"/>
<path d="M357.013 397.505C352.98 403.921 339.147 412.164 328.789 417.522C326.191 418.867 326.424 422.586 329.271 423.256C350.445 428.243 382.055 426.7 386.749 413.691C392.047 399.005 369.367 377.854 357.013 397.505Z" fill="#333232" stroke="#333232" stroke-width="0.821598"/>
<mask id="path-31-outside-4_215_147" maskUnits="userSpaceOnUse" x="195.891" y="273.807" width="283.267" height="360.335" fill="black">
<rect fill="white" x="195.891" y="273.807" width="283.267" height="360.335"/>
<path d="M197.48 610.59L227.558 275.234L328.429 284.281C363.444 287.421 386.78 290.696 398.437 294.104C410.094 297.513 419.943 303.786 427.985 312.926C436.039 321.919 442.06 333.83 446.046 348.661C450.193 363.359 451.55 378.692 450.117 394.661C447.095 428.358 436.251 452.935 417.586 468.393C438.666 511.636 448.588 566.505 447.35 633.001L342.523 623.599L342.799 620.522C346.334 581.112 345.292 550.742 339.672 529.415C334.053 508.087 324.431 496.812 310.806 495.59L309.487 495.472L298.351 619.637L197.48 610.59ZM323.998 353.444L322.24 353.286L316.445 417.896L319.082 418.132C328.898 419.013 336.24 417.013 341.109 412.133C345.977 407.253 348.93 399.026 349.968 387.451C351.847 366.501 343.19 355.165 323.998 353.444Z"/>
</mask>
<path d="M197.48 610.59L227.558 275.234L328.429 284.281C363.444 287.421 386.78 290.696 398.437 294.104C410.094 297.513 419.943 303.786 427.985 312.926C436.039 321.919 442.06 333.83 446.046 348.661C450.193 363.359 451.55 378.692 450.117 394.661C447.095 428.358 436.251 452.935 417.586 468.393C438.666 511.636 448.588 566.505 447.35 633.001L342.523 623.599L342.799 620.522C346.334 581.112 345.292 550.742 339.672 529.415C334.053 508.087 324.431 496.812 310.806 495.59L309.487 495.472L298.351 619.637L197.48 610.59ZM323.998 353.444L322.24 353.286L316.445 417.896L319.082 418.132C328.898 419.013 336.24 417.013 341.109 412.133C345.977 407.253 348.93 399.026 349.968 387.451C351.847 366.501 343.19 355.165 323.998 353.444Z" fill="#333232"/>
<path d="M197.48 610.59L196.662 610.517L196.589 611.335L197.407 611.409L197.48 610.59ZM227.558 275.234L227.631 274.415L226.813 274.342L226.74 275.16L227.558 275.234ZM427.985 312.926L427.368 313.469L427.373 313.474L427.985 312.926ZM446.046 348.661L445.253 348.875L445.256 348.884L446.046 348.661ZM417.586 468.393L417.062 467.76L416.564 468.172L416.847 468.753L417.586 468.393ZM447.35 633.001L447.276 633.819L448.155 633.898L448.171 633.016L447.35 633.001ZM342.523 623.599L341.705 623.526L341.632 624.344L342.45 624.417L342.523 623.599ZM309.487 495.472L309.561 494.653L308.742 494.58L308.669 495.398L309.487 495.472ZM298.351 619.637L298.278 620.455L299.096 620.529L299.169 619.711L298.351 619.637ZM322.24 353.286L322.313 352.468L321.495 352.394L321.421 353.212L322.24 353.286ZM316.445 417.896L315.627 417.822L315.553 418.641L316.372 418.714L316.445 417.896ZM197.48 610.59L198.299 610.664L228.376 275.307L227.558 275.234L226.74 275.16L196.662 610.517L197.48 610.59ZM227.558 275.234L227.485 276.052L328.355 285.099L328.429 284.281L328.502 283.462L227.631 274.415L227.558 275.234ZM328.429 284.281L328.355 285.099C363.382 288.24 386.639 291.51 398.207 294.893L398.437 294.104L398.668 293.315C386.921 289.881 363.506 286.602 328.502 283.462L328.429 284.281ZM398.437 294.104L398.207 294.893C409.714 298.257 419.429 304.446 427.368 313.469L427.985 312.926L428.602 312.383C420.457 303.127 410.474 296.768 398.668 293.315L398.437 294.104ZM427.985 312.926L427.373 313.474C435.321 322.348 441.291 334.135 445.253 348.875L446.046 348.661L446.84 348.448C442.829 333.526 436.757 321.489 428.597 312.378L427.985 312.926ZM446.046 348.661L445.256 348.884C449.373 363.481 450.723 378.713 449.299 394.588L450.117 394.661L450.936 394.735C452.376 378.671 451.012 363.237 446.837 348.438L446.046 348.661ZM450.117 394.661L449.299 394.588C446.289 428.155 435.501 452.49 417.062 467.76L417.586 468.393L418.11 469.026C437.002 453.381 447.902 428.562 450.936 394.735L450.117 394.661ZM417.586 468.393L416.847 468.753C437.853 511.843 447.765 566.573 446.528 632.985L447.35 633.001L448.171 633.016C449.411 566.437 439.479 511.429 418.324 468.033L417.586 468.393ZM447.35 633.001L447.423 632.182L342.597 622.781L342.523 623.599L342.45 624.417L447.276 633.819L447.35 633.001ZM342.523 623.599L343.342 623.672L343.618 620.596L342.799 620.522L341.981 620.449L341.705 623.526L342.523 623.599ZM342.799 620.522L343.618 620.596C347.155 581.153 346.122 550.671 340.467 529.205L339.672 529.415L338.878 529.624C344.461 550.814 345.513 581.07 341.981 620.449L342.799 620.522ZM339.672 529.415L340.467 529.205C334.821 507.777 325.04 496.042 310.879 494.772L310.806 495.59L310.733 496.408C323.822 497.582 333.285 508.396 338.878 529.624L339.672 529.415ZM310.806 495.59L310.879 494.772L309.561 494.653L309.487 495.472L309.414 496.29L310.733 496.408L310.806 495.59ZM309.487 495.472L308.669 495.398L297.533 619.564L298.351 619.637L299.169 619.711L310.306 495.545L309.487 495.472ZM298.351 619.637L298.425 618.819L197.554 609.772L197.48 610.59L197.407 611.409L298.278 620.455L298.351 619.637ZM323.998 353.444L324.071 352.625L322.313 352.468L322.24 353.286L322.166 354.104L323.924 354.262L323.998 353.444ZM322.24 353.286L321.421 353.212L315.627 417.822L316.445 417.896L317.263 417.969L323.058 353.359L322.24 353.286ZM316.445 417.896L316.372 418.714L319.009 418.951L319.082 418.132L319.156 417.314L316.518 417.078L316.445 417.896ZM319.082 418.132L319.009 418.951C328.959 419.843 336.585 417.83 341.69 412.713L341.109 412.133L340.527 411.553C335.895 416.196 328.837 418.182 319.156 417.314L319.082 418.132ZM341.109 412.133L341.69 412.713C346.76 407.631 349.742 399.17 350.786 387.525L349.968 387.451L349.15 387.378C348.118 398.881 345.193 406.875 340.527 411.553L341.109 412.133ZM349.968 387.451L350.786 387.525C351.736 376.94 350.039 368.632 345.538 362.738C341.025 356.829 333.813 353.499 324.071 352.625L323.998 353.444L323.924 354.262C333.375 355.109 340.087 358.308 344.232 363.735C348.388 369.177 350.079 377.012 349.15 387.378L349.968 387.451Z" fill="#333232" mask="url(#path-31-outside-4_215_147)"/>
<path d="M247.855 615.528L271.657 350.138L273.322 331.573L402.347 343.145L397.54 396.745L393.43 442.57L380.97 441.453L342.785 438.028L411.927 630.243L247.855 615.528Z" fill="#333232" stroke="#333232" stroke-width="0.821598"/>
<rect x="334.704" y="341.612" width="32.8639" height="33.6855" transform="rotate(5.12505 334.704 341.612)" stroke="#333232" stroke-width="9.03757"/>
<rect x="328.832" y="407.078" width="33.6855" height="69.0142" transform="rotate(-84.875 328.832 407.078)" stroke="#333232" stroke-width="9.03757"/>
<rect x="368.253" y="344.624" width="32.8639" height="33.6855" transform="rotate(5.12505 368.253 344.624)" stroke="#333232" stroke-width="9.03757"/>
<rect x="302.792" y="338.749" width="30.3991" height="52.5823" transform="rotate(5.12505 302.792 338.749)" stroke="#333232" stroke-width="9.03757"/>
<rect x="269.242" y="335.741" width="32.0423" height="52.5823" transform="rotate(5.12505 269.242 335.741)" stroke="#333232" stroke-width="9.03757"/>
<path d="M476.341 400.028L450.564 382.73C448.49 381.338 445.682 382.677 445.459 385.165L443.159 410.818C442.951 413.131 445.143 414.924 447.369 414.261L475.447 405.907C478.111 405.114 478.649 401.577 476.341 400.028Z" fill="#333232" stroke="#333232" stroke-width="0.821598"/>
<path d="M375.193 244.541C370.107 250.159 355.053 255.874 343.922 259.352C341.129 260.225 340.713 263.928 343.401 265.083C363.387 273.671 394.785 277.641 401.666 265.643C409.434 252.101 390.771 227.333 375.193 244.541Z" fill="#333232" stroke="#333232" stroke-width="0.821597"/>
<mask id="path-41-outside-5_215_147" maskUnits="userSpaceOnUse" x="300.692" y="606.472" width="276.329" height="355.39" fill="black">
<rect fill="white" x="300.692" y="606.472" width="276.329" height="355.39"/>
<path d="M325.036 960.763L302.281 624.83L403.325 617.986C438.401 615.61 461.962 615.193 474.009 616.736C486.055 618.279 496.765 622.935 506.137 630.704C515.499 638.326 523.309 649.15 529.567 663.174C535.961 677.042 539.7 691.974 540.783 707.971C543.07 741.726 536.204 767.697 520.186 785.884C547.772 825.297 566.155 877.938 575.334 943.809L470.328 950.921L470.119 947.839C467.445 908.361 461.665 878.529 452.778 858.343C443.892 838.157 432.624 828.526 418.976 829.45L417.655 829.54L426.08 953.918L325.036 960.763ZM409.769 686.99L408.008 687.109L412.391 751.83L415.033 751.652C424.866 750.986 431.805 747.862 435.85 742.28C439.895 736.699 441.524 728.111 440.739 716.517C439.318 695.53 428.994 685.688 409.769 686.99Z"/>
</mask>
<path d="M325.036 960.763L302.281 624.83L403.325 617.986C438.401 615.61 461.962 615.193 474.009 616.736C486.055 618.279 496.765 622.935 506.137 630.704C515.499 638.326 523.309 649.15 529.567 663.174C535.961 677.042 539.7 691.974 540.783 707.971C543.07 741.726 536.204 767.697 520.186 785.884C547.772 825.297 566.155 877.938 575.334 943.809L470.328 950.921L470.119 947.839C467.445 908.361 461.665 878.529 452.778 858.343C443.892 838.157 432.624 828.526 418.976 829.45L417.655 829.54L426.08 953.918L325.036 960.763ZM409.769 686.99L408.008 687.109L412.391 751.83L415.033 751.652C424.866 750.986 431.805 747.862 435.85 742.28C439.895 736.699 441.524 728.111 440.739 716.517C439.318 695.53 428.994 685.688 409.769 686.99Z" fill="#333232"/>
<path d="M325.036 960.763L324.216 960.818L324.271 961.638L325.091 961.582L325.036 960.763ZM302.281 624.83L302.226 624.01L301.406 624.066L301.462 624.885L302.281 624.83ZM506.137 630.704L505.613 631.337L505.618 631.341L506.137 630.704ZM529.567 663.174L528.816 663.509L528.82 663.518L529.567 663.174ZM520.186 785.884L519.57 785.341L519.143 785.826L519.513 786.355L520.186 785.884ZM575.334 943.809L575.39 944.629L576.27 944.569L576.148 943.696L575.334 943.809ZM470.328 950.921L469.508 950.977L469.563 951.797L470.383 951.741L470.328 950.921ZM417.655 829.54L417.599 828.72L416.78 828.775L416.835 829.595L417.655 829.54ZM426.08 953.918L426.135 954.738L426.955 954.683L426.899 953.863L426.08 953.918ZM408.008 687.109L407.952 686.29L407.132 686.345L407.188 687.165L408.008 687.109ZM412.391 751.83L411.572 751.886L411.627 752.706L412.447 752.65L412.391 751.83ZM325.036 960.763L325.855 960.707L303.101 624.774L302.281 624.83L301.462 624.885L324.216 960.818L325.036 960.763ZM302.281 624.83L302.337 625.649L403.381 618.805L403.325 617.986L403.27 617.166L302.226 624.01L302.281 624.83ZM403.325 617.986L403.381 618.805C438.468 616.429 461.95 616.02 473.904 617.551L474.009 616.736L474.113 615.921C461.974 614.367 438.334 614.791 403.27 617.166L403.325 617.986ZM474.009 616.736L473.904 617.551C485.796 619.074 496.36 623.667 505.613 631.337L506.137 630.704L506.661 630.072C497.169 622.204 486.314 617.484 474.113 615.921L474.009 616.736ZM506.137 630.704L505.618 631.341C514.857 638.863 522.597 649.571 528.816 663.509L529.567 663.174L530.317 662.839C524.021 648.728 516.141 637.789 506.656 630.067L506.137 630.704ZM529.567 663.174L528.82 663.518C535.171 677.291 538.887 692.125 539.964 708.027L540.783 707.971L541.603 707.916C540.513 691.824 536.751 676.793 530.313 662.83L529.567 663.174ZM540.783 707.971L539.964 708.027C542.241 741.651 535.393 767.374 519.57 785.341L520.186 785.884L520.803 786.427C537.015 768.019 543.898 741.801 541.603 707.916L540.783 707.971ZM520.186 785.884L519.513 786.355C547.001 825.629 565.352 878.134 574.52 943.922L575.334 943.809L576.148 943.696C566.957 877.743 548.542 824.965 520.859 785.413L520.186 785.884ZM575.334 943.809L575.279 942.989L470.272 950.102L470.328 950.921L470.383 951.741L575.39 944.629L575.334 943.809ZM470.328 950.921L471.147 950.866L470.939 947.784L470.119 947.839L469.299 947.895L469.508 950.977L470.328 950.921ZM470.119 947.839L470.939 947.784C468.262 908.274 462.474 878.328 453.53 858.012L452.778 858.343L452.026 858.674C460.855 878.729 466.627 908.449 469.299 947.895L470.119 947.839ZM452.778 858.343L453.53 858.012C444.602 837.731 433.106 827.67 418.92 828.631L418.976 829.45L419.031 830.27C432.143 829.382 443.182 838.582 452.026 858.674L452.778 858.343ZM418.976 829.45L418.92 828.631L417.599 828.72L417.655 829.54L417.71 830.359L419.031 830.27L418.976 829.45ZM417.655 829.54L416.835 829.595L425.26 953.974L426.08 953.918L426.899 953.863L418.475 829.484L417.655 829.54ZM426.08 953.918L426.024 953.099L324.98 959.943L325.036 960.763L325.091 961.582L426.135 954.738L426.08 953.918ZM409.769 686.99L409.713 686.17L407.952 686.29L408.008 687.109L408.063 687.929L409.824 687.81L409.769 686.99ZM408.008 687.109L407.188 687.165L411.572 751.886L412.391 751.83L413.211 751.775L408.827 687.054L408.008 687.109ZM412.391 751.83L412.447 752.65L415.089 752.471L415.033 751.652L414.977 750.832L412.336 751.011L412.391 751.83ZM415.033 751.652L415.089 752.471C425.056 751.796 432.274 748.615 436.515 742.762L435.85 742.28L435.184 741.798C431.336 747.108 424.676 750.175 414.977 750.832L415.033 751.652ZM435.85 742.28L436.515 742.762C440.728 736.949 442.349 728.126 441.559 716.461L440.739 716.517L439.919 716.572C440.7 728.095 439.062 736.448 435.184 741.798L435.85 742.28ZM440.739 716.517L441.559 716.461C440.841 705.859 437.865 697.918 432.497 692.801C427.116 687.67 419.472 685.509 409.713 686.17L409.769 686.99L409.824 687.81C419.291 687.169 426.421 689.278 431.363 693.99C436.319 698.715 439.216 706.188 439.919 716.572L440.739 716.517Z" fill="#333232" mask="url(#path-41-outside-5_215_147)"/>
<path d="M309.995 903.411L316.694 845.368L370.06 681.209L499.307 672.455L502.944 726.146L506.053 772.05L493.571 772.896L455.321 775.487L558.132 896.63L309.995 903.411Z" fill="#333232" stroke="#333232" stroke-width="0.821598"/>
<rect x="432.253" y="681.525" width="32.8639" height="33.6855" transform="rotate(-3.87495 432.253 681.525)" stroke="#333232" stroke-width="9.03757"/>
<rect x="436.695" y="747.107" width="33.6855" height="69.0142" transform="rotate(-93.875 436.695 747.107)" stroke="#333232" stroke-width="9.03757"/>
<rect x="465.861" y="679.247" width="32.8639" height="33.6855" transform="rotate(-3.87495 465.861 679.247)" stroke="#333232" stroke-width="9.03757"/>
<rect x="400.283" y="683.69" width="30.3991" height="52.5823" transform="rotate(-3.87495 400.283 683.69)" stroke="#333232" stroke-width="9.03757"/>
<rect x="366.677" y="685.969" width="32.0423" height="52.5823" transform="rotate(-3.87495 366.677 685.969)" stroke="#333232" stroke-width="9.03757"/>
<path d="M567.5 709.173L539.335 696.12C537.068 695.07 534.505 696.832 534.674 699.324L536.414 725.021C536.571 727.338 539.017 728.766 541.112 727.763L567.537 715.12C570.044 713.92 570.022 710.342 567.5 709.173Z" fill="#333232" stroke="#333232" stroke-width="0.821598"/>
<path d="M427.041 585.397C422.896 591.742 408.921 599.742 398.471 604.919C395.85 606.217 396.018 609.94 398.853 610.66C419.937 616.016 451.569 615.025 456.489 602.099C462.042 587.508 439.735 565.964 427.041 585.397Z" fill="#333232" stroke="#333232" stroke-width="0.821598"/>
<mask id="path-51-outside-6_215_147" maskUnits="userSpaceOnUse" x="87.2574" y="303.89" width="281.89" height="359.359" fill="black">
<rect fill="white" x="87.2574" y="303.89" width="281.89" height="359.359"/>
<path d="M117.481 662.124L88.8678 326.64L189.777 318.033C224.806 315.046 248.356 314.218 260.428 315.551C272.499 316.883 283.288 321.351 292.795 328.956C302.289 336.413 310.286 347.098 316.787 361.012C323.423 374.766 327.422 389.631 328.784 405.606C331.659 439.316 325.248 465.403 309.55 483.867C337.82 522.792 357.118 575.105 367.446 640.805L262.579 649.749L262.317 646.671C258.954 607.245 252.654 577.519 243.417 557.491C234.18 537.463 222.746 528.03 209.115 529.193L207.796 529.305L218.39 653.518L117.481 662.124ZM197.423 386.915L195.665 387.065L201.177 451.699L203.816 451.474C213.635 450.637 220.519 447.393 224.466 441.741C228.412 436.09 229.892 427.475 228.905 415.896C227.117 394.938 216.623 385.277 197.423 386.915Z"/>
</mask>
<path d="M117.481 662.124L88.8678 326.64L189.777 318.033C224.806 315.046 248.356 314.218 260.428 315.551C272.499 316.883 283.288 321.351 292.795 328.956C302.289 336.413 310.286 347.098 316.787 361.012C323.423 374.766 327.422 389.631 328.784 405.606C331.659 439.316 325.248 465.403 309.55 483.867C337.82 522.792 357.118 575.105 367.446 640.805L262.579 649.749L262.317 646.671C258.954 607.245 252.654 577.519 243.417 557.491C234.18 537.463 222.746 528.03 209.115 529.193L207.796 529.305L218.39 653.518L117.481 662.124ZM197.423 386.915L195.665 387.065L201.177 451.699L203.816 451.474C213.635 450.637 220.519 447.393 224.466 441.741C228.412 436.09 229.892 427.475 228.905 415.896C227.117 394.938 216.623 385.277 197.423 386.915Z" fill="black"/>
<path d="M117.481 662.124L116.663 662.194L116.732 663.013L117.551 662.943L117.481 662.124ZM88.8678 326.64L88.798 325.821L87.9794 325.891L88.0492 326.71L88.8678 326.64ZM292.795 328.956L292.281 329.597L292.287 329.602L292.795 328.956ZM316.787 361.012L316.043 361.36L316.047 361.369L316.787 361.012ZM309.55 483.867L308.924 483.334L308.506 483.827L308.885 484.349L309.55 483.867ZM367.446 640.805L367.516 641.624L368.394 641.549L368.257 640.677L367.446 640.805ZM262.579 649.749L261.761 649.819L261.831 650.637L262.649 650.568L262.579 649.749ZM207.796 529.305L207.727 528.486L206.908 528.556L206.978 529.375L207.796 529.305ZM218.39 653.518L218.46 654.336L219.279 654.267L219.209 653.448L218.39 653.518ZM195.665 387.065L195.595 386.246L194.776 386.316L194.846 387.135L195.665 387.065ZM201.177 451.699L200.359 451.769L200.429 452.588L201.247 452.518L201.177 451.699ZM117.481 662.124L118.3 662.055L89.6865 326.57L88.8678 326.64L88.0492 326.71L116.663 662.194L117.481 662.124ZM88.8678 326.64L88.9377 327.458L189.847 318.852L189.777 318.033L189.707 317.215L88.798 325.821L88.8678 326.64ZM189.777 318.033L189.847 318.852C224.887 315.863 248.358 315.045 260.338 316.367L260.428 315.551L260.518 314.734C248.354 313.391 224.724 314.228 189.707 317.215L189.777 318.033ZM260.428 315.551L260.338 316.367C272.254 317.683 282.896 322.09 292.281 329.597L292.795 328.956L293.308 328.314C283.68 320.613 272.745 316.084 260.518 314.734L260.428 315.551ZM292.795 328.956L292.287 329.602C301.656 336.961 309.582 347.532 316.043 361.36L316.787 361.012L317.532 360.664C310.99 346.665 302.921 335.865 293.302 328.309L292.795 328.956ZM316.787 361.012L316.047 361.369C322.637 375.028 326.611 389.795 327.966 405.676L328.784 405.606L329.603 405.536C328.232 389.466 324.208 374.503 317.527 360.655L316.787 361.012ZM328.784 405.606L327.966 405.676C330.83 439.255 324.432 465.094 308.924 483.334L309.55 483.867L310.176 484.399C326.064 465.711 332.489 439.376 329.603 405.536L328.784 405.606ZM309.55 483.867L308.885 484.349C337.055 523.137 356.319 575.314 366.634 640.932L367.446 640.805L368.257 640.677C357.917 574.895 338.584 522.447 310.215 483.384L309.55 483.867ZM367.446 640.805L367.376 639.986L262.51 648.93L262.579 649.749L262.649 650.568L367.516 641.624L367.446 640.805ZM262.579 649.749L263.398 649.679L263.136 646.601L262.317 646.671L261.498 646.741L261.761 649.819L262.579 649.749ZM262.317 646.671L263.136 646.601C259.77 607.144 253.46 577.304 244.163 557.147L243.417 557.491L242.671 557.835C251.848 577.733 258.138 607.347 261.498 646.741L262.317 646.671ZM243.417 557.491L244.163 557.147C234.882 537.025 223.212 527.166 209.046 528.374L209.115 529.192L209.185 530.011C222.28 528.894 233.477 537.901 242.671 557.835L243.417 557.491ZM209.115 529.192L209.046 528.374L207.727 528.486L207.796 529.305L207.866 530.124L209.185 530.011L209.115 529.192ZM207.796 529.305L206.978 529.375L217.572 653.588L218.39 653.518L219.209 653.448L208.615 529.235L207.796 529.305ZM218.39 653.518L218.321 652.699L117.411 661.306L117.481 662.124L117.551 662.943L218.46 654.336L218.39 653.518ZM197.423 386.915L197.354 386.096L195.595 386.246L195.665 387.065L195.735 387.883L197.493 387.733L197.423 386.915ZM195.665 387.065L194.846 387.135L200.359 451.769L201.177 451.699L201.996 451.63L196.483 386.995L195.665 387.065ZM201.177 451.699L201.247 452.518L203.885 452.293L203.816 451.474L203.746 450.656L201.108 450.881L201.177 451.699ZM203.816 451.474L203.885 452.293C213.84 451.444 221 448.138 225.139 442.212L224.466 441.741L223.792 441.271C220.037 446.648 213.431 449.83 203.746 450.656L203.816 451.474ZM224.466 441.741L225.139 442.212C229.25 436.326 230.717 427.476 229.723 415.827L228.905 415.896L228.086 415.966C229.067 427.474 227.575 435.854 223.792 441.271L224.466 441.741ZM228.905 415.896L229.723 415.827C228.82 405.238 225.706 397.351 220.25 392.328C214.78 387.292 207.099 385.265 197.354 386.096L197.423 386.915L197.493 387.733C206.948 386.927 214.113 388.911 219.137 393.537C224.175 398.174 227.202 405.596 228.086 415.966L228.905 415.896Z" fill="black" mask="url(#path-51-outside-6_215_147)"/>
<path d="M167.95 658.231L145.307 392.74L143.723 374.168L272.797 363.159L277.37 416.779L281.28 462.622L268.815 463.686L230.615 466.944L332.085 644.232L167.95 658.231Z" fill="black" stroke="black" stroke-width="0.821598"/>
<rect x="205.916" y="373.402" width="32.8639" height="33.6855" transform="rotate(-4.87495 205.916 373.402)" stroke="black" stroke-width="9.03757"/>
<rect x="211.497" y="438.894" width="33.6855" height="69.0142" transform="rotate(-94.875 211.497 438.894)" stroke="black" stroke-width="9.03757"/>
<rect x="239.474" y="370.539" width="32.8639" height="33.6855" transform="rotate(-4.87495 239.474 370.539)" stroke="black" stroke-width="9.03757"/>
<rect x="173.986" y="376.123" width="30.3991" height="52.5823" transform="rotate(-4.87495 173.986 376.123)" stroke="black" stroke-width="9.03757"/>
<rect x="140.422" y="378.986" width="32.0423" height="52.5823" transform="rotate(-4.87495 140.422 378.986)" stroke="black" stroke-width="9.03757"/>
<path d="M355.539 406.338L327.15 393.778C324.866 392.768 322.334 394.574 322.546 397.063L324.735 422.725C324.932 425.039 327.402 426.424 329.479 425.385L355.679 412.282C358.166 411.039 358.081 407.462 355.539 406.338Z" fill="black" stroke="black" stroke-width="0.821598"/>
<path d="M199.023 277.378C194.99 283.794 181.156 292.036 170.799 297.395C168.2 298.739 168.433 302.458 171.281 303.128C192.455 308.115 224.065 306.573 228.758 293.563C234.057 278.877 211.376 257.726 199.023 277.378Z" fill="black" stroke="black" stroke-width="0.821598"/>
<mask id="path-61-outside-7_215_147" maskUnits="userSpaceOnUse" x="37.9012" y="153.682" width="283.267" height="360.335" fill="black">
<rect fill="white" x="37.9012" y="153.682" width="283.267" height="360.335"/>
<path d="M39.4902 490.466L69.5678 155.109L170.438 164.156C205.454 167.296 228.79 170.571 240.447 173.979C252.104 177.388 261.953 183.662 269.994 192.801C278.049 201.794 284.07 213.706 288.056 228.537C292.202 243.234 293.559 258.567 292.127 274.537C289.105 308.234 278.261 332.811 259.595 348.268C280.676 391.511 290.597 446.38 289.359 512.876L184.533 503.474L184.809 500.398C188.344 460.987 187.301 430.618 181.682 409.29C176.063 387.962 166.441 376.687 152.816 375.465L151.497 375.347L140.361 499.513L39.4902 490.466ZM166.008 233.319L164.25 233.161L158.455 297.771L161.092 298.008C170.908 298.888 178.25 296.888 183.118 292.008C187.987 287.128 190.94 278.901 191.978 267.327C193.857 246.376 185.2 235.04 166.008 233.319Z"/>
</mask>
<path d="M39.4902 490.466L69.5678 155.109L170.438 164.156C205.454 167.296 228.79 170.571 240.447 173.979C252.104 177.388 261.953 183.662 269.994 192.801C278.049 201.794 284.07 213.706 288.056 228.537C292.202 243.234 293.559 258.567 292.127 274.537C289.105 308.234 278.261 332.811 259.595 348.268C280.676 391.511 290.597 446.38 289.359 512.876L184.533 503.474L184.809 500.398C188.344 460.987 187.301 430.618 181.682 409.29C176.063 387.962 166.441 376.687 152.816 375.465L151.497 375.347L140.361 499.513L39.4902 490.466ZM166.008 233.319L164.25 233.161L158.455 297.771L161.092 298.008C170.908 298.888 178.25 296.888 183.118 292.008C187.987 287.128 190.94 278.901 191.978 267.327C193.857 246.376 185.2 235.04 166.008 233.319Z" fill="black"/>
<path d="M39.4902 490.466L38.6719 490.392L38.5985 491.211L39.4168 491.284L39.4902 490.466ZM69.5678 155.109L69.6412 154.291L68.8229 154.217L68.7495 155.036L69.5678 155.109ZM269.994 192.801L269.378 193.344L269.382 193.349L269.994 192.801ZM288.056 228.537L287.263 228.75L287.266 228.76L288.056 228.537ZM259.595 348.268L259.071 347.636L258.574 348.048L258.857 348.628L259.595 348.268ZM289.359 512.876L289.286 513.694L290.164 513.773L290.181 512.891L289.359 512.876ZM184.533 503.474L183.715 503.401L183.641 504.219L184.46 504.293L184.533 503.474ZM151.497 375.347L151.57 374.529L150.752 374.455L150.679 375.274L151.497 375.347ZM140.361 499.513L140.288 500.331L141.106 500.404L141.179 499.586L140.361 499.513ZM164.249 233.161L164.323 232.343L163.505 232.27L163.431 233.088L164.249 233.161ZM158.455 297.771L157.636 297.698L157.563 298.516L158.381 298.59L158.455 297.771ZM39.4902 490.466L40.3085 490.539L70.3861 155.182L69.5678 155.109L68.7495 155.036L38.6719 490.392L39.4902 490.466ZM69.5678 155.109L69.4944 155.927L170.365 164.974L170.438 164.156L170.512 163.338L69.6412 154.291L69.5678 155.109ZM170.438 164.156L170.365 164.974C205.392 168.116 228.649 171.386 240.216 174.768L240.447 173.979L240.677 173.191C228.931 169.756 205.516 166.477 170.512 163.338L170.438 164.156ZM240.447 173.979L240.216 174.768C251.723 178.133 261.439 184.321 269.378 193.344L269.994 192.801L270.611 192.258C262.467 183.002 252.484 176.643 240.677 173.191L240.447 173.979ZM269.994 192.801L269.382 193.349C277.331 202.224 283.301 214.011 287.263 228.75L288.056 228.537L288.85 228.323C284.839 213.401 278.767 201.364 270.606 192.253L269.994 192.801ZM288.056 228.537L287.266 228.76C291.383 243.356 292.733 258.589 291.309 274.463L292.127 274.537L292.945 274.61C294.386 258.546 293.022 243.112 288.847 228.314L288.056 228.537ZM292.127 274.537L291.309 274.463C288.298 308.03 277.511 332.366 259.071 347.636L259.595 348.268L260.119 348.901C279.011 333.256 289.912 308.437 292.945 274.61L292.127 274.537ZM259.595 348.268L258.857 348.628C279.863 391.719 289.774 446.448 288.538 512.861L289.359 512.876L290.181 512.891C291.42 446.313 281.489 391.304 260.334 347.908L259.595 348.268ZM289.359 512.876L289.433 512.058L184.606 502.656L184.533 503.474L184.46 504.293L289.286 513.694L289.359 512.876ZM184.533 503.474L185.351 503.548L185.627 500.471L184.809 500.398L183.991 500.324L183.715 503.401L184.533 503.474ZM184.809 500.398L185.627 500.471C189.165 461.028 188.132 430.547 182.477 409.081L181.682 409.29L180.888 409.499C186.471 430.689 187.522 460.946 183.991 500.324L184.809 500.398ZM181.682 409.29L182.477 409.081C176.831 387.653 167.05 375.917 152.889 374.647L152.816 375.465L152.742 376.284C165.832 377.458 175.295 388.272 180.888 409.499L181.682 409.29ZM152.816 375.465L152.889 374.647L151.57 374.529L151.497 375.347L151.424 376.165L152.742 376.284L152.816 375.465ZM151.497 375.347L150.679 375.274L139.543 499.439L140.361 499.513L141.179 499.586L152.315 375.421L151.497 375.347ZM140.361 499.513L140.434 498.694L39.5636 489.647L39.4902 490.466L39.4168 491.284L140.288 500.331L140.361 499.513ZM166.008 233.319L166.081 232.501L164.323 232.343L164.249 233.161L164.176 233.98L165.934 234.137L166.008 233.319ZM164.249 233.161L163.431 233.088L157.636 297.698L158.455 297.771L159.273 297.845L165.068 233.235L164.249 233.161ZM158.455 297.771L158.381 298.59L161.018 298.826L161.092 298.008L161.165 297.189L158.528 296.953L158.455 297.771ZM161.092 298.008L161.018 298.826C170.969 299.718 178.595 297.706 183.7 292.588L183.118 292.008L182.537 291.428C177.905 296.071 170.847 298.058 161.165 297.189L161.092 298.008ZM183.118 292.008L183.7 292.588C188.77 287.506 191.752 279.045 192.796 267.4L191.978 267.327L191.16 267.253C190.128 278.757 187.203 286.75 182.537 291.428L183.118 292.008ZM191.978 267.327L192.796 267.4C193.745 256.816 192.049 248.507 187.548 242.613C183.035 236.704 175.823 233.374 166.081 232.501L166.008 233.319L165.934 234.137C175.385 234.985 182.097 238.183 186.242 243.611C190.397 249.052 192.089 256.887 191.16 267.253L191.978 267.327Z" fill="black" mask="url(#path-61-outside-7_215_147)"/>
<path d="M89.8646 495.404L113.667 230.014L115.332 211.449L244.357 223.021L239.55 276.621L235.44 322.446L222.979 321.329L184.794 317.904L253.936 510.119L89.8646 495.404Z" fill="black" stroke="black" stroke-width="0.821598"/>
<rect x="176.712" y="221.487" width="32.8639" height="33.6855" transform="rotate(5.12505 176.712 221.487)" stroke="black" stroke-width="9.03757"/>
<rect x="170.84" y="286.953" width="33.6855" height="69.0142" transform="rotate(-84.875 170.84 286.953)" stroke="black" stroke-width="9.03757"/>
<rect x="210.263" y="224.499" width="32.8639" height="33.6855" transform="rotate(5.12505 210.263 224.499)" stroke="black" stroke-width="9.03757"/>
<rect x="144.8" y="218.624" width="30.3991" height="52.5823" transform="rotate(5.12505 144.8 218.624)" stroke="black" stroke-width="9.03757"/>
<rect x="111.249" y="215.616" width="32.0423" height="52.5823" transform="rotate(5.12505 111.249 215.616)" stroke="black" stroke-width="9.03757"/>
<path d="M318.35 279.904L292.574 262.605C290.499 261.213 287.692 262.553 287.469 265.041L285.168 290.693C284.961 293.006 287.153 294.799 289.379 294.137L317.456 285.782C320.121 284.99 320.659 281.453 318.35 279.904Z" fill="black" stroke="black" stroke-width="0.821598"/>
<path d="M217.201 124.416C212.115 130.035 197.06 135.75 185.93 139.228C183.137 140.101 182.721 143.804 185.409 144.959C205.395 153.547 236.792 157.516 243.674 145.519C251.442 131.977 232.779 107.209 217.201 124.416Z" fill="black" stroke="black" stroke-width="0.821597"/>
<mask id="path-71-outside-8_215_147" maskUnits="userSpaceOnUse" x="142.695" y="486.358" width="276.329" height="355.39" fill="black">
<rect fill="white" x="142.695" y="486.358" width="276.329" height="355.39"/>
<path d="M167.039 840.649L144.285 504.716L245.329 497.872C280.405 495.496 303.966 495.08 316.013 496.623C328.059 498.166 338.769 502.822 348.141 510.59C357.503 518.213 365.313 529.036 371.57 543.061C377.965 556.928 381.704 571.861 382.787 587.858C385.074 621.612 378.208 647.583 362.19 665.77C389.776 705.183 408.158 757.825 417.338 823.695L312.331 830.808L312.123 827.726C309.449 788.247 303.669 758.415 294.782 738.229C285.896 718.043 274.628 708.412 260.98 709.337L259.659 709.426L268.083 833.805L167.039 840.649ZM251.773 566.877L250.011 566.996L254.395 631.717L257.037 631.538C266.87 630.872 273.809 627.748 277.854 622.167C281.899 616.585 283.528 607.997 282.743 596.403C281.322 575.417 270.998 565.574 251.773 566.877Z"/>
</mask>
<path d="M167.039 840.649L144.285 504.716L245.329 497.872C280.405 495.496 303.966 495.08 316.013 496.623C328.059 498.166 338.769 502.822 348.141 510.59C357.503 518.213 365.313 529.036 371.57 543.061C377.965 556.928 381.704 571.861 382.787 587.858C385.074 621.612 378.208 647.583 362.19 665.77C389.776 705.183 408.158 757.825 417.338 823.695L312.331 830.808L312.123 827.726C309.449 788.247 303.669 758.415 294.782 738.229C285.896 718.043 274.628 708.412 260.98 709.337L259.659 709.426L268.083 833.805L167.039 840.649ZM251.773 566.877L250.011 566.996L254.395 631.717L257.037 631.538C266.87 630.872 273.809 627.748 277.854 622.167C281.899 616.585 283.528 607.997 282.743 596.403C281.322 575.417 270.998 565.574 251.773 566.877Z" fill="black"/>
<path d="M167.039 840.649L166.22 840.704L166.275 841.524L167.095 841.469L167.039 840.649ZM144.285 504.716L144.23 503.896L143.41 503.952L143.466 504.772L144.285 504.716ZM348.141 510.591L347.616 511.223L347.622 511.228L348.141 510.591ZM371.57 543.061L370.82 543.395L370.824 543.405L371.57 543.061ZM362.19 665.77L361.574 665.227L361.147 665.712L361.517 666.242L362.19 665.77ZM417.338 823.695L417.394 824.515L418.273 824.455L418.152 823.582L417.338 823.695ZM312.331 830.808L311.512 830.863L311.567 831.683L312.387 831.627L312.331 830.808ZM259.659 709.426L259.603 708.606L258.784 708.662L258.839 709.482L259.659 709.426ZM268.083 833.805L268.139 834.625L268.959 834.569L268.903 833.749L268.083 833.805ZM250.011 566.996L249.956 566.176L249.136 566.232L249.192 567.051L250.011 566.996ZM254.395 631.717L253.576 631.772L253.631 632.592L254.451 632.537L254.395 631.717ZM167.039 840.649L167.859 840.593L145.105 504.661L144.285 504.716L143.466 504.772L166.22 840.704L167.039 840.649ZM144.285 504.716L144.341 505.536L245.385 498.692L245.329 497.872L245.274 497.052L144.23 503.896L144.285 504.716ZM245.329 497.872L245.385 498.692C280.472 496.315 303.954 495.907 315.908 497.438L316.013 496.623L316.117 495.808C303.978 494.253 280.338 494.677 245.274 497.052L245.329 497.872ZM316.013 496.623L315.908 497.438C327.8 498.961 338.364 503.553 347.616 511.223L348.141 510.591L348.665 509.958C339.173 502.09 328.318 497.371 316.117 495.808L316.013 496.623ZM348.141 510.591L347.622 511.228C356.861 518.749 364.601 529.457 370.82 543.395L371.57 543.061L372.321 542.726C366.025 528.615 358.145 517.676 348.659 509.953L348.141 510.591ZM371.57 543.061L370.824 543.405C377.175 557.177 380.89 572.011 381.968 587.913L382.787 587.858L383.607 587.802C382.517 571.71 378.755 556.68 372.317 542.717L371.57 543.061ZM382.787 587.858L381.968 587.913C384.245 621.537 377.397 647.261 361.574 665.227L362.19 665.77L362.807 666.313C379.019 647.906 385.902 621.687 383.607 587.802L382.787 587.858ZM362.19 665.77L361.517 666.242C389.005 705.515 407.356 758.02 416.524 823.809L417.338 823.695L418.152 823.582C408.961 757.629 390.546 704.851 362.863 665.299L362.19 665.77ZM417.338 823.695L417.282 822.876L312.276 829.988L312.331 830.808L312.387 831.627L417.394 824.515L417.338 823.695ZM312.331 830.808L313.151 830.752L312.942 827.67L312.123 827.726L311.303 827.781L311.512 830.863L312.331 830.808ZM312.123 827.726L312.942 827.67C310.266 788.16 304.478 758.215 295.534 737.898L294.782 738.229L294.03 738.56C302.859 758.616 308.631 788.335 311.303 827.781L312.123 827.726ZM294.782 738.229L295.534 737.898C286.606 717.617 275.109 707.556 260.924 708.517L260.98 709.337L261.035 710.156C274.147 709.268 285.186 718.469 294.03 738.56L294.782 738.229ZM260.98 709.337L260.924 708.517L259.603 708.606L259.659 709.426L259.714 710.246L261.035 710.156L260.98 709.337ZM259.659 709.426L258.839 709.482L267.264 833.86L268.083 833.805L268.903 833.749L260.479 709.371L259.659 709.426ZM268.083 833.805L268.028 832.985L166.984 839.829L167.039 840.649L167.095 841.469L268.139 834.625L268.083 833.805ZM251.773 566.877L251.717 566.057L249.956 566.176L250.011 566.996L250.067 567.816L251.828 567.696L251.773 566.877ZM250.011 566.996L249.192 567.051L253.576 631.772L254.395 631.717L255.215 631.661L250.831 566.94L250.011 566.996ZM254.395 631.717L254.451 632.537L257.092 632.358L257.037 631.538L256.981 630.718L254.34 630.897L254.395 631.717ZM257.037 631.538L257.092 632.358C267.06 631.682 274.277 628.501 278.519 622.649L277.854 622.167L277.188 621.684C273.34 626.995 266.679 630.061 256.981 630.718L257.037 631.538ZM277.854 622.167L278.519 622.649C282.732 616.836 284.353 608.013 283.563 596.348L282.743 596.403L281.923 596.459C282.704 607.982 281.066 616.334 277.188 621.684L277.854 622.167ZM282.743 596.403L283.563 596.348C282.845 585.745 279.869 577.804 274.501 572.687C269.12 567.557 261.476 565.396 251.717 566.057L251.773 566.877L251.828 567.696C261.295 567.055 268.425 569.164 273.367 573.876C278.323 578.601 281.22 586.075 281.923 596.459L282.743 596.403Z" fill="black" mask="url(#path-71-outside-8_215_147)"/>
<path d="M152.206 764.202L157.047 704.311L212.063 561.094L341.31 552.34L344.947 606.032L348.056 651.936L335.574 652.781L297.324 655.372L383.861 771.934L152.206 764.202Z" fill="black" stroke="black" stroke-width="0.821598"/>
<rect x="274.257" y="561.41" width="32.8639" height="33.6855" transform="rotate(-3.87495 274.257 561.41)" stroke="black" stroke-width="9.03757"/>
<rect x="278.699" y="626.992" width="33.6855" height="69.0142" transform="rotate(-93.875 278.699 626.992)" stroke="black" stroke-width="9.03757"/>
<rect x="307.867" y="559.132" width="32.8639" height="33.6855" transform="rotate(-3.87495 307.867 559.132)" stroke="black" stroke-width="9.03757"/>
<rect x="242.288" y="563.575" width="30.3991" height="52.5823" transform="rotate(-3.87495 242.288 563.575)" stroke="black" stroke-width="9.03757"/>
<rect x="208.683" y="565.854" width="32.0423" height="52.5823" transform="rotate(-3.87495 208.683 565.854)" stroke="black" stroke-width="9.03757"/>
<path d="M409.506 589.058L381.341 576.005C379.074 574.955 376.511 576.717 376.68 579.209L378.42 604.906C378.577 607.223 381.023 608.65 383.118 607.648L409.543 595.004C412.05 593.804 412.028 590.227 409.506 589.058Z" fill="black" stroke="black" stroke-width="0.821598"/>
<path d="M269.042 465.283C264.898 471.627 250.923 479.627 240.473 484.804C237.852 486.103 238.02 489.825 240.855 490.545C261.939 495.901 293.571 494.91 298.491 481.984C304.044 467.394 281.737 445.85 269.042 465.283Z" fill="black" stroke="black" stroke-width="0.821598"/>
</g>
<defs>
<clipPath id="clip0_215_147">
<rect width="742" height="1035" fill="white"/>
</clipPath>
</defs>
</svg>
