<svg width="408" height="658" viewBox="0 0 408 658" fill="none" xmlns="http://www.w3.org/2000/svg">
<path d="M7.24609 68.3443H32.9758H366.785H400.64V7.24805H7.24609V68.3443Z" fill="#8D202C" stroke="#8D202C" stroke-width="14.4957"/>
<path d="M34.7344 297.241V68.3447H373.155V297.241L267.321 383.384C224.004 403.074 172.153 391.588 151.643 383.384L34.7344 297.241Z" fill="#8D202C" stroke="#8D202C" stroke-width="14.4957"/>
<path d="M172.245 465.157V394.677L239.655 394.677V465.157L302.249 503.676V528.884H331.375V650.358H87.9844V528.884H117.298V503.676L172.245 465.157Z" fill="#8D202C"/>
<path d="M117.298 528.884V503.676L172.245 465.157V394.677L239.655 394.677V465.157L302.249 503.676V528.884M117.298 528.884H302.249M117.298 528.884H87.9844V650.358H331.375V528.884H302.249" stroke="#8D202C" stroke-width="14.4957"/>
<path d="M338.754 110.955H324V248.11L338.754 218.369V110.955Z" fill="#8D202C" stroke="#8D202C" stroke-width="14.4957"/>
</svg>
