<svg width="1437" height="1606" viewBox="0 0 1437 1606" fill="none" xmlns="http://www.w3.org/2000/svg">
<path d="M651.332 118.829L697.596 147.623L1297.81 521.19L1358.68 559.077L1427.05 449.222L719.705 8.97363L651.332 118.829Z" fill="#D1293C" stroke="white" stroke-width="13.03"/>
<path d="M444.6 561.16L700.758 149.59L1309.26 528.317L1053.1 939.887L766.404 976.34C666.48 963.267 586.104 884.589 558.406 846.884L444.6 561.16Z" fill="#D1293C" stroke="white" stroke-width="13.0266"/>
<path d="M503.94 1016.97L582.815 890.247L704.022 965.686L625.148 1092.41L694.59 1231.72L666.38 1277.05L718.749 1309.64L582.808 1528.06L145.175 1255.68L281.117 1037.26L333.824 1070.07L362.034 1024.74L503.94 1016.97Z" fill="#D1293C"/>
<path d="M333.824 1070.07L362.034 1024.74L503.94 1016.97L582.815 890.247L704.022 965.686L625.148 1092.41L694.59 1231.72L666.38 1277.05M333.824 1070.07L666.38 1277.05M333.824 1070.07L281.117 1037.26L145.175 1255.68L582.808 1528.06L718.749 1309.64L666.38 1277.05" stroke="white" stroke-width="13.0266"/>
</svg>
