<svg width="408" height="658" viewBox="0 0 408 658" fill="none" xmlns="http://www.w3.org/2000/svg">
<path d="M7.24805 68.3443H32.9777H366.787H400.642V7.24805H7.24805V68.3443Z" fill="black" stroke="white" stroke-width="14.4957"/>
<path d="M34.7344 297.241V68.3447H373.155V297.241L267.321 383.384C224.004 403.074 172.153 391.588 151.643 383.384L34.7344 297.241Z" fill="black" stroke="white" stroke-width="14.4957"/>
<path d="M172.247 465.157V394.677L239.657 394.677V465.157L302.251 503.676V528.884H331.377V650.358H87.9863V528.884H117.3V503.676L172.247 465.157Z" fill="black"/>
<path d="M117.3 528.884V503.676L172.247 465.157V394.677L239.657 394.677V465.157L302.251 503.676V528.884M117.3 528.884H302.251M117.3 528.884H87.9863V650.358H331.377V528.884H302.251" stroke="white" stroke-width="14.4957"/>
<path d="M338.754 110.955H324V248.11L338.754 218.369V110.955Z" fill="white"/>
</svg>
