<svg width="692" height="724" viewBox="0 0 692 724" fill="none" xmlns="http://www.w3.org/2000/svg">
<path d="M624.619 243.468L182.125 657.885L169.941 668.615L23.8451 543.969L74.0371 489.709L119.958 438.851L133.787 451.337L176.165 489.601L442.056 75.0747L624.619 243.468Z" fill="white"/>
<path d="M27.2529 535.317L81.8545 474.473L86.2613 469.761L101.797 453.147C113.365 442.16 122.473 433.899 137.005 447.019L168.2 475.765" stroke="#D1293C" stroke-width="9.8327"/>
<rect x="165.181" y="537.074" width="51.9515" height="102.853" rx="12.5981" transform="rotate(132.079 165.181 537.074)" stroke="#D1293C" stroke-width="11.6763"/>
<rect x="59.7088" y="577.295" width="51.6921" height="48.2807" rx="12.5981" transform="rotate(-137.921 59.7088 577.295)" stroke="#D1293C" stroke-width="11.6763"/>
<rect x="97.9393" y="612.199" width="51.8341" height="48.2807" rx="12.5981" transform="rotate(-137.921 97.9393 612.199)" stroke="#D1293C" stroke-width="11.6763"/>
<rect x="136.68" y="644.432" width="50.0195" height="77.1468" rx="12.5981" transform="rotate(-137.921 136.68 644.432)" stroke="#D1293C" stroke-width="11.6763"/>
<path d="M163.326 665.835L147.637 651.67C142.473 647.007 142.066 639.04 146.729 633.876L181.116 595.791C185.779 590.627 193.746 590.221 198.91 594.884L214.597 609.048C219.767 613.716 220.168 621.694 215.492 626.856L199.322 644.707L199.311 644.72L181.132 664.914C176.472 670.09 168.495 670.503 163.326 665.835Z" stroke="#D1293C" stroke-width="11.6763"/>
<rect x="118.393" y="437.931" width="3.68726" height="4.30181" transform="rotate(-46.9208 118.393 437.931)" fill="#D1293C"/>
<path d="M468.081 41.2191L176.202 489.679L164.811 479.396L455.664 33.1312L468.081 41.2191Z" fill="#D1293C"/>
<path d="M687.048 182.962L199.827 652.891L168.791 668.988L680.52 176.183L687.048 182.962Z" fill="#D1293C"/>
</svg>
