<svg width="692" height="724" viewBox="0 0 692 724" fill="none" xmlns="http://www.w3.org/2000/svg">
<path d="M66.7994 480.14L509.294 65.7236L521.478 54.9935L667.574 179.64L617.382 233.899L571.461 284.758L557.632 272.272L515.253 234.007L249.362 648.534L66.7994 480.14Z" fill="white"/>
<path d="M664.168 188.291L609.566 249.135L605.159 253.848L589.624 270.462C578.055 281.448 568.947 289.71 554.416 276.59L523.22 247.843" stroke="#D1293C" stroke-width="9.8327"/>
<rect x="526.238" y="186.535" width="51.9515" height="102.853" rx="12.5981" transform="rotate(-47.9208 526.238 186.535)" stroke="#D1293C" stroke-width="11.6763"/>
<rect x="631.71" y="146.314" width="51.6921" height="48.2807" rx="12.5981" transform="rotate(42.0792 631.71 146.314)" stroke="#D1293C" stroke-width="11.6763"/>
<rect x="593.481" y="111.409" width="51.8341" height="48.2807" rx="12.5981" transform="rotate(42.0792 593.481 111.409)" stroke="#D1293C" stroke-width="11.6763"/>
<rect x="554.741" y="79.1765" width="50.0195" height="77.1468" rx="12.5981" transform="rotate(42.0792 554.741 79.1765)" stroke="#D1293C" stroke-width="11.6763"/>
<path d="M528.093 57.773L543.782 71.9386C548.946 76.6014 549.352 84.5685 544.689 89.7326L510.303 127.817C505.64 132.981 497.673 133.388 492.509 128.725L476.821 114.561C471.651 109.893 471.25 101.915 475.926 96.7521L492.096 78.902L492.108 78.8889L510.286 58.6947C514.946 53.5182 522.923 53.1053 528.093 57.773Z" stroke="#D1293C" stroke-width="11.6763"/>
<rect x="573.027" y="285.677" width="3.68726" height="4.30181" transform="rotate(133.079 573.027 285.677)" fill="#D1293C"/>
<path d="M223.338 682.39L515.217 233.93L526.607 244.213L235.755 690.478L223.338 682.39Z" fill="#D1293C"/>
<path d="M4.37038 540.647L491.591 70.718L522.627 54.6206L10.8984 547.426L4.37038 540.647Z" fill="#D1293C"/>
</svg>
