<svg width="151" height="130" viewBox="0 0 151 130" fill="none" xmlns="http://www.w3.org/2000/svg">
<path d="M118.692 118.206C119.137 117.024 120.454 116.425 121.637 116.868L133.664 121.384C134.847 121.828 135.446 123.146 135.002 124.329L133.511 128.302C133.067 129.484 131.748 130.083 130.565 129.64L118.537 125.124C117.355 124.68 116.757 123.361 117.2 122.179L118.692 118.206ZM108.809 87.0664L114.452 72.0332L114.458 72.0156L114.544 72.0479C114.995 70.8465 115.5 70.0743 116.018 69.5811C116.522 69.1005 117.076 68.8465 117.709 68.7422C119.013 68.5274 120.617 68.9316 122.704 69.5332L127.387 71.291C126.297 71.9642 125.398 72.9634 124.854 74.2148L124.729 74.5244L117.795 92.9951C116.576 96.2416 118.131 99.8494 121.275 101.216L121.564 101.333C120.734 101.979 120.052 102.835 119.607 103.858L119.482 104.167L118.232 107.495L118.124 107.811C117.564 109.566 117.795 111.402 118.632 112.914C117.007 113.502 115.625 114.732 114.891 116.423L114.766 116.731L113.273 120.704L113.165 121.02C112.885 121.898 112.802 122.796 112.895 123.664L0 80.2559L12.8623 0L108.809 87.0664ZM138.55 120.422C138.543 120.409 138.535 120.397 138.528 120.384C138.543 120.379 138.557 120.373 138.571 120.368L138.55 120.422ZM123.409 105.641C123.853 104.458 125.171 103.86 126.354 104.304L138.381 108.819C139.564 109.263 140.163 110.582 139.719 111.765L138.47 115.092C138.026 116.275 136.707 116.874 135.524 116.431L123.496 111.915C122.314 111.471 121.715 110.151 122.159 108.969L123.409 105.641ZM136.311 95.0449C136.755 93.8621 138.074 93.263 139.257 93.707L144.43 95.6494C145.612 96.0935 146.212 97.4129 145.768 98.5957L144.155 102.89C143.711 104.072 142.392 104.672 141.209 104.228L136.036 102.285C134.854 101.841 134.255 100.523 134.698 99.3398L136.311 95.0449ZM128.656 75.998C129.101 74.8155 130.42 74.2171 131.603 74.6611L136.218 76.3945C137.401 76.8386 138 78.1571 137.557 79.3398L130.622 97.8105C130.178 98.9932 128.859 99.5924 127.676 99.1484L123.06 97.415C121.877 96.971 121.278 95.6524 121.722 94.4697L128.656 75.998ZM141.164 81.7969C141.608 80.6141 142.927 80.0151 144.109 80.459L149.182 82.3633C150.364 82.8074 150.964 84.1268 150.52 85.3096L148.907 89.6035C148.463 90.7863 147.144 91.3855 145.961 90.9414L140.889 89.0371C139.706 88.593 139.108 87.2745 139.552 86.0918L141.164 81.7969ZM116.348 67.1465C116.323 67.1561 116.299 67.1668 116.274 67.1768L116.294 67.127L116.348 67.1465Z" fill="white"/>
</svg>
