<svg width="201" height="188" viewBox="0 0 201 188" fill="none" xmlns="http://www.w3.org/2000/svg">
<path d="M18.6321 50.8728C19.9746 49.9409 20.3075 48.0969 19.3758 46.7544L9.90003 33.1039C8.96809 31.7614 7.1239 31.4274 5.78132 32.3593L1.27311 35.4885C-0.0693912 36.4204 -0.402997 38.2656 0.528738 39.6082L10.0048 53.2595C10.9368 54.6017 12.7815 54.9338 14.1239 54.002L18.6321 50.8728ZM60.8172 53.3938L77.8808 41.5492L77.8997 41.5363L77.8319 41.4396C79.1955 40.4931 80.0042 39.6146 80.4587 38.8093C80.9015 38.0243 81.0419 37.2479 80.972 36.4212C80.8277 34.7148 79.8102 32.8284 78.3897 30.3947L74.7106 25.0938C74.2118 26.6737 73.2437 28.1177 71.8466 29.1963L71.4991 29.4514L50.534 44.0039C46.8488 46.5619 41.8305 45.7563 39.1199 42.245L38.8815 41.9195C38.3346 43.1653 37.4791 44.2926 36.3361 45.1749L35.9889 45.431L32.2114 48.0521L31.8501 48.2884C29.8252 49.5472 27.4497 49.839 25.2877 49.2687C25.0661 51.4934 23.9608 53.6174 22.0736 55.0744L21.7261 55.3295L17.217 58.4589L16.8559 58.6963C15.8438 59.3253 14.7438 59.7129 13.6268 59.8723L103.856 187.685L200.424 146.109L60.8172 53.3938ZM9.55442 26.6731C9.57375 26.6781 9.59319 26.6826 9.61249 26.6877C9.61447 26.6678 9.61542 26.6478 9.61754 26.628L9.55442 26.6731ZM32.8946 40.9733C34.2371 40.0414 34.571 38.1972 33.6393 36.8546L24.1635 23.2042C23.2316 21.8617 21.3864 21.5281 20.0438 22.4598L16.2666 25.0819C14.9242 26.0138 14.5914 27.8588 15.5232 29.2013L24.999 42.8517C25.9309 44.1941 27.7749 44.5271 29.1174 43.5954L32.8946 40.9733ZM42.0906 21.4328C43.4328 20.5008 43.7661 18.6577 42.8345 17.3152L38.7583 11.4439C37.8264 10.1013 35.9822 9.76742 34.6396 10.6992L29.7656 14.0831C28.4231 15.015 28.0903 16.8599 29.0222 18.2025L33.0975 24.0741C34.0295 25.4164 35.8742 25.7485 37.2166 24.8166L42.0906 21.4328ZM68.4051 24.9947C69.7473 24.0627 70.0794 22.218 69.1476 20.8755L65.511 15.6354C64.579 14.293 62.7343 13.961 61.3918 14.8929L40.4274 29.4442C39.0851 30.376 38.7523 32.2202 39.6837 33.5627L43.3206 38.8038C44.2524 40.1462 46.0974 40.4789 47.44 39.5472L68.4051 24.9947ZM57.1673 11.1481C58.5098 10.2162 58.8417 8.37149 57.9098 7.02895L53.914 1.27223C52.982 -0.0701579 51.138 -0.403221 49.7955 0.528564L44.9213 3.91145C43.5787 4.84339 43.2459 6.68828 44.1779 8.03086L48.1737 13.7876C49.1057 15.1302 50.9505 15.463 52.2931 14.531L57.1673 11.1481ZM83.4072 37.6226C83.4031 37.6561 83.3979 37.6894 83.3933 37.7229L83.4488 37.6836L83.4072 37.6226Z" fill="white"/>
</svg>
