<svg width="696" height="668" viewBox="0 0 696 668" fill="none" xmlns="http://www.w3.org/2000/svg">
<path d="M175.217 481.708L66.2695 666.079L273.92 669.804L278.11 660.958L333.049 550.149L346.551 518.489L246.916 488.226L175.217 481.708Z" fill="#333232" stroke="black" stroke-width="2.18567"/>
<path d="M151.82 297.577L208.907 366.557L167.678 460.909L175.606 480.731L235.865 485.488L341.318 515.618L368.275 505.31L396.819 436.33L412.677 427.608L449.942 366.557L505.443 249.211V184.988L460.249 108.872L341.318 59.7139L275.509 76.3643L223.179 135.037L216.836 179.438L208.907 198.467L158.956 234.939L151.82 297.577Z" fill="#D1293C" stroke="black" stroke-width="0.728558"/>
<path d="M174.801 483.76L161.958 463.012L206.868 366.343M174.801 483.76C210.966 472.347 305.877 502.422 348.813 518.886M174.801 483.76C156.051 498.325 38.1382 715.799 -6.50276 775.667M206.868 366.343C175.666 344.523 122.531 287.112 159.603 232.026C177.625 203.652 204.459 197.088 215.623 197.352C208.972 170.38 213.712 107.565 285.876 72.0824C358.039 36.5995 445.101 95.9689 479.612 130.089C501.971 153.077 530.535 226.271 465.915 335.14L413.645 429.191L403.516 424.62M206.868 366.343C241.771 362.333 356.201 375.992 403.516 424.62M403.516 424.62L371.038 505.129L348.813 518.886M348.813 518.886C315.788 590.028 238.326 743.18 192.676 786.648" stroke="white" stroke-width="13.0266"/>
</svg>
