<svg width="289" height="574" viewBox="0 0 289 574" fill="none" xmlns="http://www.w3.org/2000/svg">
<g clip-path="url(#clip0_339_16)">
<path d="M21.5596 64.2665C68.0093 81.4248 99.0255 94.6363 114.113 103.863C129.519 113.284 141.252 126.155 149.24 142.389L149.955 143.843L149.97 143.872C157.54 159.617 161.201 178.335 161.165 199.856L161.166 199.857L161.175 201.89V201.909C161.16 214.31 159.84 226.651 157.229 238.93L180.043 261.756V261.757C185.398 267.116 182.096 276.289 174.554 277.006L143.727 279.931C127.908 316.141 106.387 341.47 78.8857 355.19C90.2132 418.244 84.5279 491.198 62.127 573.92H10.0547V60.0175L21.5596 64.2665Z" fill="#D1293C"/>
<path d="M21.5596 64.2665L22.7724 60.9833L22.7721 60.9833L21.5596 64.2665ZM114.113 103.863L115.939 100.877L115.939 100.877L114.113 103.863ZM149.24 142.389L152.381 140.844L152.381 140.843L149.24 142.389ZM149.955 143.843L146.814 145.387L146.819 145.397L146.825 145.408L149.955 143.843ZM149.97 143.872L153.124 142.355L153.112 142.331L153.1 142.307L149.97 143.872ZM161.165 199.856L157.665 199.85L157.663 201.304L158.69 202.331L161.165 199.856ZM161.166 199.857L164.666 199.842L164.66 198.401L163.641 197.382L161.166 199.857ZM161.175 201.89H164.675V201.882L164.675 201.874L161.175 201.89ZM161.175 201.909L164.675 201.913V201.909H161.175ZM157.229 238.93L153.805 238.201L153.41 240.06L154.753 241.404L157.229 238.93ZM180.043 261.756H183.543V260.307L182.518 259.282L180.043 261.756ZM180.043 261.757H176.543V263.206L177.567 264.231L180.043 261.757ZM174.554 277.006L174.884 280.49L174.885 280.49L174.554 277.006ZM143.727 279.931L143.396 276.446L141.344 276.641L140.519 278.529L143.727 279.931ZM78.8857 355.19L77.3233 352.058L74.9773 353.229L75.4409 355.809L78.8857 355.19ZM62.127 573.92V577.42H64.8052L65.5053 574.835L62.127 573.92ZM10.0547 573.92H6.55469V577.42H10.0547V573.92ZM10.0547 60.0175L11.2673 56.7342L6.55469 54.9938V60.0175H10.0547ZM21.5596 64.2665L20.3468 67.5497C66.8425 84.7249 97.5376 97.829 112.287 106.849L114.113 103.863L115.939 100.877C100.513 91.4437 69.1762 78.1246 22.7724 60.9833L21.5596 64.2665ZM114.113 103.863L112.287 106.849C127.125 115.924 138.404 128.294 146.1 143.934L149.24 142.389L152.381 140.843C144.1 124.016 131.912 110.645 115.939 100.877L114.113 103.863ZM149.24 142.389L146.099 143.933L146.814 145.387L149.955 143.843L153.096 142.299L152.381 140.844L149.24 142.389ZM149.955 143.843L146.825 145.408L146.839 145.437L149.97 143.872L153.1 142.307L153.086 142.277L149.955 143.843ZM149.97 143.872L146.815 145.389C154.104 160.549 157.7 178.72 157.665 199.85L161.165 199.856L164.665 199.862C164.702 177.95 160.975 158.684 153.124 142.355L149.97 143.872ZM161.165 199.856L158.69 202.331L158.691 202.332L161.166 199.857L163.641 197.382L163.64 197.381L161.165 199.856ZM161.166 199.857L157.666 199.872L157.675 201.905L161.175 201.89L164.675 201.874L164.666 199.842L161.166 199.857ZM161.175 201.89H157.675V201.909H161.175H164.675V201.89H161.175ZM161.175 201.909L157.675 201.905C157.66 214.058 156.367 226.157 153.805 238.201L157.229 238.93L160.652 239.658C163.314 227.146 164.659 214.562 164.675 201.913L161.175 201.909ZM157.229 238.93L154.753 241.404L177.567 264.23L180.043 261.756L182.518 259.282L159.704 236.455L157.229 238.93ZM180.043 261.756H176.543V261.757H180.043H183.543V261.756H180.043ZM180.043 261.757L177.567 264.231C180.83 267.496 178.818 273.085 174.223 273.521L174.554 277.006L174.885 280.49C185.373 279.494 189.967 266.736 182.519 259.283L180.043 261.757ZM174.554 277.006L174.223 273.521L143.396 276.446L143.727 279.931L144.057 283.415L174.884 280.49L174.554 277.006ZM143.727 279.931L140.519 278.529C124.922 314.233 103.882 338.809 77.3233 352.058L78.8857 355.19L80.4482 358.322C108.893 344.132 130.894 318.048 146.934 281.332L143.727 279.931ZM78.8857 355.19L75.4409 355.809C86.6506 418.207 81.0591 490.617 58.7486 573.005L62.127 573.92L65.5053 574.835C87.9967 491.779 93.7758 418.28 82.3306 354.571L78.8857 355.19ZM62.127 573.92V570.42H10.0547V573.92V577.42H62.127V573.92ZM10.0547 573.92H13.5547V60.0175H10.0547H6.55469V573.92H10.0547ZM10.0547 60.0175L8.84211 63.3007L20.347 67.5497L21.5596 64.2665L22.7721 60.9833L11.2673 56.7342L10.0547 60.0175Z" fill="white"/>
<path d="M82.639 21.0003C74.068 27.3881 51.6761 31.1913 35.3239 32.9693C31.2216 33.4154 29.6355 38.4261 33.0403 40.7575C58.3567 58.093 100.723 72.1496 113.519 57.4239C127.962 40.8016 108.89 1.43609 82.639 21.0003Z" fill="#D1293C" stroke="white" stroke-width="7"/>
</g>
<defs>
<clipPath id="clip0_339_16">
<rect width="289" height="574" fill="white"/>
</clipPath>
</defs>
</svg>
