<svg width="771" height="695" viewBox="0 0 771 695" fill="none" xmlns="http://www.w3.org/2000/svg">
<g clip-path="url(#clip0_195_101)">
<path d="M757.024 672.343L786.412 713.438L389.968 768.497L2.51953 713.438L9.52598 685.024L50.3883 651.207L159.589 599.777L260.336 551.165V466.622L249.768 357.422L230.746 146.065L267.381 113.657L335.015 89.7031L389.968 83.3623L473.806 95.3392L534.395 120.702L572.439 260.902L566.803 393.352L538.622 466.622V568.778L572.439 582.869L696.435 635.003L757.024 672.343Z" fill="white"/>
<path d="M226.436 153.637C282.012 78.6615 469.711 45.1063 558.841 145.772" stroke="black" stroke-width="14.6871"/>
<path d="M342.017 438.67L385.496 393.941L412.35 397.407L442.669 393.941L485.816 438.67L494.841 430.441C503.503 436.649 530.602 445.34 539.957 430.441C549.313 415.541 554.828 364.749 556.416 341.216L576.773 436.071V444.956L567.668 438.856C567.418 449.053 566.204 470.349 563.352 473.952L550.276 463.663L535.584 489.617L524.293 460.31L517.327 508.835L505.316 491.059L487.78 523.248L484.417 514.841L441.897 537.421L439.904 528.053L422.439 541.265L405.143 537.421L412.35 551.354L376.557 530.455L373.636 541.265L342.017 513.399L338.122 525.41C327.552 519.645 306.413 505.76 306.413 496.344C306.413 487.051 308.128 483.545 309.02 482.915L292.96 493.701L251.882 442.054L241.793 433.406L251.882 356.535L253.324 278.943L277.848 412.934C280.373 421.318 291.278 437.148 314.706 433.406C338.134 429.663 342.675 435.356 342.017 438.67Z" fill="black"/>
<path d="M342.017 438.67L385.496 393.941L412.35 397.407L442.669 393.941L485.816 438.67M342.017 438.67C348.514 447.044 363.934 463.791 373.636 463.791C383.338 463.791 394.715 450.798 399.19 444.301L435.14 446.899L439.904 458.161L468.924 463.791V453.396L485.816 438.67M342.017 438.67C342.675 435.356 338.134 429.663 314.706 433.406C291.278 437.148 280.373 421.318 277.848 412.934L253.324 278.943L251.882 356.535L241.793 433.406L251.882 442.054L292.96 493.701L309.055 482.891C308.174 483.452 306.413 486.927 306.413 496.344C306.413 505.76 327.552 519.645 338.122 525.41L342.017 513.399L373.636 541.265L376.557 530.455L412.35 551.354L405.144 537.421L422.439 541.265L439.904 528.053L441.897 537.421L484.417 514.841L487.78 523.248L505.316 491.059L517.327 508.835L524.293 460.31L535.584 489.617L550.276 463.663L563.352 473.952C566.204 470.349 567.418 449.053 567.668 438.856L576.773 444.956V436.071L556.416 341.216C554.828 364.749 549.313 415.541 539.957 430.441C530.602 445.34 503.503 436.649 494.841 430.441L485.816 438.67" stroke="black" stroke-width="3.38933"/>
<path d="M535.907 473.621V567.2C587.919 590.808 711.859 639.423 731.68 654.456C749.163 667.717 784.542 697.696 786.189 711.526M258.191 445.894V554.3L63.3899 643.808C42.6741 654.353 -4.21143e-09 684.222 0 713.246" stroke="black" stroke-width="14.6871"/>
<path d="M520.141 275.137L501.579 265.237L456.287 281.088M438.054 310.612L451.254 313.912L468.069 307.396M438.054 310.612L436.816 299.887M438.054 310.612L445.467 369.975L412.934 382.446M456.287 281.088L435.578 289.162L436.816 299.887M456.287 281.088L436.816 299.887M456.287 281.088L465.769 283.877M436.816 299.887L452.443 303.641M468.069 307.396L501.579 294.41L481.247 288.43M468.069 307.396L463.046 306.189M452.443 303.641L465.769 283.877M452.443 303.641L463.046 306.189M465.769 283.877L481.247 288.43M481.247 288.43L463.046 306.189" stroke="black" stroke-width="14.6871"/>
<path d="M303.004 275.137L321.566 265.237L366.858 281.088M366.858 281.088L387.566 289.162L386.329 299.887M366.858 281.088L386.329 299.887M366.858 281.088L357.376 283.877M386.329 299.887L385.091 310.612L371.891 313.912L355.075 307.396M386.329 299.887L370.702 303.641M355.075 307.396L321.566 294.41L341.898 288.43M355.075 307.396L360.099 306.189M370.702 303.641L357.376 283.877M370.702 303.641L360.099 306.189M357.376 283.877L341.898 288.43M341.898 288.43L360.099 306.189" stroke="black" stroke-width="14.6871"/>
<path d="M613.118 387.885C620.341 295.692 612.695 244.982 585.042 155.71C477.458 88.1512 296.292 127.56 219.157 155.71C199.547 234.492 193.807 284.434 196.609 387.885L243.259 400.843L258.377 261.538C380.037 216.342 445.834 214.545 559.125 255.599L572.623 400.843L613.118 387.885Z" fill="#605F5F" stroke="black" stroke-width="14.6871"/>
</g>
<defs>
<clipPath id="clip0_195_101">
<rect width="771" height="695" fill="white"/>
</clipPath>
</defs>
</svg>
