<svg width="771" height="695" viewBox="0 0 771 695" fill="none" xmlns="http://www.w3.org/2000/svg">
<g clip-path="url(#clip0_195_26)">
<path d="M201.852 475.983L156.107 497.182L114.904 541.591L82.6089 593.476L68.3141 654.361L64.0781 718.422L227.228 705.626L326.008 698.053L373.34 739.2L395.416 750.186L514.007 849.803L555.751 860.239L629.611 761.017L707.774 592.915L701.448 536.975L673.993 493.767L633.035 469.463L591.804 463.152L486.924 405.691L491.945 323.684L469.63 328.705L457.357 309.737L462.378 260.087L469.63 196.489L393.202 181.427H297.806L252.618 190.353L244.808 203.184L252.618 223.825L262.66 299.696L278.28 328.705L292.785 332.052L309.521 377.24V430.796L262.66 455.342L201.852 475.983Z" fill="white"/>
<path d="M213.366 580.852L225.942 613.712L277.057 669.289L318.435 699.714L332.634 708.233L374.013 750.423H389.834L398.759 737.036L428.778 714.318L460.827 692.818L481.516 681.864V669.289L432.835 622.636L436.486 611.277L445.817 580.852V556.106L428.778 535.822C422.558 532.983 408.251 527.141 400.787 526.492C391.456 525.68 387.4 531.36 384.56 530.549C382.288 529.899 383.613 526.221 384.56 524.463L356.974 486.736L326.954 475.377L292.472 480.651L257.179 499.312C253.528 503.639 242.169 516.999 225.942 535.822C209.716 554.646 210.797 573.685 213.366 580.852Z" fill="#D1293C" stroke="black" stroke-width="1.91966"/>
<path d="M598.287 463.418C587.03 464.884 468.053 533.218 537.263 640.28C504.845 642.365 505.915 677.505 500.728 693.348M500.728 693.348C525.392 709.391 555.586 734.96 553.599 747.394C549.716 737.957 548.544 722.122 500.728 693.348ZM500.728 693.348L482.55 682.633M482.55 682.633L484.483 670.536L432.503 620.6M482.55 682.633C461.604 691.654 413.493 717.9 388.614 750.718M432.503 620.6C442.767 606.556 458.61 572.308 439.876 547.674C421.142 523.039 396.442 525.704 386.434 530.116C380.613 507.171 356.011 464.483 304.174 477.286C252.337 490.09 226.477 531.257 220.026 550.24C213.368 565.937 208.897 605.213 244.278 636.737C279.658 668.261 311.048 693.901 322.321 702.781L328.747 703.807M432.503 620.6C407.302 627.589 351.27 654.014 328.747 703.807M328.747 703.807L372.192 748.094L388.614 750.718M388.614 750.718C423.119 785.277 504.364 849.474 547.409 858.696C554.348 859.805 581.349 852.926 587.022 837.325" stroke="black" stroke-width="11.4411"/>
<path d="M424.465 337.564L442.003 333.586L434.41 318.037L424.465 337.564Z" fill="#D1293C"/>
<path d="M435.982 269.356C431.221 293.284 432.921 342.86 469.125 327.981C486.871 320.688 481.645 323.516 466.793 333.227L453.012 344.367L442.003 333.586M442.003 333.586L424.465 337.564L434.41 318.037L442.003 333.586Z" stroke="black" stroke-width="11.4409"/>
<path d="M342.176 59.5161L287.75 79.4731L310.427 104.419L491.852 101.697L479.606 82.6477L433.343 59.5161L387.533 53.6201L342.176 59.5161Z" fill="white" stroke="black"/>
<path d="M267.076 90.0955C314.95 58.3782 430.757 18.6084 510.992 113.268" stroke="black" stroke-width="11.4409"/>
<path d="M391.608 234.327L359.311 232.066V219.78V213.011L413.589 225.227L398.855 231.327L391.608 234.327Z" fill="#D1293C"/>
<path d="M359.311 213.011L405.173 201.707L432.948 214.626M359.311 213.011L413.589 225.227L398.855 231.327M359.311 213.011V219.78M359.311 219.78V232.066L391.608 234.327L398.855 231.327M359.311 219.78L396.17 227.314L398.855 231.327" stroke="black" stroke-width="11.4409" stroke-miterlimit="16"/>
<path d="M307.383 314.164C308.724 314.282 310.132 314.395 311.46 314.521C323.628 315.662 335.328 316.335 346.953 316.217C358.597 316.139 370.127 315.3 382.311 314.436C383.663 314.342 385.034 314.252 386.406 314.164C385.198 313.507 383.96 312.885 382.714 312.3C371.446 307.035 359.052 304.68 346.859 304.777C334.661 304.895 322.464 307.384 311.101 312.377C309.868 312.932 308.574 313.534 307.383 314.164Z" fill="black"/>
<path d="M460.232 336.119C429.008 365.711 393.058 377.565 362.716 380.546L351.499 433.709C386.848 404.128 458.083 343.195 460.232 336.119Z" fill="#D1293C"/>
<path d="M305.414 374.994V427.567C294.193 437.713 258.653 461.232 206.265 474.144C153.876 487.057 120.985 530.399 110.674 547.242C75.7324 588.748 63.1008 667.021 63.1016 692.622M305.414 374.994C317.125 379.533 338.071 382.966 362.716 380.546M305.414 374.994C294.274 343.501 272.43 275.53 274.179 255.59C273.013 246.844 271.38 227.866 274.179 221.919C276.977 215.972 271.219 210.336 267.991 208.262V186.924M460.232 336.119L412.29 344.264L430.777 313.95C432.489 295.092 436.784 256.372 440.264 252.356C443.745 248.34 460.455 228.372 468.376 218.89M460.232 336.119C429.008 365.711 393.058 377.565 362.716 380.546M460.232 336.119C458.083 343.195 386.848 404.128 351.499 433.709L362.716 380.546M490.392 323.777V403.741L597.571 463.69M597.571 463.69C642.048 455.315 589.36 454.625 597.571 463.69ZM597.571 463.69C633.485 457.768 720.577 504.756 706.341 585.837L668.751 688.99L585.478 839.158" stroke="black" stroke-width="11.4409"/>
<path d="M310.898 208.697L325.765 212.631C325.565 214.022 326.003 226.316 325.765 227.916H311.634H304.846L294.709 226.147L288.405 222.807L310.898 208.697Z" fill="#D1293C"/>
<path d="M337.888 288.172L313.571 275.621C316.753 269.544 322.878 247.306 325.765 227.916M273.064 210.482L289.55 202.83L310.898 208.697M310.898 208.697L325.765 212.631C325.565 214.022 326.003 226.316 325.765 227.916M310.898 208.697L288.405 222.807L294.709 226.147L304.846 227.916M304.846 227.916V219.201L312.548 213.885L321.212 215.769L320.458 222.507L312.548 221.168L311.634 227.916M304.846 227.916H311.634M325.765 227.916H311.634" stroke="black" stroke-width="11.4409" stroke-miterlimit="16"/>
<path d="M325.887 325.297C338.081 326.229 344.913 326.243 357.112 325.297C355.936 329.748 354.729 331.924 351.095 334.946H332.229C328.107 332.14 326.837 329.97 325.887 325.297Z" fill="black"/>
<path d="M523.482 114.005C409.221 62.4032 291.787 80.7152 247.951 94.889L238.936 196.392C319.42 161.548 455.567 190.102 469.103 196.392C477.982 200.519 444.452 311.128 464.745 320.411C488.776 327.827 505.075 326.157 523.482 308.044C532.185 299.481 535.681 182.496 523.482 114.005Z" fill="#605F5F"/>
<path d="M238.936 196.392C319.42 161.548 455.567 190.102 469.103 196.392C477.982 200.519 444.452 311.128 464.745 320.411C488.776 327.827 505.075 326.157 523.482 308.044C532.185 299.481 535.681 182.496 523.482 114.005C409.221 62.4032 291.787 80.7152 247.951 94.889L238.936 196.392ZM238.936 196.392L252.186 220.44C247.605 257.247 262.809 338.028 285.025 330.917" stroke="black" stroke-width="11.4409"/>
<path d="M367.835 384.987L360.373 417.405L411.83 373.924L367.835 384.987Z" fill="black" stroke="black" stroke-width="11.4409"/>
</g>
<defs>
<clipPath id="clip0_195_26">
<rect width="771" height="695" fill="white"/>
</clipPath>
</defs>
</svg>
