<svg width="771" height="695" viewBox="0 0 771 695" fill="none" xmlns="http://www.w3.org/2000/svg">
<g clip-path="url(#clip0_195_72)">
<path d="M719.339 730.574H53.9902L87.3493 690.77L133.053 668.504L198.678 644.48L265.476 616.355L294.773 588.23L311.765 541.94V488.033L287.156 451.119L275.437 456.393L265.476 514.987V561.276L257.273 554.831L230.905 518.503L222.116 465.182L213.913 483.932L206.882 532.565L219.186 577.683L185.202 541.94L179.928 488.033L198.678 444.638L251.999 335.688L245.054 160.591L281.844 102.31L324.462 76.083L386.75 69.8906L444.303 102.31L451.952 131.45L488.115 147.595L522.588 191.317L550.833 292.777L503.717 444.638L476.226 492.915V564.661L497.012 602.21L581.497 644.452L660.618 679.319L719.339 730.574Z" fill="white"/>
<path d="M381.421 455.485L353.113 467.182H388.541C394.236 471.114 402.102 468.82 405.322 467.182H443.462C435.665 464.696 419.188 459.147 415.663 456.842C412.137 454.536 405.718 455.881 402.949 456.842C400.802 457.633 395.898 458.74 393.457 456.842C391.016 454.943 384.416 455.146 381.421 455.485Z" fill="black" stroke="black" stroke-width="1.13264" stroke-miterlimit="16"/>
<path d="M422.068 484.616C412.503 487.402 383.492 485.777 370.182 484.616C374.012 488.099 385.063 495.203 398.621 495.76C412.179 496.317 419.902 488.563 422.068 484.616Z" fill="black" stroke="black" stroke-width="1.13264"/>
<path d="M456.085 129.58C449.09 61.7075 287.039 24.2906 242.949 173.535L226.716 398.91C189.221 434.813 138.291 524.685 234.534 596.954C203.915 537.6 204.983 509.094 222.373 462.319C221.754 511.294 227.771 536.478 272.752 569.158C250.022 501.798 278.294 461.814 284.673 446.672" stroke="black" stroke-width="14.7243" stroke-miterlimit="16"/>
<path d="M278.816 316.64L303.938 311.119L370.467 345.626L371.079 354.155M371.079 354.155L303.938 345.626L316.321 356.41M371.079 354.155L371.547 360.675M371.547 360.675L372.015 367.194H328.705L316.321 356.41M371.547 360.675L316.321 356.41" stroke="black" stroke-width="14.7243" stroke-miterlimit="16"/>
<path d="M518.113 316.64L492.992 311.119L426.462 345.626L425.85 354.155M424.915 367.194H468.225L480.06 356.888M424.915 367.194C422.626 380.892 421.739 416.006 427.232 422.635C434.235 431.085 403.638 434.221 392.215 439.242M424.915 367.194L425.382 360.675M425.85 354.155L492.992 345.626L480.06 356.888M425.85 354.155L425.382 360.675M425.382 360.675L480.06 356.888" stroke="black" stroke-width="14.7243" stroke-miterlimit="16"/>
<path d="M309.688 483.866C279.461 458.33 257.573 353.795 250.407 304.72C241.696 258.009 252.719 205.016 259.319 184.358C269.94 151.115 350.623 102.288 449.107 131.012C547.592 159.737 553.542 250.534 544.207 292.342C537.475 317.314 523.1 374.033 519.452 401.133C515.804 428.233 491.44 467.58 479.714 483.866C465.165 497.112 431.768 526.861 414.57 539.89C397.372 552.919 380.043 545.319 373.529 539.89C364.843 531.856 339.915 509.403 309.688 483.866Z" stroke="black" stroke-width="14.7243"/>
<path d="M551.397 283.063C445.806 222.925 298.783 258.005 238.471 283.063L278.966 428.772L228.029 416.888C193.939 309.314 191.411 281.315 220.115 202.072C317.542 158.266 492.139 171.286 572.364 195.608C618.322 279.748 566 394.969 561.758 409.111L507.988 435.548L551.397 283.063Z" fill="#605F5F" stroke="black" stroke-width="14.7243" stroke-miterlimit="16"/>
<path d="M51.6621 744.265C64.0852 690.689 110.365 673.877 165.406 655.529C196.485 643.527 260.271 617.806 266.787 610.948C274.932 602.374 307.511 580.083 307.082 542.574C306.739 512.567 306.939 491.348 307.082 484.489" stroke="black" stroke-width="14.7243"/>
<path d="M479.41 483.418L478.125 553.506C478.196 565.151 483.183 591.443 502.559 603.446C521.935 615.449 577.534 637.543 602.254 649.475C628.135 661.966 713.188 691.493 713.188 730.328" stroke="black" stroke-width="14.7243"/>
</g>
<defs>
<clipPath id="clip0_195_72">
<rect width="771" height="695" fill="white"/>
</clipPath>
</defs>
</svg>
