<svg width="830" height="1184" viewBox="0 0 830 1184" fill="none" xmlns="http://www.w3.org/2000/svg">
<path d="M181.497 1.19922L489.008 148.993C595.719 200.28 665.709 238.309 698.703 263.031C731.86 287.876 755.832 319.731 770.581 358.548L771.274 360.353C785.7 398.342 790.394 442.877 785.489 493.869L785.279 496.288C782.433 528.016 775.948 559.245 765.829 589.974L817.932 652.977C824.646 661.095 818.874 673.364 808.339 673.369L729.023 673.404C682.215 759.243 624.039 814.798 554.35 839.59C563.81 941.871 553.711 1053.45 524.109 1174.32H8.93945V353.844L179.003 0L181.497 1.19922ZM552.452 849.823C552.432 849.575 552.415 849.326 552.395 849.077C552.376 848.842 552.355 848.608 552.336 848.373C552.375 848.856 552.414 849.34 552.452 849.823ZM538.59 28.3877C555.566 18.066 570.796 16.4482 583.479 20.6309C596.126 24.8015 606.008 34.6625 612.488 46.8535C618.969 59.0465 622.106 73.6712 621.201 87.5703C620.297 101.468 615.341 114.75 605.511 124.117C596.711 132.502 583.865 135.881 568.904 135.64C553.93 135.398 536.655 131.531 518.749 125.212C482.934 112.573 444.319 90.0261 416.048 66.4736C411.765 62.9057 410.985 57.7835 412.706 53.5703C414.418 49.3805 418.59 46.0983 424.093 46.0205C443.703 45.7433 466.992 44.6028 488.084 41.8809C509.246 39.1498 527.958 34.8523 538.59 28.3877Z" fill="#D1293C"/>
<path d="M181.497 1.19922L177.623 9.25627L177.624 9.2569L181.497 1.19922ZM489.008 148.993L492.88 140.935V140.935L489.008 148.993ZM698.703 263.031L704.064 255.877V255.877L698.703 263.031ZM770.581 358.548L762.224 361.723L762.23 361.739L762.236 361.754L770.581 358.548ZM771.274 360.353L779.632 357.179L779.626 357.163L779.62 357.146L771.274 360.353ZM785.489 493.869L776.59 493.013L776.586 493.055L776.583 493.096L785.489 493.869ZM785.279 496.288L794.184 497.087L794.185 497.074L794.186 497.061L785.279 496.288ZM765.829 589.974L757.338 587.177L755.794 591.867L758.94 595.671L765.829 589.974ZM817.932 652.977L824.821 647.279L824.821 647.279L817.932 652.977ZM808.339 673.369L808.343 682.309H808.343L808.339 673.369ZM729.023 673.404L729.019 664.464L723.714 664.467L721.175 669.124L729.023 673.404ZM554.35 839.59L551.353 831.167L544.808 833.495L545.448 840.413L554.35 839.59ZM524.109 1174.32V1183.26H531.124L532.793 1176.44L524.109 1174.32ZM8.93945 1174.32H-0.000546455V1183.26H8.93945V1174.32ZM8.93945 353.844L0.88178 349.971L-0.000546455 351.807V353.844H8.93945ZM179.003 0L182.877 -8.05705L174.819 -11.9316L170.945 -3.87266L179.003 0ZM552.452 849.823L543.541 850.536L561.364 849.114L552.452 849.823ZM552.395 849.077L561.306 848.359V848.359L552.395 849.077ZM552.336 848.373L561.246 847.644L543.426 849.101L552.336 848.373ZM538.59 28.3877L543.234 36.0265V36.0265L538.59 28.3877ZM583.479 20.6309L586.279 12.1406L586.279 12.1406L583.479 20.6309ZM612.488 46.8535L620.382 42.6575V42.6574L612.488 46.8535ZM621.201 87.5703L630.122 88.1509V88.1508L621.201 87.5703ZM605.511 124.117L611.678 130.589L611.678 130.589L605.511 124.117ZM568.904 135.64L568.76 144.578H568.76L568.904 135.64ZM518.749 125.212L515.774 133.642V133.642L518.749 125.212ZM416.048 66.4736L410.326 73.3424L410.326 73.3424L416.048 66.4736ZM412.706 53.5703L404.43 50.1895L404.43 50.1898L412.706 53.5703ZM424.093 46.0205L423.966 37.0814H423.966L424.093 46.0205ZM488.084 41.8809L489.228 50.7473V50.7473L488.084 41.8809ZM181.497 1.19922L177.624 9.2569L485.135 157.051L489.008 148.993L492.88 140.935L185.37 -6.85847L181.497 1.19922ZM489.008 148.993L485.135 157.051C591.96 208.392 661.159 246.071 693.342 270.186L698.703 263.031L704.064 255.877C670.26 230.548 599.478 192.168 492.88 140.935L489.008 148.993ZM698.703 263.031L693.342 270.186C725.141 294.012 748.075 324.486 762.224 361.723L770.581 358.548L778.938 355.372C763.589 314.976 738.58 281.739 704.064 255.877L698.703 263.031ZM770.581 358.548L762.236 361.754L762.929 363.559L771.274 360.353L779.62 357.146L778.926 355.342L770.581 358.548ZM771.274 360.353L762.917 363.526C776.741 399.934 781.398 443.031 776.59 493.013L785.489 493.869L794.388 494.725C799.39 442.724 794.658 396.751 779.632 357.179L771.274 360.353ZM785.489 493.869L776.583 493.096L776.373 495.515L785.279 496.288L794.186 497.061L794.396 494.642L785.489 493.869ZM785.279 496.288L776.375 495.489C773.591 526.527 767.246 557.086 757.338 587.177L765.829 589.974L774.321 592.77C784.649 561.404 791.276 529.505 794.184 497.087L785.279 496.288ZM765.829 589.974L758.94 595.671L811.042 658.674L817.932 652.977L824.821 647.279L772.718 584.276L765.829 589.974ZM817.932 652.977L811.042 658.674C812.937 660.965 811.308 664.428 808.335 664.429L808.339 673.369L808.343 682.309C826.44 682.301 836.354 661.226 824.821 647.279L817.932 652.977ZM808.339 673.369L808.335 664.429L729.019 664.464L729.023 673.404L729.027 682.344L808.343 682.309L808.339 673.369ZM729.023 673.404L721.175 669.124C675.064 753.683 618.365 807.328 551.353 831.167L554.35 839.59L557.346 848.013C629.714 822.268 689.366 764.803 736.872 677.684L729.023 673.404ZM554.35 839.59L545.448 840.413C554.8 941.521 544.84 1052.09 515.426 1172.19L524.109 1174.32L532.793 1176.44C562.582 1054.81 572.821 942.221 563.252 838.766L554.35 839.59ZM524.109 1174.32V1165.38H8.93945V1174.32V1183.26H524.109V1174.32ZM8.93945 1174.32H17.8795V353.844H8.93945H-0.000546455V1174.32H8.93945ZM8.93945 353.844L16.9971 357.716L187.061 3.87266L179.003 0L170.945 -3.87266L0.88178 349.971L8.93945 353.844ZM179.003 0L175.129 8.05705L177.623 9.25627L181.497 1.19922L185.371 -6.85784L182.877 -8.05705L179.003 0ZM552.452 849.823L561.364 849.114C561.356 849.01 561.348 848.904 561.338 848.774C561.329 848.652 561.318 848.508 561.306 848.359L552.395 849.077L543.483 849.795C543.518 850.229 543.498 849.998 543.54 850.533L552.452 849.823ZM552.395 849.077L561.306 848.359C561.291 848.183 561.255 847.748 561.246 847.645L552.336 848.373L543.426 849.101C543.456 849.468 543.46 849.502 543.483 849.795L552.395 849.077ZM552.336 848.373L543.426 849.102C543.464 849.574 543.501 850.037 543.541 850.536L552.452 849.823L561.364 849.111C561.326 848.643 561.287 848.138 561.246 847.644L552.336 848.373ZM538.59 28.3877L543.234 36.0265C558.451 26.7744 570.969 25.9187 580.68 29.1211L583.479 20.6309L586.279 12.1406C570.623 6.97765 552.68 9.35751 533.945 20.7489L538.59 28.3877ZM583.479 20.6309L580.68 29.1211C590.592 32.3902 598.892 40.3215 604.594 51.0496L612.488 46.8535L620.382 42.6574C613.125 29.0035 601.659 17.2128 586.279 12.1406L583.479 20.6309ZM612.488 46.8535L604.594 51.0495C610.291 61.7671 613.077 74.7367 612.28 86.9898L621.201 87.5703L630.122 88.1508C631.134 72.6058 627.648 56.3258 620.382 42.6575L612.488 46.8535ZM621.201 87.5703L612.28 86.9897C611.482 99.2475 607.161 110.196 599.344 117.645L605.511 124.117L611.678 130.589C623.521 119.304 629.111 103.689 630.122 88.1509L621.201 87.5703ZM605.511 124.117L599.344 117.645C592.914 123.771 582.791 126.923 569.049 126.701L568.904 135.64L568.76 144.578C584.938 144.84 600.508 141.233 611.678 130.589L605.511 124.117ZM568.904 135.64L569.049 126.701C555.38 126.48 539.109 122.916 521.724 116.781L518.749 125.212L515.774 133.642C534.2 140.145 552.481 144.315 568.76 144.578L568.904 135.64ZM518.749 125.212L521.724 116.781C486.968 104.516 449.274 82.5176 421.77 59.6049L416.048 66.4736L410.326 73.3424C439.365 97.5346 478.901 120.631 515.774 133.642L518.749 125.212ZM416.048 66.4736L421.77 59.6049C421.097 59.0444 420.909 58.5697 420.841 58.2711C420.759 57.9152 420.776 57.4553 420.982 56.9508L412.706 53.5703L404.43 50.1898C401.345 57.7418 402.831 67.0987 410.326 73.3424L416.048 66.4736ZM412.706 53.5703L420.982 56.9511C421.39 55.9528 422.438 54.9848 424.219 54.9596L424.093 46.0205L423.966 37.0814C414.741 37.2118 407.445 42.8083 404.43 50.1895L412.706 53.5703ZM424.093 46.0205L424.219 54.9596C444.029 54.6796 467.683 53.5278 489.228 50.7473L488.084 41.8809L486.94 33.0144C466.302 35.6778 443.378 36.8071 423.966 37.0814L424.093 46.0205ZM488.084 41.8809L489.228 50.7473C510.386 48.0168 530.823 43.573 543.234 36.0265L538.59 28.3877L533.945 20.7488C525.092 26.1315 508.106 30.2828 486.94 33.0144L488.084 41.8809Z" fill="white"/>
</svg>
