<svg width="576" height="1085" viewBox="0 0 576 1085" fill="none" xmlns="http://www.w3.org/2000/svg">
<path d="M405.131 915.839L445.365 444.098L303.472 431.996C254.216 427.795 221.101 426.631 204.127 428.505C187.152 430.378 171.981 436.662 158.614 447.354C145.264 457.841 134.018 472.866 124.876 492.43C115.546 511.77 109.923 532.672 108.007 555.136C103.964 602.537 112.979 639.219 135.053 665.182C95.302 719.917 68.1653 793.477 53.643 885.861L201.101 898.438L201.47 894.11C206.198 838.671 215.057 796.871 228.046 768.709C241.035 740.546 257.113 727.283 276.279 728.917L278.134 729.075L263.237 903.737L405.131 915.839ZM292.72 528.854L295.193 529.064L287.441 619.95L283.732 619.634C269.924 618.456 260.245 613.894 254.695 605.948C249.145 598.001 247.064 585.887 248.453 569.606C250.966 540.135 265.722 526.551 292.72 528.854Z" fill="#333232"/>
<path d="M334.215 909.73L366.055 536.409L368.283 510.294L186.785 494.815L180.354 570.212L174.857 634.674L192.384 636.169L246.099 640.751L103.417 890.045L334.215 909.73Z" fill="#333232"/>
<rect x="-6.87108" y="5.79113" width="46.2116" height="47.3669" transform="matrix(-0.996383 -0.0849813 -0.0849813 0.996383 274.483 502.862)" fill="#333232" stroke="#333232" stroke-width="12.7082"/>
<rect x="-5.79113" y="-6.87108" width="47.3669" height="97.0443" transform="matrix(0.0849813 -0.996383 -0.996383 -0.0849813 266.632 594.954)" fill="#333232" stroke="#333232" stroke-width="12.7082"/>
<rect x="-6.87108" y="5.79113" width="46.2116" height="47.3669" transform="matrix(-0.996383 -0.0849813 -0.0849813 0.996383 227.288 498.837)" fill="#333232" stroke="#333232" stroke-width="12.7082"/>
<rect x="-6.87108" y="5.79113" width="42.7457" height="73.9385" transform="matrix(-0.996383 -0.0849813 -0.0849813 0.996383 319.378 506.688)" fill="#333232" stroke="#333232" stroke-width="12.7082"/>
<rect x="-6.87108" y="5.79113" width="45.0563" height="73.9385" transform="matrix(-0.996383 -0.0849813 -0.0849813 0.996383 366.571 510.715)" fill="#333232" stroke="#333232" stroke-width="12.7082"/>
<path d="M70.4373 555.529L110.356 537.869C113.568 536.448 117.129 538.988 116.83 542.488L113.753 578.573C113.475 581.827 110.002 583.774 107.081 582.313L70.2399 563.889C66.7438 562.14 66.8626 557.111 70.4373 555.529Z" fill="#333232" stroke="#333232" stroke-width="1.15529"/>
<path d="M290.527 374.191C296.199 383.213 315.65 394.803 330.215 402.338C333.868 404.229 333.541 409.458 329.537 410.401C299.763 417.413 255.315 415.244 248.715 396.95C241.265 376.3 273.156 346.559 290.527 374.191Z" fill="#333232" stroke="#333232" stroke-width="1.15529"/>
<path d="M524.61 633.384L482.316 161.822L340.477 174.544C291.24 178.96 258.426 183.564 242.035 188.357C225.643 193.15 211.794 201.972 200.487 214.823C189.161 227.468 180.695 244.218 175.089 265.073C169.259 285.739 167.351 307.3 169.365 329.756C173.614 377.139 188.863 411.698 215.109 433.433C185.467 494.239 171.516 571.394 173.257 664.896L320.658 651.676L320.27 647.35C315.3 591.933 316.765 549.229 324.667 519.239C332.568 489.249 346.098 473.395 365.257 471.676L367.112 471.51L382.771 646.105L524.61 633.384ZM346.708 271.797L349.18 271.575L357.328 362.427L353.62 362.759C339.817 363.997 329.493 361.185 322.647 354.323C315.802 347.461 311.649 335.892 310.19 319.617C307.547 290.158 319.72 274.218 346.708 271.797Z" fill="#333232"/>
<path d="M453.717 639.692L420.247 266.513L417.906 240.409L236.477 256.681L243.237 332.05L249.016 396.487L266.538 394.916L320.231 390.1L223.007 660.383L453.717 639.692Z" fill="#333232"/>
<rect x="-5.76108" y="6.8963" width="46.2116" height="47.3669" transform="matrix(-0.996002 0.0893298 0.0893298 0.996002 325.244 248.17)" fill="#333232" stroke="#333232" stroke-width="12.7082"/>
<rect x="-6.8963" y="-5.76108" width="47.3669" height="97.0443" transform="matrix(-0.0893298 -0.996002 -0.996002 0.0893298 333.499 340.225)" fill="#333232" stroke="#333232" stroke-width="12.7082"/>
<rect x="-5.76108" y="6.8963" width="46.2116" height="47.3669" transform="matrix(-0.996002 0.0893298 0.0893298 0.996002 278.066 252.405)" fill="#333232" stroke="#333232" stroke-width="12.7082"/>
<rect x="-5.76108" y="6.8963" width="42.7457" height="73.9385" transform="matrix(-0.996002 0.0893298 0.0893298 0.996002 370.115 244.144)" fill="#333232" stroke="#333232" stroke-width="12.7082"/>
<rect x="-5.76108" y="6.8963" width="45.0563" height="73.9385" transform="matrix(-0.996002 0.0893298 0.0893298 0.996002 417.293 239.914)" fill="#333232" stroke="#333232" stroke-width="12.7082"/>
<path d="M132.435 336.666L168.681 312.342C171.598 310.384 175.545 312.268 175.859 315.766L179.094 351.837C179.386 355.09 176.304 357.611 173.173 356.68L133.692 344.932C129.946 343.817 129.189 338.844 132.435 336.666Z" fill="#333232" stroke="#333232" stroke-width="1.15529"/>
<path d="M274.662 118.027C281.814 125.927 302.983 133.963 318.634 138.855C322.561 140.082 323.146 145.288 319.366 146.912C291.262 158.988 247.113 164.571 237.437 147.701C226.514 128.658 252.757 93.8305 274.662 118.027Z" fill="#333232" stroke="#333232" stroke-width="1.15529"/>
</svg>
