<svg width="576" height="1085" viewBox="0 0 576 1085" fill="none" xmlns="http://www.w3.org/2000/svg">
<path d="M170.801 915.84L130.567 444.099L272.46 431.997C321.716 427.796 354.831 426.632 371.805 428.506C388.78 430.379 403.951 436.663 417.318 447.355C430.668 457.841 441.914 472.867 451.056 492.431C460.386 511.771 466.009 532.673 467.925 555.137C471.968 602.538 462.953 639.22 440.879 665.183C480.63 719.918 507.767 793.478 522.289 885.862L374.831 898.439L374.462 894.111C369.734 838.672 360.875 796.872 347.886 768.71C334.897 740.547 318.819 727.284 299.653 728.918L297.798 729.076L312.695 903.738L170.801 915.84ZM283.212 528.855L280.739 529.065L288.491 619.951L292.2 619.635C306.008 618.457 315.687 613.895 321.237 605.949C326.787 598.002 328.868 585.888 327.479 569.607C324.966 540.136 310.21 526.552 283.212 528.855Z" fill="#333232"/>
<path d="M241.713 909.73L209.873 536.409L207.645 510.294L389.143 494.815L395.574 570.212L401.072 634.674L383.544 636.169L329.83 640.751L472.511 890.045L241.713 909.73Z" fill="#333232"/>
<rect x="295.097" y="509.216" width="46.2116" height="47.3669" transform="rotate(-4.87495 295.097 509.216)" stroke="#333232" stroke-width="12.7082"/>
<rect x="302.946" y="601.308" width="47.3669" height="97.0443" transform="rotate(-94.875 302.946 601.308)" stroke="#333232" stroke-width="12.7082"/>
<rect x="342.286" y="505.192" width="46.2116" height="47.3669" transform="rotate(-4.87495 342.286 505.192)" stroke="#333232" stroke-width="12.7082"/>
<rect x="250.2" y="513.044" width="42.7457" height="73.9385" transform="rotate(-4.87495 250.2 513.044)" stroke="#333232" stroke-width="12.7082"/>
<rect x="203.007" y="517.07" width="45.0563" height="73.9385" transform="rotate(-4.87495 203.007 517.07)" stroke="#333232" stroke-width="12.7082"/>
<path d="M505.491 555.529L465.572 537.869C462.36 536.448 458.799 538.988 459.098 542.488L462.175 578.573C462.453 581.827 465.926 583.774 468.847 582.313L505.688 563.889C509.184 562.14 509.066 557.111 505.491 555.529Z" fill="#333232" stroke="#333232" stroke-width="1.15529"/>
<path d="M285.407 374.192C279.735 383.214 260.284 394.804 245.719 402.339C242.066 404.229 242.393 409.458 246.397 410.401C276.171 417.414 320.619 415.245 327.219 396.951C334.669 376.301 302.778 346.559 285.407 374.192Z" fill="#333232" stroke="#333232" stroke-width="1.15529"/>
<path d="M51.3221 633.384L93.6156 161.822L235.455 174.544C284.692 178.96 317.506 183.564 333.897 188.357C350.289 193.15 364.138 201.972 375.446 214.823C386.772 227.468 395.237 244.218 400.843 265.073C406.673 285.739 408.581 307.3 406.567 329.756C402.318 377.139 387.07 411.698 360.823 433.433C390.465 494.239 404.416 571.394 402.676 664.896L255.274 651.676L255.662 647.35C260.632 591.933 259.167 549.229 251.265 519.239C243.364 489.249 229.834 473.395 210.675 471.676L208.82 471.51L193.161 646.105L51.3221 633.384ZM229.224 271.797L226.752 271.575L218.604 362.427L222.312 362.759C236.115 363.997 246.439 361.185 253.285 354.323C260.13 347.461 264.283 335.892 265.743 319.617C268.385 290.158 256.212 274.218 229.224 271.797Z" fill="#333232"/>
<path d="M122.217 639.691L155.687 266.513L158.028 240.408L339.457 256.68L332.697 332.049L326.918 396.487L309.396 394.915L255.703 390.1L352.927 660.383L122.217 639.691Z" fill="#333232"/>
<rect x="244.336" y="254.524" width="46.2116" height="47.3669" transform="rotate(5.12505 244.336 254.524)" stroke="#333232" stroke-width="12.7082"/>
<rect x="236.079" y="346.579" width="47.3669" height="97.0443" transform="rotate(-84.875 236.079 346.579)" stroke="#333232" stroke-width="12.7082"/>
<rect x="291.514" y="258.759" width="46.2116" height="47.3669" transform="rotate(5.12505 291.514 258.759)" stroke="#333232" stroke-width="12.7082"/>
<rect x="199.461" y="250.498" width="42.7457" height="73.9385" transform="rotate(5.12505 199.461 250.498)" stroke="#333232" stroke-width="12.7082"/>
<rect x="152.285" y="246.268" width="45.0563" height="73.9385" transform="rotate(5.12505 152.285 246.268)" stroke="#333232" stroke-width="12.7082"/>
<path d="M443.499 336.666L407.253 312.342C404.336 310.384 400.389 312.268 400.075 315.766L396.84 351.837C396.548 355.09 399.631 357.611 402.761 356.68L442.242 344.932C445.988 343.817 446.745 338.844 443.499 336.666Z" fill="#333232" stroke="#333232" stroke-width="1.15529"/>
<path d="M301.27 118.027C294.118 125.927 272.95 133.963 257.298 138.855C253.371 140.082 252.786 145.288 256.566 146.912C284.67 158.988 328.819 164.571 338.495 147.701C349.418 128.658 323.175 93.8305 301.27 118.027Z" fill="#333232" stroke="#333232" stroke-width="1.15529"/>
</svg>
