<svg width="602" height="374" viewBox="0 0 602 374" fill="none" xmlns="http://www.w3.org/2000/svg">
<path d="M73.2008 294.92L178.748 314.09L268.545 263.203L305.249 240.878L407.512 236.497L517.486 200.091L554.803 164.069L558.463 92.6134L506.995 45.7399L407.496 64.9811L327.958 26.1241L217.967 66.3786L82.7742 73.2417L12.3805 164.069L73.2008 294.92Z" fill="white" stroke="#D1293C" stroke-width="10.603" stroke-miterlimit="16"/>
<path d="M132.162 157.077L126.425 134.889L145.23 130.026L150.967 152.215L144.277 153.945L139.856 136.846L134.431 138.249L138.852 155.347L132.162 157.077ZM150.935 141.086L150.596 139.776C149.645 136.098 149.891 133.129 151.334 130.87C152.786 128.609 155.006 127.092 157.993 126.32C160.98 125.547 163.662 125.797 166.039 127.068C168.427 128.336 170.096 130.81 171.047 134.487L171.386 135.798C172.337 139.476 172.076 142.448 170.603 144.715C169.14 146.979 166.915 148.497 163.928 149.27C160.941 150.042 158.264 149.791 155.897 148.518C153.54 147.241 151.886 144.764 150.935 141.086ZM158.259 140.802C158.695 142.488 159.291 143.619 160.046 144.193C160.809 144.754 161.704 144.902 162.73 144.637C163.766 144.369 164.487 143.803 164.892 142.94C165.295 142.066 165.278 140.786 164.842 139.1L163.731 134.802C163.295 133.116 162.692 131.998 161.921 131.449C161.148 130.891 160.243 130.745 159.207 131.013C158.181 131.279 157.47 131.842 157.075 132.703C156.687 133.551 156.712 134.818 157.148 136.504L158.259 140.802ZM173.428 135.27L173.089 133.959C172.125 130.231 172.348 127.258 173.758 125.04C175.175 122.809 177.423 121.295 180.502 120.499C183.377 119.756 185.83 119.853 187.861 120.791C189.892 121.729 191.237 123.473 191.896 126.023L192.192 127.166L185.7 128.845L185.302 127.306C185.052 126.341 184.634 125.685 184.045 125.338C183.457 124.992 182.691 124.941 181.746 125.185C180.75 125.443 180.049 125.981 179.644 126.802C179.248 127.619 179.27 128.877 179.709 130.573L180.859 135.023C181.279 136.649 181.864 137.755 182.612 138.342C183.357 138.919 184.268 139.068 185.345 138.789C186.259 138.553 186.872 138.113 187.182 137.469C187.49 136.815 187.517 135.957 187.264 134.895L186.953 133.691L193.445 132.012L193.788 133.338C194.39 135.708 194.031 137.801 192.712 139.616C191.403 141.428 189.311 142.706 186.436 143.45C183.317 144.256 180.605 144.015 178.298 142.725C176.002 141.433 174.379 138.948 173.428 135.27ZM191.97 123.354L190.658 118.28L209.219 113.48L210.532 118.555L204.634 120.08L209.059 137.193L202.324 138.935L197.898 121.821L191.97 123.354ZM214.652 135.747L216.782 111.476L224.081 109.588L237.74 129.777L230.851 131.558L222.69 118.858C222.471 118.513 222.285 118.193 222.132 117.896C221.99 117.597 221.87 117.341 221.771 117.128L221.695 117.148C221.712 117.382 221.726 117.665 221.736 117.999C221.746 118.332 221.743 118.696 221.726 119.091L220.9 134.132L214.652 135.747ZM218.928 130.593L218.848 125.818L228.799 123.245L231.089 127.449L218.928 130.593ZM238.867 129.486L233.13 107.297L243.005 104.744C245.535 104.09 247.573 104.094 249.121 104.756C250.676 105.405 251.694 106.659 252.175 108.518C252.496 109.758 252.492 110.853 252.163 111.805C251.843 112.745 251.304 113.469 250.547 113.979L250.563 114.04C251.66 114.049 252.667 114.401 253.583 115.096C254.497 115.781 255.152 116.886 255.546 118.41C256.061 120.401 255.731 122.144 254.557 123.64C253.383 125.136 251.562 126.203 249.093 126.842L238.867 129.486ZM244.301 123.463L246.907 122.789C247.74 122.574 248.294 122.181 248.57 121.612C248.845 121.042 248.88 120.361 248.675 119.568C248.476 118.796 248.117 118.228 247.6 117.863C247.081 117.488 246.404 117.408 245.571 117.623L242.965 118.297L244.301 123.463ZM242.027 114.67L244.328 114.075C245.121 113.87 245.642 113.519 245.893 113.02C246.143 112.522 246.174 111.907 245.985 111.176C245.796 110.444 245.472 109.926 245.014 109.622C244.556 109.318 243.931 109.268 243.138 109.473L240.837 110.068L242.027 114.67ZM253.886 101.93L260.576 100.2L262.424 107.348L265.716 106.496C268.641 105.74 270.909 105.896 272.519 106.965C274.126 108.023 275.217 109.665 275.792 111.89C276.388 114.196 276.217 116.197 275.279 117.892C274.341 119.587 272.444 120.803 269.59 121.542L259.623 124.119L253.886 101.93ZM263.669 112.163L265.068 117.573L267.217 117.018C268.141 116.778 268.748 116.378 269.036 115.816C269.334 115.251 269.368 114.521 269.136 113.627C268.918 112.784 268.539 112.177 267.999 111.808C267.47 111.435 266.747 111.367 265.833 111.604L263.669 112.163Z" fill="black"/>
<path d="M140.063 205.944L139.228 202.716C136.518 192.232 136.977 184.108 140.608 178.342C144.231 172.549 149.905 168.653 157.63 166.656C164.968 164.759 171.155 164.954 176.191 167.243C181.227 169.531 184.659 174.207 186.485 181.269L187.64 185.738L170.839 190.083L169.234 183.876C168.664 181.668 167.691 180.125 166.315 179.244C164.932 178.336 163.206 178.15 161.137 178.685C158.82 179.284 157.266 180.672 156.475 182.848C155.676 184.997 155.809 188.127 156.872 192.238L160.585 206.597C161.662 210.763 163.095 213.63 164.884 215.198C166.665 216.739 168.715 217.21 171.032 216.61C173.101 216.075 174.479 215.028 175.164 213.467C175.87 211.872 175.855 209.595 175.12 206.636L173.9 201.918L190.701 197.574L192.081 202.912C193.686 209.119 192.848 214.472 189.567 218.97C186.313 223.461 180.99 226.662 173.596 228.574C165.623 230.636 158.706 229.952 152.846 226.523C146.985 223.094 142.724 216.234 140.063 205.944ZM186.714 174.985L183.087 160.956L231.959 148.319L235.586 162.348L220.275 166.307L232.227 212.53L214.061 217.228L202.108 171.004L186.714 174.985ZM247.125 208.678L250.746 143.461L270.361 138.389L304.604 193.815L287.1 198.342L267.072 163.742C266.476 162.69 265.96 161.778 265.526 161.008C265.111 160.202 264.792 159.593 264.568 159.18L264.443 159.212C264.447 159.682 264.449 160.374 264.45 161.286C264.471 162.163 264.486 163.19 264.495 164.364L264.34 204.227L247.125 208.678ZM256.513 195.302L255.784 183.261L284.172 175.921L289.577 186.752L256.513 195.302ZM306.963 193.205L291.383 132.953L318.737 125.88C325.054 124.247 329.973 124.432 333.493 126.435C337.013 128.439 339.383 131.8 340.603 136.517C341.495 139.966 341.502 143.01 340.625 145.65C339.768 148.256 338.226 150.317 335.999 151.835L336.042 152.001C339.207 151.948 342.09 152.85 344.689 154.709C347.31 156.534 349.183 159.625 350.31 163.984C351.673 169.253 351.005 173.841 348.306 177.747C345.628 181.618 341.227 184.346 335.103 185.929L306.963 193.205ZM321.338 177.259L327.256 175.729C329.38 175.18 330.798 174.121 331.512 172.554C332.245 170.951 332.33 169.06 331.766 166.881C331.203 164.701 330.212 163.089 328.794 162.043C327.396 160.962 325.635 160.696 323.51 161.245L317.593 162.776L321.338 177.259ZM315.335 154.044L320.632 152.674C322.673 152.146 323.992 151.158 324.589 149.709C325.185 148.259 325.205 146.459 324.649 144.307C324.093 142.155 323.213 140.631 322.01 139.736C320.8 138.812 319.174 138.615 317.133 139.142L311.836 140.512L315.335 154.044ZM391.258 171.409L371.039 147.852L385.337 136.561L411.204 166.251L391.258 171.409ZM357.89 139.685L369.435 136.699L375.016 111.328L393.224 106.62L384.144 147.995L361.549 153.837L357.89 139.685ZM358.69 179.83L343.11 119.578L360.987 114.955L376.567 175.207L358.69 179.83ZM412.957 149.639C413.559 149.69 414.322 149.684 415.248 149.621C416.201 149.551 417.05 149.42 417.795 149.227C419.892 148.685 421.401 147.75 422.323 146.423C423.273 145.088 423.973 143.127 424.422 140.538L425.127 145.654L394.383 106.32L413.584 101.355L426.665 120.356C427.14 121.057 427.557 121.7 427.914 122.285C428.299 122.862 428.719 123.519 429.174 124.255L429.339 124.212C429.36 123.382 429.385 122.625 429.414 121.941C429.464 121.222 429.53 120.454 429.613 119.638L431.585 96.7004L448.634 92.2918L441.568 137.87C440.384 145.24 438.696 151.063 436.505 155.338C434.307 159.586 430.421 162.43 424.848 163.871C422.669 164.434 420.958 164.759 419.714 164.845C418.498 164.924 417.551 164.904 416.873 164.785L412.957 149.639Z" fill="#D1293C"/>
</svg>
